<svg fill="transparent" viewBox="0 0 32 32" xmlns="http://www.w3.org/2000/svg"><path d="M4 31.5C2.07 31.5.5 29.93.5 28V4C.5 2.07 2.07.5 4 .5h24c1.93 0 3.5 1.57 3.5 3.5v24c0 1.93-1.57 3.5-3.5 3.5H4z" fill="#FFF"/><path d="M28 1c1.654 0 3 1.346 3 3v24c0 1.654-1.346 3-3 3H4c-1.654 0-3-1.346-3-3V4c0-1.654 1.346-3 3-3h24m0-1H4C1.8 0 0 1.8 0 4v24c0 2.2 1.8 4 4 4h24c2.2 0 4-1.8 4-4V4c0-2.2-1.8-4-4-4z"/><path d="M27.437 29.438H4.562c-1.1 0-2-.9-2-2V4.562c0-1.1.9-2 2-2h22.875c1.1 0 2 .9 2 2v22.875c0 1.101-.9 2.001-2 2.001z" fill="#ed2727"/><g fill="#FFF"><path d="M16 15.586l9.195-4.846c-.126-.502-.561-.885-1.101-.885H7.906c-.54 0-.976.383-1.101.885L16 15.586z"/><path d="M15.936 16.513l-2.303-1.214-4.874 6.846h14.468l-4.873-6.839L16 16.547zM19.113 14.907l5.134 7.207c.561-.078 1.003-.543 1.003-1.125v-9.317l-6.137 3.235zM7.74 22.111l5.135-7.211-6.125-3.228v9.316c0 .578.435 1.039.99 1.123z"/></g></svg>