<svg fill="#357698" height="60" viewBox="0 0 32 32" width="60" xmlns="http://www.w3.org/2000/svg"><path d="M30.776 24.858l-.147-.445c-.353-1.045-1.504-2.135-2.563-2.422l-3.918-1.07c-1.063-.289-2.578.1-3.354.877l-1.418 1.418c-5.153-1.393-9.194-5.434-10.586-10.586l1.418-1.418c.777-.777 1.166-2.291.878-3.354l-1.068-3.92c-.289-1.063-1.381-2.214-2.424-2.563l-.447-.15c-1.045-.348-2.535.004-3.313.781l-2.12 2.123c-.38.377-.621 1.455-.621 1.459-.074 6.734 2.565 13.225 7.33 17.986 4.752 4.752 11.216 7.389 17.931 7.332.035 0 1.145-.238 1.523-.615l2.12-2.121c.775-.774 1.128-2.267.779-3.312z"/></svg>