<svg height="60" viewBox="0 0 512 512" width="60" xmlns="http://www.w3.org/2000/svg"><path fill="#64a9dc" d="M0 0h512v512H0z"/><path d="M425.1014 94.198L78.7536 227.785c-23.6387 9.4844-23.4986 22.669-4.3087 28.5482l86.3802 26.961 33.051 101.3321c4.0181 11.0908 2.0374 15.4895 13.6838 15.4895 8.9879 0 12.975-4.0977 17.9809-8.9878 3.1833-3.1152 22.0838-21.4909 43.1875-42.0094l89.8516 66.3864c16.5339 9.1217 28.4723 4.3962 32.5893-15.3557l58.9806-277.9394C456.1885 98 440.9202 87.0186 425.1014 94.198zM174.3814 277.1L369.083 154.2616c9.7197-5.8946 18.6316-2.7254 11.3145 3.7698L213.6821 308.4507l-6.4913 69.2354L174.3815 277.1z" fill="#fff"/></svg>