<svg viewBox="0 0 64 64" xmlns="http://www.w3.org/2000/svg" xmlns:xlink="http://www.w3.org/1999/xlink"><defs><linearGradient gradientUnits="userSpaceOnUse" id="a" x1="-8.924" x2="43.076" y1="16.141" y2="73.141"><stop offset="0" stop-color="#fff200"/><stop offset="1" stop-color="#cd118c"/></linearGradient><linearGradient id="b" x1="5.266" x2="57.266" xlink:href="#a" y1="3.196" y2="60.196"/></defs><g data-name="chart-financial-business-finance"><path fill="url(#a)" d="M54 60v-1h-2v1h-8v-1h-2v1h-9v-1h-2v1h-8v-1h-2v1h-9v-1h-2v1H4v-6h1v-2H4v-8h1v-2H4v-9h1v-2H4v-9h1v-2H4v-7h1v-2H4V2H2v60h60v-2h-8z"/><path d="M11 57a3.985 3.985 0 002.673-6.954L21.1 35.888a3.8 3.8 0 002.751-.361l4.814 5.28A4.005 4.005 0 1034.618 40l7.546-15.091a3.971 3.971 0 004.371-5.74l4.254-3.84a4.131 4.131 0 10-1.324-1.5l-4.254 3.84A3.988 3.988 0 0040.382 24l-7.546 15.091a3.855 3.855 0 00-2.683.382l-4.814-5.28a4 4 0 10-6.012.761L11.9 49.112A4 4 0 1011 57zm42-47a2 2 0 11-2 2 2 2 0 012-2zm-10 9a2 2 0 11-2 2 2 2 0 012-2zm-9 24a2 2 0 11-2-2 2 2 0 012 2zM22 30a2 2 0 11-2 2 2 2 0 012-2zM11 51a2 2 0 11-2 2 2 2 0 012-2z" fill="url(#b)"/></g></svg>