<svg viewBox="0 0 64 64" xmlns="http://www.w3.org/2000/svg"><defs><linearGradient gradientUnits="userSpaceOnUse" id="a" x1="6.423" x2="61.423" y1="-3.497" y2="57.503"><stop offset="0" stop-color="#fff200"/><stop offset="1" stop-color="#cd118c"/></linearGradient></defs><path d="M62 7V5h-3V2h-2v3.586l-7.934 7.934a28.046 28.046 0 101.414 1.414L58.414 7zm-6 27a26.042 26.042 0 11-8.348-19.066L43.4 19.191a20.077 20.077 0 101.414 1.414l4.257-4.257A25.9 25.9 0 0156 34zm-19 0a7.028 7.028 0 11-2.816-5.6L31 31.586V30h-2v5h5v-2h-1.586l3.186-3.184A6.953 6.953 0 0137 34zm-1.389-7.025a9.023 9.023 0 101.414 1.414l6.37-6.37a18.07 18.07 0 11-1.414-1.414z" fill="url(#a)"/></svg>