<svg viewBox="0 0 64 64" xmlns="http://www.w3.org/2000/svg"><g fill="#f8f8f8"><path d="M48.454 12H15.546L.651 29.022 32 62.462l31.349-33.439L48.454 12zm11.342 16H57v2h2.692L35.034 56.302 48.61 30H55v-2h-6.446l-8.75-14h7.742l12.25 14zM15.39 30l13.575 26.302L4.308 30H15.39zm1.76-.953L26.554 14h10.891l9.404 15.047L32 57.82 17.15 29.047zM16.454 14h7.742l-8.75 14H4.204l12.25-14z"/><path d="M40 29v-1.5c0-3.033-2.467-5.5-5.5-5.5H33v-2h-2v2h-1.5c-3.033 0-5.5 2.467-5.5 5.5s2.467 5.5 5.5 5.5h5c1.93 0 3.5 1.57 3.5 3.5S36.43 40 34.5 40h-5c-1.93 0-3.5-1.57-3.5-3.5V35h-2v1.5c0 3.033 2.467 5.5 5.5 5.5H31v2h2v-2h1.5c3.033 0 5.5-2.467 5.5-5.5S37.533 31 34.5 31h-5c-1.93 0-3.5-1.57-3.5-3.5s1.57-3.5 3.5-3.5h5c1.93 0 3.5 1.57 3.5 3.5V29h2zM5 7h2v2H5zM1.7571 9.1709l1.4142-1.4142 1.4142 1.4142-1.4142 1.4142zM1 11h2v2H1zM1.7566 14.8285l1.4142-1.4142 1.4142 1.4142-1.4142 1.4142zM5 15h2v2H5zM7.4135 14.8283l1.4142-1.4142 1.4142 1.4142-1.4142 1.4142zM9 11h2v2H9zM7.414 9.1721L8.8282 7.758l1.4142 1.4142-1.4142 1.4142zM50 1h2v2h-2zM46.757 3.1712L48.171 1.757l1.4142 1.4142-1.4142 1.4142zM46 5h2v2h-2zM46.7563 8.8289l1.4142-1.4142 1.4142 1.4142-1.4142 1.4142zM50 9h2v2h-2zM52.4133 8.8287l1.4142-1.4142 1.4142 1.4142-1.4142 1.4142zM54 5h2v2h-2zM52.4138 3.1725l1.4142-1.4142 1.4142 1.4142-1.4142 1.4142zM59 13h2v2h-2zM59 17h2v2h-2zM61 15h2v2h-2zM57 15h2v2h-2zM21 1h2v2h-2zM21 5h2v2h-2zM23 3h2v2h-2zM19 3h2v2h-2z"/><path d="M31 27h2v2h-2zM31 35h2v2h-2z"/></g></svg>