<svg fill="#85868b" height="24" width="24" xmlns="http://www.w3.org/2000/svg"><path d="M21.635 6.366c-.467-.772-1.043-1.528-1.748-2.229a11.6198 11.6198 0 00-2.269-1.754L19 1s2 0 3 1 1 3 1 3l-1.365 1.366zM10 18H6v-4l.48-.48c.813.385 1.621.926 2.348 1.652a8.386 8.386 0 011.652 2.348L10 18zM20.48 7.52l-8.846 8.845c-.467-.771-1.043-1.529-1.748-2.229-.712-.709-1.482-1.288-2.269-1.754L16.48 3.52c.813.383 1.621.924 2.348 1.651A8.335 8.335 0 0120.48 7.52zM4 4v16h16v-7l3-3.038V21c0 1.105-.896 2-2 2H3c-1.104 0-2-.895-2-2V3c0-1.104.896-2 2-2h11.01l-3.001 3H4z"/></svg>