<svg height="256" viewBox="0 0 100 100" width="256" xmlns="http://www.w3.org/2000/svg"><path d="M86 34.837v39.871H22.869V50.212c.971.193 1.977.293 2.994.293 4.629 0 8.762-2.072 11.523-5.324 3.521 2.289 8.775 5.697 16.643 10.814L86 34.837z" fill="#D9A741"/><clipPath id="a"/><g clip-path="url(#a)"><path d="M86 74.708v2.363H22.869v-2.363H86" fill="#fff"/></g><clipPath id="b"/><g clip-path="url(#b)"><path d="M40.922 32.854v2.363c0-.521-.025-1.047-.086-1.545V31.31c.06.498.086 1.021.086 1.544" fill="#503C78"/></g><path d="M40.836 31.31h42.699L54.018 50.833c-.002 0-.121-.074-15.502-9.889 1.51-2.34 2.406-5.105 2.406-8.09 0-.523-.026-1.046-.086-1.544z" fill="#D9A741"/><path fill="#fff" d="M83.535 31.31v2.363L54.018 53.2v-2.367z"/><g><clipPath id="c"/><g clip-path="url(#c)"><path d="M54.018 50.833V53.2c-.002 0-.121-.08-15.502-9.895v-2.361c15.38 9.815 15.5 9.889 15.502 9.889" fill="#fff"/></g></g><g><clipPath id="d"/><g clip-path="url(#d)"><path d="M29.904 33.405v2.363c0 .215-.002.434-.002.652v-2.363c0-.22.002-.437.002-.652" fill="#D9A741"/></g><clipPath id="e"/><g clip-path="url(#e)"><path d="M26.918 36.249v2.23-2.361.131" fill="#D9A741"/></g><g><path d="M36.494 28.382c1.645 3.094 1.568 6.516.479 9.66-.602 1.568-1.672 3.178-3.525 4.066-.541.307-1.156.441-1.781.441-1.576 0-3.217-.859-3.938-2.061-.123-.182-.232-.354-.393-.572-1.166 1.18-1.988 1.535-3.51 1.535-1.793 0-3.189-1.096-3.189-3.301 0-1.707.941-2.873 2.271-3.449 1.162-.498 2.771-.596 4.01-.73v-.281c0-.498.039-1.092-.256-1.531-.271-.393-.764-.551-1.205-.551-.809 0-1.533.414-1.707 1.271-.035.189-.172.375-.365.385l-2.072-.219c-.176-.039-.367-.182-.32-.438.479-2.486 2.734-3.238 4.773-3.238 1.029 0 2.381.279 3.203 1.061 1.029.947.934 2.238.934 3.627v3.303c0 .975.404 1.412.783 1.928.248.186.529.275.822.275.986 0 2.141-.986 2.762-2.58.861-2.266.955-5.217-.184-7.311-1.445-2.699-4.881-4.223-8.244-4.223-1.947 0-3.871.514-5.365 1.604-4.332 2.973-5.621 9.682-2.531 14.068 1.883 2.963 5.287 4.539 8.748 4.539 1.936 0 3.889-.492 5.604-1.516.17-.1.32-.135.467-.135.318 0 .627.162.795.461.246.43.088.977-.355 1.219-1.986 1.262-4.332 1.873-6.689 1.873-4.006 0-8.043-1.775-10.32-5.258-3.816-5.289-2.518-13.328 2.857-17.203 1.949-1.51 4.48-2.174 6.912-2.174.83 0 1.65.078 2.428.227 3.115.476 6.431 2.148 8.101 5.228zm-9.98 9.976c.416-.73.404-1.414.404-2.24v-.453c-1.543 0-3.168.318-3.168 2.119 0 .916.469 1.535 1.291 1.535.602 0 1.141-.363 1.473-.961" fill="#D9A741"/></g></g></svg>