<svg data-name="money chart-financial-business-finance" viewBox="0 0 64 64" xmlns="http://www.w3.org/2000/svg" xmlns:xlink="http://www.w3.org/1999/xlink"><defs><linearGradient gradientUnits="userSpaceOnUse" id="a" x1=".607" x2="64.607" y1="-3.317" y2="68.683"><stop offset="0" stop-color="#fff200"/><stop offset="1" stop-color="#cd118c"/></linearGradient><linearGradient id="b" x1="-4.421" x2="59.579" xlink:href="#a" y1="1.152" y2="73.152"/><linearGradient id="c" x1="5.634" x2="69.634" xlink:href="#a" y1="-7.786" y2="64.214"/><linearGradient id="d" x1=".616" x2="64.616" xlink:href="#a" y1="-3.326" y2="68.674"/><linearGradient id="e" x1="15.068" x2="79.068" xlink:href="#a" y1="-16.171" y2="55.829"/><linearGradient id="f" x1="-13.359" x2="50.641" xlink:href="#a" y1="9.097" y2="81.097"/><linearGradient id="g" x1="-8.766" x2="55.234" xlink:href="#a" y1="5.014" y2="77.014"/><linearGradient id="h" x1="-4.11" x2="59.89" xlink:href="#a" y1=".876" y2="72.876"/></defs><path d="M32 18a14 14 0 1014 14 14.015 14.015 0 00-14-14zm0 26a12 12 0 1112-12 12.013 12.013 0 01-12 12z" fill="url(#a)"/><path fill="url(#a)" d="M33 23h-2v2h-4v8h8v4h-6v-1h-2v3h4v2h2v-2h4v-8h-8v-4h6v1h2v-3h-4v-2z"/><path fill="url(#b)" d="M22 31h2v2h-2z"/><path fill="url(#c)" d="M40 31h2v2h-2z"/><path d="M47.593 38.771a17 17 0 11-3.569-18.793l.707.7 9.193-9.193-.707-.707a30 30 0 106.3 33.164l.4-.917-11.926-5.171zm9.676 5.292A27.994 27.994 0 1151.083 11.5l-6.372 6.371A18.947 18.947 0 0019.2 18H15v2h2.285a19.035 19.035 0 00-2.5 4H12v2h1.986a18.888 18.888 0 00-.935 5H10v2h3.051a18.984 18.984 0 0035.954 7.475z" fill="url(#d)"/><path d="M56.412 14.567l-.581-.809-10.589 7.551.585.815A16.818 16.818 0 0149 32a16.347 16.347 0 01-.508 4.1l-.254.976 12.63 3.157.242-.97A30.107 30.107 0 0062 32a29.716 29.716 0 00-5.588-17.433zM59.394 37.8l-8.742-2.186a18.97 18.97 0 00-2.636-13.83l7.338-5.233A27.719 27.719 0 0160 32a28.136 28.136 0 01-.606 5.8z" fill="url(#e)"/><path fill="url(#f)" d="M6 31h2v2H6z"/><path fill="url(#g)" d="M8 24h2v2H8z"/><path fill="url(#h)" d="M11 18h2v2h-2z"/></svg>