<svg viewBox="0 0 64 64" xmlns="http://www.w3.org/2000/svg"><defs><linearGradient gradientUnits="userSpaceOnUse" id="a" x1="4.034" x2="65.034" y1="5.741" y2="71.741"><stop offset="0" stop-color="#fff200"/><stop offset="1" stop-color="#cd118c"/></linearGradient></defs><path d="M43 16V9a3 3 0 00-3-3H24a3 3 0 00-3 3v7H2v40h60V16zM23 9a1 1 0 011-1h16a1 1 0 011 1v7H23zM4 18h56v13h-5v-3a2 2 0 00-2-2h-4a2 2 0 00-2 2v3H17v-3a2 2 0 00-2-2h-4a2 2 0 00-2 2v3H4zm45 15v-5h4v8h-4zm-38 0v-5h4v8h-4zm49 21H4V33h5v3a2 2 0 002 2h4a2 2 0 002-2v-3h30v3a2 2 0 002 2h4a2 2 0 002-2v-3h5z" fill="url(#a)"/></svg>