<svg width="1210" height="935" xmlns="http://www.w3.org/2000/svg" xmlns:xlink="http://www.w3.org/1999/xlink" style="margin-left:auto;margin-right:auto" display="block"><defs><clipPath id="c_1"><path d="M0 0h1210v935H0z"/></clipPath><clipPath id="c0"><path d="M0 935V0h1210v935z"/></clipPath><style>text{white-space:pre}path{pointer-events:none}text::-moz-selection{color:transparent;background:rgba(0,106,173,.4)}text::selection{color:transparent;background:rgba(0,106,173,.4)}.s1{font-size:19.86px;font-family:Carlito-Bold_9;fill:TRANSPARENT}.g0{fill:#d3dfee}.g1{fill:none;stroke:#4f81bd;stroke-width:1.527;stroke-linecap:butt;stroke-linejoin:round}</style></defs><path d="M0 0v935h1210V0z" fill="#FFF"/><g clip-path="url(#c_1)"><path fill-rule="evenodd" d="M6.1 213.2h192.4v-51.9H6.1v51.9zM198.6 213.2h54.2v-51.9h-54.2v51.9zM252.8 213.2h44.6v-51.9h-44.6v51.9zM297.5 213.2h44.3v-51.9h-44.3v51.9zM341.9 213.2h44.6v-51.9h-44.6v51.9zM386.5 213.2h44.6v-51.9h-44.6v51.9zM431.1 213.2h44.4v-51.9h-44.4v51.9zM475.6 213.2h44.5v-51.9h-44.5v51.9zM520.2 213.2h44.5v-51.9h-44.5v51.9zM564.8 213.2h44.4v-51.9h-44.4v51.9zM609.3 213.2h44.5v-51.9h-44.5v51.9zM653.9 213.2h44.5v-51.9h-44.5v51.9zM698.5 213.2h44.4v-51.9h-44.4v51.9zM743 213.2h61v-51.9h-61v51.9zM804.1 213.2h139.4v-51.9H804.1v51.9zM943.6 213.2h238.1v-51.9H943.6v51.9zM6.1 318h192.4v-51.2H6.1V318zM198.6 318h54.2v-51.2h-54.2V318zM252.8 318h44.6v-51.2h-44.6V318zM297.5 318h44.3v-51.2h-44.3V318zM341.9 318h44.6v-51.2h-44.6V318zM386.5 318h44.6v-51.2h-44.6V318zM431.1 318h44.4v-51.2h-44.4V318zM475.6 318h44.5v-51.2h-44.5V318zM520.2 318h44.5v-51.2h-44.5V318zM564.8 318h44.4v-51.2h-44.4V318zM609.3 318h44.5v-51.2h-44.5V318zM653.9 318h44.5v-51.2h-44.5V318zM698.5 318h44.4v-51.2h-44.4V318zM743 318h61v-51.2h-61V318zM804.1 318h139.4v-51.2H804.1V318zM943.6 318h238.1v-51.2H943.6V318zM6.1 420.7h192.4v-51.3H6.1v51.3zM198.6 420.7h54.2v-51.3h-54.2v51.3zM252.8 420.7h44.6v-51.3h-44.6v51.3zM297.5 420.7h44.3v-51.3h-44.3v51.3zM341.9 420.7h44.6v-51.3h-44.6v51.3zM386.5 420.7h44.6v-51.3h-44.6v51.3zM431.1 420.7h44.4v-51.3h-44.4v51.3zM475.6 420.7h44.5v-51.3h-44.5v51.3zM520.2 420.7h44.5v-51.3h-44.5v51.3zM564.8 420.7h44.4v-51.3h-44.4v51.3zM609.3 420.7h44.5v-51.3h-44.5v51.3zM653.9 420.7h44.5v-51.3h-44.5v51.3zM698.5 420.7h44.4v-51.3h-44.4v51.3zM743 420.7h61v-51.3h-61v51.3zM804.1 420.7h139.4v-51.3H804.1v51.3zM943.6 420.7h238.1v-51.3H943.6v51.3zM6.1 525.6h192.4v-53.5H6.1v53.5zM198.6 525.6h54.2v-53.5h-54.2v53.5zM252.8 525.6h44.6v-53.5h-44.6v53.5zM297.5 525.6h44.3v-53.5h-44.3v53.5zM341.9 525.6h44.6v-53.5h-44.6v53.5zM386.5 525.6h44.6v-53.5h-44.6v53.5zM431.1 525.6h44.4v-53.5h-44.4v53.5zM475.6 525.6h44.5v-53.5h-44.5v53.5zM520.2 525.6h44.5v-53.5h-44.5v53.5zM564.8 525.6h44.4v-53.5h-44.4v53.5zM609.3 525.6h44.5v-53.5h-44.5v53.5zM653.9 525.6h44.5v-53.5h-44.5v53.5zM698.5 525.6h44.4v-53.5h-44.4v53.5zM743 525.6h61v-53.5h-61v53.5zM804.1 525.6h139.4v-53.5H804.1v53.5zM943.6 525.6h238.1v-53.5H943.6v53.5zM6.1 628.3h192.4V577H6.1v51.3zM198.6 628.3h54.2V577h-54.2v51.3zM252.8 628.3h44.6V577h-44.6v51.3zM297.5 628.3h44.3V577h-44.3v51.3zM341.9 628.3h44.6V577h-44.6v51.3zM386.5 628.3h44.6V577h-44.6v51.3zM431.1 628.3h44.4V577h-44.4v51.3zM475.6 628.3h44.5V577h-44.5v51.3zM520.2 628.3h44.5V577h-44.5v51.3zM564.8 628.3h44.4V577h-44.4v51.3zM609.3 628.3h44.5V577h-44.5v51.3zM653.9 628.3h44.5V577h-44.5v51.3zM698.5 628.3h44.4V577h-44.4v51.3zM743 628.3h61V577h-61v51.3zM804.1 628.3h139.4V577H804.1v51.3zM943.6 628.3h238.1V577H943.6v51.3zM6.1 733.1h192.4v-53.4H6.1v53.4zM198.6 733.1h54.2v-53.4h-54.2v53.4zM252.8 733.1h44.6v-53.4h-44.6v53.4zM297.5 733.1h44.3v-53.4h-44.3v53.4zM341.9 733.1h44.6v-53.4h-44.6v53.4zM386.5 733.1h44.6v-53.4h-44.6v53.4zM431.1 733.1h44.4v-53.4h-44.4v53.4zM475.6 733.1h44.5v-53.4h-44.5v53.4zM520.2 733.1h44.5v-53.4h-44.5v53.4zM564.8 733.1h44.4v-53.4h-44.4v53.4zM609.3 733.1h44.5v-53.4h-44.5v53.4zM653.9 733.1h44.5v-53.4h-44.5v53.4zM698.5 733.1h44.4v-53.4h-44.4v53.4zM743 733.1h61v-53.4h-61v53.4zM804.1 733.1h139.4v-53.4H804.1v53.4zM943.6 733.1h238.1v-53.4H943.6v53.4z" class="g0"/><path fill-rule="evenodd" d="M6.1 213.2h192.4v-51.9H6.1v51.9zM198.6 213.2h54.2v-51.9h-54.2v51.9zM252.8 213.2h44.6v-51.9h-44.6v51.9zM297.5 213.2h44.3v-51.9h-44.3v51.9zM341.9 213.2h44.6v-51.9h-44.6v51.9zM386.5 213.2h44.6v-51.9h-44.6v51.9zM431.1 213.2h44.4v-51.9h-44.4v51.9zM475.6 213.2h44.5v-51.9h-44.5v51.9zM520.2 213.2h44.5v-51.9h-44.5v51.9zM564.8 213.2h44.4v-51.9h-44.4v51.9zM609.3 213.2h44.5v-51.9h-44.5v51.9zM653.9 213.2h44.5v-51.9h-44.5v51.9zM698.5 213.2h44.4v-51.9h-44.4v51.9zM743 213.2h61v-51.9h-61v51.9zM804.1 213.2h139.4v-51.9H804.1v51.9zM943.6 213.2h238.1v-51.9H943.6v51.9zM6.1 318h192.4v-51.2H6.1V318zM198.6 318h54.2v-51.2h-54.2V318zM252.8 318h44.6v-51.2h-44.6V318zM297.5 318h44.3v-51.2h-44.3V318zM341.9 318h44.6v-51.2h-44.6V318zM386.5 318h44.6v-51.2h-44.6V318zM431.1 318h44.4v-51.2h-44.4V318zM475.6 318h44.5v-51.2h-44.5V318zM520.2 318h44.5v-51.2h-44.5V318zM564.8 318h44.4v-51.2h-44.4V318zM609.3 318h44.5v-51.2h-44.5V318zM653.9 318h44.5v-51.2h-44.5V318zM698.5 318h44.4v-51.2h-44.4V318zM743 318h61v-51.2h-61V318zM804.1 318h139.4v-51.2H804.1V318zM943.6 318h238.1v-51.2H943.6V318zM6.1 420.7h192.4v-51.3H6.1v51.3zM198.6 420.7h54.2v-51.3h-54.2v51.3zM252.8 420.7h44.6v-51.3h-44.6v51.3zM297.5 420.7h44.3v-51.3h-44.3v51.3zM341.9 420.7h44.6v-51.3h-44.6v51.3zM386.5 420.7h44.6v-51.3h-44.6v51.3zM431.1 420.7h44.4v-51.3h-44.4v51.3zM475.6 420.7h44.5v-51.3h-44.5v51.3zM520.2 420.7h44.5v-51.3h-44.5v51.3zM564.8 420.7h44.4v-51.3h-44.4v51.3zM609.3 420.7h44.5v-51.3h-44.5v51.3zM653.9 420.7h44.5v-51.3h-44.5v51.3zM698.5 420.7h44.4v-51.3h-44.4v51.3zM743 420.7h61v-51.3h-61v51.3zM804.1 420.7h139.4v-51.3H804.1v51.3zM943.6 420.7h238.1v-51.3H943.6v51.3zM6.1 525.6h192.4v-53.5H6.1v53.5zM198.6 525.6h54.2v-53.5h-54.2v53.5zM252.8 525.6h44.6v-53.5h-44.6v53.5zM297.5 525.6h44.3v-53.5h-44.3v53.5zM341.9 525.6h44.6v-53.5h-44.6v53.5zM386.5 525.6h44.6v-53.5h-44.6v53.5zM431.1 525.6h44.4v-53.5h-44.4v53.5zM475.6 525.6h44.5v-53.5h-44.5v53.5zM520.2 525.6h44.5v-53.5h-44.5v53.5zM564.8 525.6h44.4v-53.5h-44.4v53.5zM609.3 525.6h44.5v-53.5h-44.5v53.5zM653.9 525.6h44.5v-53.5h-44.5v53.5zM698.5 525.6h44.4v-53.5h-44.4v53.5zM743 525.6h61v-53.5h-61v53.5zM804.1 525.6h139.4v-53.5H804.1v53.5zM943.6 525.6h238.1v-53.5H943.6v53.5zM6.1 628.3h192.4V577H6.1v51.3zM198.6 628.3h54.2V577h-54.2v51.3zM252.8 628.3h44.6V577h-44.6v51.3zM297.5 628.3h44.3V577h-44.3v51.3zM341.9 628.3h44.6V577h-44.6v51.3zM386.5 628.3h44.6V577h-44.6v51.3zM431.1 628.3h44.4V577h-44.4v51.3zM475.6 628.3h44.5V577h-44.5v51.3zM520.2 628.3h44.5V577h-44.5v51.3zM564.8 628.3h44.4V577h-44.4v51.3zM609.3 628.3h44.5V577h-44.5v51.3zM653.9 628.3h44.5V577h-44.5v51.3zM698.5 628.3h44.4V577h-44.4v51.3zM743 628.3h61V577h-61v51.3zM804.1 628.3h139.4V577H804.1v51.3zM943.6 628.3h238.1V577H943.6v51.3zM6.1 733.1h192.4v-53.4H6.1v53.4zM198.6 733.1h54.2v-53.4h-54.2v53.4zM252.8 733.1h44.6v-53.4h-44.6v53.4zM297.5 733.1h44.3v-53.4h-44.3v53.4zM341.9 733.1h44.6v-53.4h-44.6v53.4zM386.5 733.1h44.6v-53.4h-44.6v53.4zM431.1 733.1h44.4v-53.4h-44.4v53.4zM475.6 733.1h44.5v-53.4h-44.5v53.4zM520.2 733.1h44.5v-53.4h-44.5v53.4zM564.8 733.1h44.4v-53.4h-44.4v53.4zM609.3 733.1h44.5v-53.4h-44.5v53.4zM653.9 733.1h44.5v-53.4h-44.5v53.4zM698.5 733.1h44.4v-53.4h-44.4v53.4zM743 733.1h61v-53.4h-61v53.4zM804.1 733.1h139.4v-53.4H804.1v53.4zM943.6 733.1h238.1v-53.4H943.6v53.4z" class="g0"/><path d="M5.3 110.8h1177.2" class="g1"/><path d="M5.3 163.1h1177.2" fill="none" stroke="#4f81bd" stroke-width="3.437" stroke-linejoin="round"/><path d="M5.3 214h1177.2M5.3 267.5h1177.2M5.3 318.8h1177.2M5.3 370.2h1177.2M5.3 421.5h1177.2M5.3 472.8h1177.2M5.3 526.5h1177.2M5.3 577.8h1177.2M5.3 629.1h1177.2M5.3 680.5h1177.2M5.3 733.9h1177.2M5.3 785.3h1177.2M6.1 110v676m192.5-676v676m54.2-676v676m44.7-676v676m44.4-676v676m44.6-676v676m44.6-676v676m44.5-676v676m44.6-676v676m44.6-676v676m44.5-676v676m44.6-676v676m44.6-676v676M743 110v676m61.1-676v676m139.5-676v676m238.1-676v676" class="g1"/><g fill="#445C70" clip-path="url(#c0)"><use xlink:href="#f0_2" transform="matrix(13 0 0 13 18.9 130.8)"/><use xlink:href="#f0_3" transform="matrix(13 0 0 13 30.1 130.8)"/><use xlink:href="#f0_4" transform="matrix(13 0 0 13 39.9 130.8)"/><use xlink:href="#f0_5" transform="matrix(13 0 0 13 50.5 130.8)"/><use xlink:href="#f0_6" transform="matrix(13 0 0 13 60 130.8)"/><use xlink:href="#f0_4" transform="matrix(13 0 0 13 64.9 130.8)"/><use xlink:href="#f0_a" transform="matrix(13 0 0 13 75.5 130.8)"/><use xlink:href="#f0_b" transform="matrix(13 0 0 13 85 130.8)"/><use xlink:href="#f0_c" transform="matrix(13 0 0 13 93.5 130.8)"/><use xlink:href="#f0_d" transform="matrix(13 0 0 13 106.2 130.8)"/><use xlink:href="#f0_4" transform="matrix(13 0 0 13 116.1 130.8)"/><use xlink:href="#f0_d" transform="matrix(13 0 0 13 126.8 130.8)"/><use xlink:href="#f0_e" transform="matrix(13 0 0 13 136.7 130.8)"/><use xlink:href="#f0_3" transform="matrix(13 0 0 13 143.8 130.8)"/><use xlink:href="#f0_f" transform="matrix(13 0 0 13 153.5 130.8)"/><use xlink:href="#f0_h" transform="matrix(13 0 0 13 165.1 130.8)"/><use xlink:href="#f0_4" transform="matrix(13 0 0 13 175.8 130.8)"/><use xlink:href="#f0_i" transform="matrix(13 0 0 13 221.2 130.8)"/><use xlink:href="#f0_j" transform="matrix(13 0 0 13 270.6 130.8)"/><use xlink:href="#f0_l" transform="matrix(13 0 0 13 315.2 130.8)"/><use xlink:href="#f0_n" transform="matrix(13 0 0 13 359.8 130.8)"/><use xlink:href="#f0_p" transform="matrix(13 0 0 13 404.3 130.8)"/><use xlink:href="#f0_r" transform="matrix(13 0 0 13 448.9 130.8)"/><use xlink:href="#f0_s" transform="matrix(13 0 0 13 493.5 130.8)"/><use xlink:href="#f0_u" transform="matrix(13 0 0 13 537.9 130.8)"/><use xlink:href="#f0_v" transform="matrix(13 0 0 13 582.5 130.8)"/><use xlink:href="#f0_i" transform="matrix(13 0 0 13 622 130.8)"/><use xlink:href="#f0_x" transform="matrix(13 0 0 13 632 130.8)"/><use xlink:href="#f0_i" transform="matrix(13 0 0 13 666.6 130.8)"/><use xlink:href="#f0_i" transform="matrix(13 0 0 13 676.6 130.8)"/><use xlink:href="#f0_i" transform="matrix(13 0 0 13 711.2 130.8)"/><use xlink:href="#f0_j" transform="matrix(13 0 0 13 721.3 130.8)"/><use xlink:href="#f0_y" transform="matrix(13 0 0 13 753 130.8)"/><use xlink:href="#f0_h" transform="matrix(13 0 0 13 762.8 130.8)"/><use xlink:href="#f0_z" transform="matrix(13 0 0 13 773.5 130.8)"/><use xlink:href="#f0_3" transform="matrix(13 0 0 13 780.4 130.8)"/><use xlink:href="#f0_10" transform="matrix(13 0 0 13 790.1 130.8)"/><use xlink:href="#f0_11" transform="matrix(13 0 0 13 814.2 130.8)"/><use xlink:href="#f0_6" transform="matrix(13 0 0 13 831.6 130.8)"/><use xlink:href="#f0_4" transform="matrix(13 0 0 13 836.4 130.8)"/><use xlink:href="#f0_6" transform="matrix(13 0 0 13 847 130.8)"/><use xlink:href="#f0_12" transform="matrix(13 0 0 13 851.8 130.8)"/><use xlink:href="#f0_13" transform="matrix(13 0 0 13 868 130.8)"/><use xlink:href="#f0_12" transform="matrix(13 0 0 13 878.7 130.8)"/><use xlink:href="#f0_c" transform="matrix(13 0 0 13 899.3 130.8)"/><use xlink:href="#f0_15" transform="matrix(13 0 0 13 911.9 130.8)"/><use xlink:href="#f0_16" transform="matrix(13 0 0 13 922.5 130.8)"/><use xlink:href="#f0_17" transform="matrix(13 0 0 13 953.9 130.8)"/><use xlink:href="#f0_e" transform="matrix(13 0 0 13 967.4 130.8)"/><use xlink:href="#f0_a" transform="matrix(13 0 0 13 974.4 130.8)"/><use xlink:href="#f0_3" transform="matrix(13 0 0 13 983.9 130.8)"/><use xlink:href="#f0_4" transform="matrix(13 0 0 13 993.6 130.8)"/><use xlink:href="#f0_6" transform="matrix(13 0 0 13 1004.2 130.8)"/><use xlink:href="#f0_18" transform="matrix(13 0 0 13 1009 130.8)"/><use xlink:href="#f0_3" transform="matrix(13 0 0 13 1017 130.8)"/><use xlink:href="#f0_f" transform="matrix(13 0 0 13 1026.7 130.8)"/><use xlink:href="#f0_h" transform="matrix(13 0 0 13 1038.4 130.8)"/><use xlink:href="#f0_4" transform="matrix(13 0 0 13 1049 130.8)"/><use xlink:href="#f0_2" transform="matrix(13 0 0 13 1064.1 130.8)"/><use xlink:href="#f0_d" transform="matrix(13 0 0 13 1075.3 130.8)"/><use xlink:href="#f0_19" transform="matrix(13 0 0 13 1085.2 130.8)"/><use xlink:href="#f0_13" transform="matrix(13 0 0 13 1095.9 130.8)"/><use xlink:href="#f0_6" transform="matrix(13 0 0 13 1106.5 130.8)"/><use xlink:href="#f0_e" transform="matrix(13 0 0 13 1111.4 130.8)"/><use xlink:href="#f0_d" transform="matrix(13 0 0 13 1118.4 130.8)"/><use xlink:href="#f0_12" transform="matrix(13 0 0 13 1128.4 130.8)"/><use xlink:href="#f0_d" transform="matrix(13 0 0 13 1144.5 130.8)"/><use xlink:href="#f0_4" transform="matrix(13 0 0 13 1154.5 130.8)"/><use xlink:href="#f0_z" transform="matrix(13 0 0 13 1165.1 130.8)"/><use xlink:href="#f0_p" transform="matrix(13 0 0 13 43.1 184.1)"/></g><text x="18" y="130" dx="0,0,0,0,0,0,0,0,0,0,-.1,0,-.1,0,0,0,0,0" class="s1">Ranking/Generation</text><text x="221" y="130" class="s1">1</text><text x="270" y="130" class="s1">2</text><text x="315" y="130" class="s1">3</text><text x="359" y="130" class="s1">4</text><text x="404" y="130" class="s1">5</text><text x="448" y="130" class="s1">6</text><text x="493" y="130" class="s1">7</text><text x="537" y="130" class="s1">8</text><text x="582" y="130" class="s1">9</text><text x="621" y="130" class="s1">10</text><text x="666" y="130" class="s1">11</text><text x="711" y="130" class="s1">12</text><text x="753" y="130" dx="0,-.1,0,0,0" class="s1">Total</text><text x="814" y="130" dx="0,0,0,-.1,0,0,0,0,-.1,0,0" class="s1">Minimum GPV</text><text x="953" y="130" dx="0,0,0,0,0,-.1,0,0,0,0,0,0,0,-.1,0,-.1,0,0,0,0,-.1,0,-.1,0" class="s1">Organization Requirement</text><g fill="#445C70" clip-path="url(#c0)"><use xlink:href="#f0_1a" transform="matrix(13 0 0 13 57.7 184.1)"/><use xlink:href="#f0_z" transform="matrix(13 0 0 13 67 184.1)"/><use xlink:href="#f0_3" transform="matrix(13 0 0 13 73.9 184.1)"/><use xlink:href="#f0_e" transform="matrix(13 0 0 13 83.7 184.1)"/><use xlink:href="#f0_1b" transform="matrix(13 0 0 13 95.3 184.1)"/><use xlink:href="#f0_6" transform="matrix(13 0 0 13 107.8 184.1)"/><use xlink:href="#f0_e" transform="matrix(13 0 0 13 112.7 184.1)"/><use xlink:href="#f0_d" transform="matrix(13 0 0 13 119.7 184.1)"/><use xlink:href="#f0_1c" transform="matrix(13 0 0 13 129.6 184.1)"/><use xlink:href="#f0_z" transform="matrix(13 0 0 13 137.9 184.1)"/><use xlink:href="#f0_h" transform="matrix(13 0 0 13 144.7 184.1)"/><use xlink:href="#f0_e" transform="matrix(13 0 0 13 155.4 184.1)"/><use xlink:href="#f0_i" transform="matrix(13 0 0 13 209 184.1)"/><use xlink:href="#f0_x" transform="matrix(13 0 0 13 219.1 184.1)"/><use xlink:href="#f0_1d" transform="matrix(13 0 0 13 229 184.1)"/><use xlink:href="#f0_p" transform="matrix(13 0 0 13 263.4 184.1)"/><use xlink:href="#f0_1d" transform="matrix(13 0 0 13 273.5 184.1)"/><use xlink:href="#f0_p" transform="matrix(13 0 0 13 308 184.1)"/><use xlink:href="#f0_1d" transform="matrix(13 0 0 13 317.9 184.1)"/><use xlink:href="#f0_p" transform="matrix(13 0 0 13 352.5 184.1)"/><use xlink:href="#f0_1d" transform="matrix(13 0 0 13 362.5 184.1)"/><use xlink:href="#f0_p" transform="matrix(13 0 0 13 397.1 184.1)"/><use xlink:href="#f0_1d" transform="matrix(13 0 0 13 407.1 184.1)"/><use xlink:href="#f0_p" transform="matrix(13 0 0 13 441.7 184.1)"/><use xlink:href="#f0_1d" transform="matrix(13 0 0 13 451.6 184.1)"/><use xlink:href="#f0_p" transform="matrix(13 0 0 13 486.1 184.1)"/><use xlink:href="#f0_1d" transform="matrix(13 0 0 13 496.2 184.1)"/><use xlink:href="#f0_i" transform="matrix(13 0 0 13 530.8 184.1)"/><use xlink:href="#f0_1d" transform="matrix(13 0 0 13 540.8 184.1)"/><use xlink:href="#f0_i" transform="matrix(13 0 0 13 575.4 184.1)"/><use xlink:href="#f0_1d" transform="matrix(13 0 0 13 585.3 184.1)"/><use xlink:href="#f0_i" transform="matrix(13 0 0 13 619.8 184.1)"/><use xlink:href="#f0_1d" transform="matrix(13 0 0 13 629.9 184.1)"/><use xlink:href="#f0_i" transform="matrix(13 0 0 13 664.4 184.1)"/><use xlink:href="#f0_1d" transform="matrix(13 0 0 13 674.4 184.1)"/><use xlink:href="#f0_i" transform="matrix(13 0 0 13 709 184.1)"/><use xlink:href="#f0_1d" transform="matrix(13 0 0 13 719 184.1)"/><use xlink:href="#f0_n" transform="matrix(13 0 0 13 756.7 184.1)"/><use xlink:href="#f0_p" transform="matrix(13 0 0 13 766.8 184.1)"/><use xlink:href="#f0_1d" transform="matrix(13 0 0 13 776.8 184.1)"/><use xlink:href="#f0_r" transform="matrix(13 0 0 13 815.5 184.1)"/><use xlink:href="#f0_x" transform="matrix(13 0 0 13 825.6 184.1)"/><use xlink:href="#f0_1e" transform="matrix(13 0 0 13 835.5 184.1)"/><use xlink:href="#f0_x" transform="matrix(13 0 0 13 840.7 184.1)"/><use xlink:href="#f0_x" transform="matrix(13 0 0 13 850.8 184.1)"/><use xlink:href="#f0_x" transform="matrix(13 0 0 13 860.9 184.1)"/><use xlink:href="#f0_1e" transform="matrix(13 0 0 13 870.8 184.1)"/><use xlink:href="#f0_x" transform="matrix(13 0 0 13 876 184.1)"/><use xlink:href="#f0_x" transform="matrix(13 0 0 13 886 184.1)"/><use xlink:href="#f0_x" transform="matrix(13 0 0 13 896.1 184.1)"/><use xlink:href="#f0_15" transform="matrix(13 0 0 13 910.7 184.1)"/><use xlink:href="#f0_16" transform="matrix(13 0 0 13 921.3 184.1)"/><use xlink:href="#f0_11" transform="matrix(13 0 0 13 970.4 184.1)"/><use xlink:href="#f0_6" transform="matrix(13 0 0 13 987.8 184.1)"/><use xlink:href="#f0_4" transform="matrix(13 0 0 13 992.7 184.1)"/><use xlink:href="#f0_1f" transform="matrix(13 0 0 13 1003.3 184.1)"/><use xlink:href="#f0_l" transform="matrix(13 0 0 13 1013.1 184.1)"/><use xlink:href="#f0_10" transform="matrix(13 0 0 13 1027.6 184.1)"/><use xlink:href="#f0_d" transform="matrix(13 0 0 13 1032.5 184.1)"/><use xlink:href="#f0_a" transform="matrix(13 0 0 13 1042.4 184.1)"/><use xlink:href="#f0_1g" transform="matrix(13 0 0 13 1051.9 184.1)"/><use xlink:href="#f0_1e" transform="matrix(13 0 0 13 1059.7 184.1)"/><use xlink:href="#f0_17" transform="matrix(13 0 0 13 1069.4 184.1)"/><use xlink:href="#f0_4" transform="matrix(13 0 0 13 1082.7 184.1)"/><use xlink:href="#f0_d" transform="matrix(13 0 0 13 1093.4 184.1)"/><use xlink:href="#f0_l" transform="matrix(13 0 0 13 1107.9 184.1)"/><use xlink:href="#f0_1a" transform="matrix(13 0 0 13 1122.5 184.1)"/><use xlink:href="#f0_z" transform="matrix(13 0 0 13 1131.8 184.1)"/><use xlink:href="#f0_3" transform="matrix(13 0 0 13 1138.7 184.1)"/><use xlink:href="#f0_e" transform="matrix(13 0 0 13 1148.5 184.1)"/><use xlink:href="#f0_1b" transform="matrix(13 0 0 13 980.8 208.2)"/></g><text x="43" y="184" dx="0,0,.1,-.1,0,0,.1,-.1,0,0,0,-.1,-.1,0,0" class="s1">5 Star Director</text><text x="209" y="184" dx="0,0,-.1" class="s1">10%</text><text x="263" y="184" class="s1">5%</text><text x="308" y="184" dx="0,-.1" class="s1">5%</text><text x="352" y="184" class="s1">5%</text><text x="397" y="184" class="s1">5%</text><text x="441" y="184" dx="0,-.1" class="s1">5%</text><text x="486" y="184" class="s1">5%</text><text x="530" y="184" class="s1">1%</text><text x="575" y="184" dx="0,-.1" class="s1">1%</text><text x="619" y="184" class="s1">1%</text><text x="664" y="184" dx="0,-.1" class="s1">1%</text><text x="709" y="184" dx="0,-.1" class="s1">1%</text><text x="756" y="184" class="s1">45%</text><text x="815" y="184" dx="0,0,-.1,.1,0,0,-.1,.1,0,0,0,.1,0" class="s1">60,000,000 PV</text><text x="970" y="184" dx="0,0,0,-.1,0,.1,0,-.1,0,-.1,0,-.1,.1,.1,-.1,0,.1,-.1,0,.1,-.1,0,0" class="s1">Min. 3 legs, One 3 Star</text><g fill="#445C70" clip-path="url(#c0)"><use xlink:href="#f0_6" transform="matrix(13 0 0 13 993.3 208.2)"/><use xlink:href="#f0_e" transform="matrix(13 0 0 13 998.2 208.2)"/><use xlink:href="#f0_d" transform="matrix(13 0 0 13 1005.2 208.2)"/><use xlink:href="#f0_1c" transform="matrix(13 0 0 13 1015.2 208.2)"/><use xlink:href="#f0_z" transform="matrix(13 0 0 13 1023.4 208.2)"/><use xlink:href="#f0_h" transform="matrix(13 0 0 13 1030.3 208.2)"/><use xlink:href="#f0_e" transform="matrix(13 0 0 13 1041 208.2)"/><use xlink:href="#f0_6" transform="matrix(13 0 0 13 1052.6 208.2)"/><use xlink:href="#f0_4" transform="matrix(13 0 0 13 1057.4 208.2)"/><use xlink:href="#f0_d" transform="matrix(13 0 0 13 1072.5 208.2)"/><use xlink:href="#f0_3" transform="matrix(13 0 0 13 1082.4 208.2)"/><use xlink:href="#f0_1c" transform="matrix(13 0 0 13 1092.2 208.2)"/><use xlink:href="#f0_1h" transform="matrix(13 0 0 13 1100.5 208.2)"/><use xlink:href="#f0_10" transform="matrix(13 0 0 13 1115.8 208.2)"/><use xlink:href="#f0_d" transform="matrix(13 0 0 13 1120.7 208.2)"/><use xlink:href="#f0_a" transform="matrix(13 0 0 13 1130.6 208.2)"/><use xlink:href="#f0_1f" transform="matrix(13 0 0 13 1140 208.2)"/><use xlink:href="#f0_n" transform="matrix(13 0 0 13 43.1 234.1)"/></g><text x="980" y="208" dx="0,0,0,0,-.1,-.1,0,0,.1,-.1,0,0,-.1,-.1,0,-.1,.2,.1,0,-.1,-.1" class="s1">Director in each leg.</text><g fill="#445C70" clip-path="url(#c0)"><use xlink:href="#f0_1a" transform="matrix(13 0 0 13 57.7 234.1)"/><use xlink:href="#f0_z" transform="matrix(13 0 0 13 67 234.1)"/><use xlink:href="#f0_3" transform="matrix(13 0 0 13 73.9 234.1)"/><use xlink:href="#f0_e" transform="matrix(13 0 0 13 83.7 234.1)"/><use xlink:href="#f0_1b" transform="matrix(13 0 0 13 95.3 234.1)"/><use xlink:href="#f0_6" transform="matrix(13 0 0 13 107.8 234.1)"/><use xlink:href="#f0_e" transform="matrix(13 0 0 13 112.7 234.1)"/><use xlink:href="#f0_d" transform="matrix(13 0 0 13 119.7 234.1)"/><use xlink:href="#f0_1c" transform="matrix(13 0 0 13 129.6 234.1)"/><use xlink:href="#f0_z" transform="matrix(13 0 0 13 137.9 234.1)"/><use xlink:href="#f0_h" transform="matrix(13 0 0 13 144.7 234.1)"/><use xlink:href="#f0_e" transform="matrix(13 0 0 13 155.4 234.1)"/><use xlink:href="#f0_i" transform="matrix(13 0 0 13 209 234.1)"/><use xlink:href="#f0_x" transform="matrix(13 0 0 13 219.1 234.1)"/><use xlink:href="#f0_1d" transform="matrix(13 0 0 13 229 234.1)"/><use xlink:href="#f0_p" transform="matrix(13 0 0 13 263.4 234.1)"/><use xlink:href="#f0_1d" transform="matrix(13 0 0 13 273.5 234.1)"/><use xlink:href="#f0_p" transform="matrix(13 0 0 13 308 234.1)"/><use xlink:href="#f0_1d" transform="matrix(13 0 0 13 317.9 234.1)"/><use xlink:href="#f0_p" transform="matrix(13 0 0 13 352.5 234.1)"/><use xlink:href="#f0_1d" transform="matrix(13 0 0 13 362.5 234.1)"/><use xlink:href="#f0_p" transform="matrix(13 0 0 13 397.1 234.1)"/><use xlink:href="#f0_1d" transform="matrix(13 0 0 13 407.1 234.1)"/><use xlink:href="#f0_p" transform="matrix(13 0 0 13 441.7 234.1)"/><use xlink:href="#f0_1d" transform="matrix(13 0 0 13 451.6 234.1)"/><use xlink:href="#f0_p" transform="matrix(13 0 0 13 486.1 234.1)"/><use xlink:href="#f0_1d" transform="matrix(13 0 0 13 496.2 234.1)"/><use xlink:href="#f0_i" transform="matrix(13 0 0 13 530.8 234.1)"/><use xlink:href="#f0_1d" transform="matrix(13 0 0 13 540.8 234.1)"/><use xlink:href="#f0_i" transform="matrix(13 0 0 13 575.4 234.1)"/><use xlink:href="#f0_1d" transform="matrix(13 0 0 13 585.3 234.1)"/><use xlink:href="#f0_i" transform="matrix(13 0 0 13 619.8 234.1)"/><use xlink:href="#f0_1d" transform="matrix(13 0 0 13 629.9 234.1)"/><use xlink:href="#f0_i" transform="matrix(13 0 0 13 664.4 234.1)"/><use xlink:href="#f0_1d" transform="matrix(13 0 0 13 674.4 234.1)"/><use xlink:href="#f0_n" transform="matrix(13 0 0 13 756.7 234.1)"/><use xlink:href="#f0_n" transform="matrix(13 0 0 13 766.8 234.1)"/><use xlink:href="#f0_1d" transform="matrix(13 0 0 13 776.8 234.1)"/><use xlink:href="#f0_j" transform="matrix(13 0 0 13 815.5 234.1)"/><use xlink:href="#f0_x" transform="matrix(13 0 0 13 825.6 234.1)"/><use xlink:href="#f0_1e" transform="matrix(13 0 0 13 835.5 234.1)"/><use xlink:href="#f0_x" transform="matrix(13 0 0 13 840.7 234.1)"/><use xlink:href="#f0_x" transform="matrix(13 0 0 13 850.8 234.1)"/><use xlink:href="#f0_x" transform="matrix(13 0 0 13 860.9 234.1)"/><use xlink:href="#f0_1e" transform="matrix(13 0 0 13 870.8 234.1)"/><use xlink:href="#f0_x" transform="matrix(13 0 0 13 876 234.1)"/><use xlink:href="#f0_x" transform="matrix(13 0 0 13 886 234.1)"/><use xlink:href="#f0_x" transform="matrix(13 0 0 13 896.1 234.1)"/><use xlink:href="#f0_15" transform="matrix(13 0 0 13 910.7 234.1)"/><use xlink:href="#f0_16" transform="matrix(13 0 0 13 921.3 234.1)"/><use xlink:href="#f0_11" transform="matrix(13 0 0 13 970.4 234.1)"/><use xlink:href="#f0_6" transform="matrix(13 0 0 13 987.8 234.1)"/><use xlink:href="#f0_4" transform="matrix(13 0 0 13 992.7 234.1)"/><use xlink:href="#f0_1f" transform="matrix(13 0 0 13 1003.3 234.1)"/><use xlink:href="#f0_l" transform="matrix(13 0 0 13 1013.1 234.1)"/><use xlink:href="#f0_10" transform="matrix(13 0 0 13 1027.6 234.1)"/><use xlink:href="#f0_d" transform="matrix(13 0 0 13 1032.5 234.1)"/><use xlink:href="#f0_a" transform="matrix(13 0 0 13 1042.4 234.1)"/><use xlink:href="#f0_1g" transform="matrix(13 0 0 13 1051.9 234.1)"/><use xlink:href="#f0_1e" transform="matrix(13 0 0 13 1059.7 234.1)"/><use xlink:href="#f0_17" transform="matrix(13 0 0 13 1069.4 234.1)"/><use xlink:href="#f0_4" transform="matrix(13 0 0 13 1082.7 234.1)"/><use xlink:href="#f0_d" transform="matrix(13 0 0 13 1093.4 234.1)"/><use xlink:href="#f0_j" transform="matrix(13 0 0 13 1107.9 234.1)"/><use xlink:href="#f0_1a" transform="matrix(13 0 0 13 1122.5 234.1)"/><use xlink:href="#f0_z" transform="matrix(13 0 0 13 1131.8 234.1)"/><use xlink:href="#f0_3" transform="matrix(13 0 0 13 1138.7 234.1)"/><use xlink:href="#f0_e" transform="matrix(13 0 0 13 1148.5 234.1)"/><use xlink:href="#f0_1b" transform="matrix(13 0 0 13 980.8 258.2)"/></g><text x="43" y="234" dx="0,0,.1,-.1,0,0,.1,-.1,0,0,0,-.1,-.1,0,0" class="s1">4 Star Director</text><text x="209" y="234" dx="0,0,-.1" class="s1">10%</text><text x="263" y="234" class="s1">5%</text><text x="308" y="234" dx="0,-.1" class="s1">5%</text><text x="352" y="234" class="s1">5%</text><text x="397" y="234" class="s1">5%</text><text x="441" y="234" dx="0,-.1" class="s1">5%</text><text x="486" y="234" class="s1">5%</text><text x="530" y="234" class="s1">1%</text><text x="575" y="234" dx="0,-.1" class="s1">1%</text><text x="619" y="234" class="s1">1%</text><text x="664" y="234" dx="0,-.1" class="s1">1%</text><text x="756" y="234" class="s1">44%</text><text x="815" y="234" dx="0,0,-.1,.1,0,0,-.1,.1,0,0,0,.1,0" class="s1">20,000,000 PV</text><text x="970" y="234" dx="0,0,0,-.1,0,.1,0,-.1,0,-.1,0,-.1,.1,.1,-.1,0,.1,-.1,0,.1,-.1,0,0" class="s1">Min. 3 legs, One 2 Star</text><g fill="#445C70" clip-path="url(#c0)"><use xlink:href="#f0_6" transform="matrix(13 0 0 13 993.3 258.2)"/><use xlink:href="#f0_e" transform="matrix(13 0 0 13 998.2 258.2)"/><use xlink:href="#f0_d" transform="matrix(13 0 0 13 1005.2 258.2)"/><use xlink:href="#f0_1c" transform="matrix(13 0 0 13 1015.2 258.2)"/><use xlink:href="#f0_z" transform="matrix(13 0 0 13 1023.4 258.2)"/><use xlink:href="#f0_h" transform="matrix(13 0 0 13 1030.3 258.2)"/><use xlink:href="#f0_e" transform="matrix(13 0 0 13 1041 258.2)"/><use xlink:href="#f0_6" transform="matrix(13 0 0 13 1052.6 258.2)"/><use xlink:href="#f0_4" transform="matrix(13 0 0 13 1057.4 258.2)"/><use xlink:href="#f0_d" transform="matrix(13 0 0 13 1072.5 258.2)"/><use xlink:href="#f0_3" transform="matrix(13 0 0 13 1082.4 258.2)"/><use xlink:href="#f0_1c" transform="matrix(13 0 0 13 1092.2 258.2)"/><use xlink:href="#f0_1h" transform="matrix(13 0 0 13 1100.5 258.2)"/><use xlink:href="#f0_10" transform="matrix(13 0 0 13 1115.8 258.2)"/><use xlink:href="#f0_d" transform="matrix(13 0 0 13 1120.7 258.2)"/><use xlink:href="#f0_a" transform="matrix(13 0 0 13 1130.6 258.2)"/><use xlink:href="#f0_1f" transform="matrix(13 0 0 13 1140 258.2)"/><use xlink:href="#f0_l" transform="matrix(13 0 0 13 43.1 287.5)"/></g><text x="980" y="258" dx="0,0,0,0,-.1,-.1,0,0,.1,-.1,0,0,-.1,-.1,0,-.1,.2,.1,0,-.1,-.1" class="s1">Director in each leg.</text><g fill="#445C70" clip-path="url(#c0)"><use xlink:href="#f0_1a" transform="matrix(13 0 0 13 57.7 287.5)"/><use xlink:href="#f0_z" transform="matrix(13 0 0 13 67 287.5)"/><use xlink:href="#f0_3" transform="matrix(13 0 0 13 73.9 287.5)"/><use xlink:href="#f0_e" transform="matrix(13 0 0 13 83.7 287.5)"/><use xlink:href="#f0_1b" transform="matrix(13 0 0 13 95.3 287.5)"/><use xlink:href="#f0_6" transform="matrix(13 0 0 13 107.8 287.5)"/><use xlink:href="#f0_e" transform="matrix(13 0 0 13 112.7 287.5)"/><use xlink:href="#f0_d" transform="matrix(13 0 0 13 119.7 287.5)"/><use xlink:href="#f0_1c" transform="matrix(13 0 0 13 129.6 287.5)"/><use xlink:href="#f0_z" transform="matrix(13 0 0 13 137.9 287.5)"/><use xlink:href="#f0_h" transform="matrix(13 0 0 13 144.7 287.5)"/><use xlink:href="#f0_e" transform="matrix(13 0 0 13 155.4 287.5)"/><use xlink:href="#f0_i" transform="matrix(13 0 0 13 209 287.5)"/><use xlink:href="#f0_x" transform="matrix(13 0 0 13 219.1 287.5)"/><use xlink:href="#f0_1d" transform="matrix(13 0 0 13 229 287.5)"/><use xlink:href="#f0_p" transform="matrix(13 0 0 13 263.4 287.5)"/><use xlink:href="#f0_1d" transform="matrix(13 0 0 13 273.5 287.5)"/><use xlink:href="#f0_p" transform="matrix(13 0 0 13 308 287.5)"/><use xlink:href="#f0_1d" transform="matrix(13 0 0 13 317.9 287.5)"/><use xlink:href="#f0_p" transform="matrix(13 0 0 13 352.5 287.5)"/><use xlink:href="#f0_1d" transform="matrix(13 0 0 13 362.5 287.5)"/><use xlink:href="#f0_p" transform="matrix(13 0 0 13 397.1 287.5)"/><use xlink:href="#f0_1d" transform="matrix(13 0 0 13 407.1 287.5)"/><use xlink:href="#f0_p" transform="matrix(13 0 0 13 441.7 287.5)"/><use xlink:href="#f0_1d" transform="matrix(13 0 0 13 451.6 287.5)"/><use xlink:href="#f0_p" transform="matrix(13 0 0 13 486.1 287.5)"/><use xlink:href="#f0_1d" transform="matrix(13 0 0 13 496.2 287.5)"/><use xlink:href="#f0_i" transform="matrix(13 0 0 13 530.8 287.5)"/><use xlink:href="#f0_1d" transform="matrix(13 0 0 13 540.8 287.5)"/><use xlink:href="#f0_i" transform="matrix(13 0 0 13 575.4 287.5)"/><use xlink:href="#f0_1d" transform="matrix(13 0 0 13 585.3 287.5)"/><use xlink:href="#f0_i" transform="matrix(13 0 0 13 619.8 287.5)"/><use xlink:href="#f0_1d" transform="matrix(13 0 0 13 629.9 287.5)"/><use xlink:href="#f0_n" transform="matrix(13 0 0 13 756.7 287.5)"/><use xlink:href="#f0_l" transform="matrix(13 0 0 13 766.8 287.5)"/><use xlink:href="#f0_1d" transform="matrix(13 0 0 13 776.8 287.5)"/><use xlink:href="#f0_v" transform="matrix(13 0 0 13 820.6 287.5)"/><use xlink:href="#f0_1e" transform="matrix(13 0 0 13 830.5 287.5)"/><use xlink:href="#f0_x" transform="matrix(13 0 0 13 835.7 287.5)"/><use xlink:href="#f0_x" transform="matrix(13 0 0 13 845.8 287.5)"/><use xlink:href="#f0_x" transform="matrix(13 0 0 13 855.8 287.5)"/><use xlink:href="#f0_1e" transform="matrix(13 0 0 13 865.8 287.5)"/><use xlink:href="#f0_x" transform="matrix(13 0 0 13 870.9 287.5)"/><use xlink:href="#f0_x" transform="matrix(13 0 0 13 881 287.5)"/><use xlink:href="#f0_x" transform="matrix(13 0 0 13 891.1 287.5)"/><use xlink:href="#f0_15" transform="matrix(13 0 0 13 905.7 287.5)"/><use xlink:href="#f0_16" transform="matrix(13 0 0 13 916.3 287.5)"/><use xlink:href="#f0_11" transform="matrix(13 0 0 13 970.4 287.5)"/><use xlink:href="#f0_6" transform="matrix(13 0 0 13 987.8 287.5)"/><use xlink:href="#f0_4" transform="matrix(13 0 0 13 992.7 287.5)"/><use xlink:href="#f0_1f" transform="matrix(13 0 0 13 1003.3 287.5)"/><use xlink:href="#f0_l" transform="matrix(13 0 0 13 1013.1 287.5)"/><use xlink:href="#f0_10" transform="matrix(13 0 0 13 1027.6 287.5)"/><use xlink:href="#f0_d" transform="matrix(13 0 0 13 1032.5 287.5)"/><use xlink:href="#f0_a" transform="matrix(13 0 0 13 1042.4 287.5)"/><use xlink:href="#f0_1g" transform="matrix(13 0 0 13 1051.9 287.5)"/><use xlink:href="#f0_1e" transform="matrix(13 0 0 13 1059.7 287.5)"/><use xlink:href="#f0_17" transform="matrix(13 0 0 13 1069.4 287.5)"/><use xlink:href="#f0_4" transform="matrix(13 0 0 13 1082.7 287.5)"/><use xlink:href="#f0_d" transform="matrix(13 0 0 13 1093.4 287.5)"/><use xlink:href="#f0_i" transform="matrix(13 0 0 13 1107.9 287.5)"/><use xlink:href="#f0_1a" transform="matrix(13 0 0 13 1122.5 287.5)"/><use xlink:href="#f0_z" transform="matrix(13 0 0 13 1131.8 287.5)"/><use xlink:href="#f0_3" transform="matrix(13 0 0 13 1138.7 287.5)"/><use xlink:href="#f0_e" transform="matrix(13 0 0 13 1148.5 287.5)"/><use xlink:href="#f0_1b" transform="matrix(13 0 0 13 980.8 311.8)"/></g><text x="43" y="287" dx="0,0,.1,-.1,0,0,.1,-.1,0,0,0,-.1,-.1,0,0" class="s1">3 Star Director</text><text x="209" y="287" dx="0,0,-.1" class="s1">10%</text><text x="263" y="287" class="s1">5%</text><text x="308" y="287" dx="0,-.1" class="s1">5%</text><text x="352" y="287" class="s1">5%</text><text x="397" y="287" class="s1">5%</text><text x="441" y="287" dx="0,-.1" class="s1">5%</text><text x="486" y="287" class="s1">5%</text><text x="530" y="287" class="s1">1%</text><text x="575" y="287" dx="0,-.1" class="s1">1%</text><text x="619" y="287" class="s1">1%</text><text x="756" y="287" class="s1">43%</text><text x="820" y="287" dx="0,-.1,.1,0,0,-.1,.1,0,0,0,.1,0" class="s1">9,000,000 PV</text><text x="970" y="287" dx="0,0,0,-.1,0,.1,0,-.1,0,-.1,0,-.1,.1,.1,-.1,0,.1,-.1,0,.1,-.1,0,0" class="s1">Min. 3 legs, One 1 Star</text><g fill="#445C70" clip-path="url(#c0)"><use xlink:href="#f0_6" transform="matrix(13 0 0 13 993.3 311.8)"/><use xlink:href="#f0_e" transform="matrix(13 0 0 13 998.2 311.8)"/><use xlink:href="#f0_d" transform="matrix(13 0 0 13 1005.2 311.8)"/><use xlink:href="#f0_1c" transform="matrix(13 0 0 13 1015.2 311.8)"/><use xlink:href="#f0_z" transform="matrix(13 0 0 13 1023.4 311.8)"/><use xlink:href="#f0_h" transform="matrix(13 0 0 13 1030.3 311.8)"/><use xlink:href="#f0_e" transform="matrix(13 0 0 13 1041 311.8)"/><use xlink:href="#f0_6" transform="matrix(13 0 0 13 1052.6 311.8)"/><use xlink:href="#f0_4" transform="matrix(13 0 0 13 1057.4 311.8)"/><use xlink:href="#f0_d" transform="matrix(13 0 0 13 1072.5 311.8)"/><use xlink:href="#f0_3" transform="matrix(13 0 0 13 1082.4 311.8)"/><use xlink:href="#f0_1c" transform="matrix(13 0 0 13 1092.2 311.8)"/><use xlink:href="#f0_1h" transform="matrix(13 0 0 13 1100.5 311.8)"/><use xlink:href="#f0_10" transform="matrix(13 0 0 13 1115.8 311.8)"/><use xlink:href="#f0_d" transform="matrix(13 0 0 13 1120.7 311.8)"/><use xlink:href="#f0_a" transform="matrix(13 0 0 13 1130.6 311.8)"/><use xlink:href="#f0_1f" transform="matrix(13 0 0 13 1140 311.8)"/><use xlink:href="#f0_j" transform="matrix(13 0 0 13 43.1 338.9)"/></g><text x="980" y="311" dx="0,0,0,0,-.1,-.1,0,0,.1,-.1,0,0,-.1,-.1,0,-.1,.2,.1,0,-.1,-.1" class="s1">Director in each leg.</text><g fill="#445C70" clip-path="url(#c0)"><use xlink:href="#f0_1a" transform="matrix(13 0 0 13 57.7 338.9)"/><use xlink:href="#f0_z" transform="matrix(13 0 0 13 67 338.9)"/><use xlink:href="#f0_3" transform="matrix(13 0 0 13 73.9 338.9)"/><use xlink:href="#f0_e" transform="matrix(13 0 0 13 83.7 338.9)"/><use xlink:href="#f0_1b" transform="matrix(13 0 0 13 95.3 338.9)"/><use xlink:href="#f0_6" transform="matrix(13 0 0 13 107.8 338.9)"/><use xlink:href="#f0_e" transform="matrix(13 0 0 13 112.7 338.9)"/><use xlink:href="#f0_d" transform="matrix(13 0 0 13 119.7 338.9)"/><use xlink:href="#f0_1c" transform="matrix(13 0 0 13 129.6 338.9)"/><use xlink:href="#f0_z" transform="matrix(13 0 0 13 137.9 338.9)"/><use xlink:href="#f0_h" transform="matrix(13 0 0 13 144.7 338.9)"/><use xlink:href="#f0_e" transform="matrix(13 0 0 13 155.4 338.9)"/><use xlink:href="#f0_i" transform="matrix(13 0 0 13 209 338.9)"/><use xlink:href="#f0_x" transform="matrix(13 0 0 13 219.1 338.9)"/><use xlink:href="#f0_1d" transform="matrix(13 0 0 13 229 338.9)"/><use xlink:href="#f0_p" transform="matrix(13 0 0 13 263.4 338.9)"/><use xlink:href="#f0_1d" transform="matrix(13 0 0 13 273.5 338.9)"/><use xlink:href="#f0_p" transform="matrix(13 0 0 13 308 338.9)"/><use xlink:href="#f0_1d" transform="matrix(13 0 0 13 317.9 338.9)"/><use xlink:href="#f0_p" transform="matrix(13 0 0 13 352.5 338.9)"/><use xlink:href="#f0_1d" transform="matrix(13 0 0 13 362.5 338.9)"/><use xlink:href="#f0_p" transform="matrix(13 0 0 13 397.1 338.9)"/><use xlink:href="#f0_1d" transform="matrix(13 0 0 13 407.1 338.9)"/><use xlink:href="#f0_p" transform="matrix(13 0 0 13 441.7 338.9)"/><use xlink:href="#f0_1d" transform="matrix(13 0 0 13 451.6 338.9)"/><use xlink:href="#f0_p" transform="matrix(13 0 0 13 486.1 338.9)"/><use xlink:href="#f0_1d" transform="matrix(13 0 0 13 496.2 338.9)"/><use xlink:href="#f0_i" transform="matrix(13 0 0 13 530.8 338.9)"/><use xlink:href="#f0_1d" transform="matrix(13 0 0 13 540.8 338.9)"/><use xlink:href="#f0_i" transform="matrix(13 0 0 13 575.4 338.9)"/><use xlink:href="#f0_1d" transform="matrix(13 0 0 13 585.3 338.9)"/><use xlink:href="#f0_n" transform="matrix(13 0 0 13 756.7 338.9)"/><use xlink:href="#f0_j" transform="matrix(13 0 0 13 766.8 338.9)"/><use xlink:href="#f0_1d" transform="matrix(13 0 0 13 776.8 338.9)"/><use xlink:href="#f0_l" transform="matrix(13 0 0 13 820.6 338.9)"/><use xlink:href="#f0_1e" transform="matrix(13 0 0 13 830.5 338.9)"/><use xlink:href="#f0_s" transform="matrix(13 0 0 13 835.7 338.9)"/><use xlink:href="#f0_p" transform="matrix(13 0 0 13 845.8 338.9)"/><use xlink:href="#f0_x" transform="matrix(13 0 0 13 855.8 338.9)"/><use xlink:href="#f0_1e" transform="matrix(13 0 0 13 865.8 338.9)"/><use xlink:href="#f0_x" transform="matrix(13 0 0 13 870.9 338.9)"/><use xlink:href="#f0_x" transform="matrix(13 0 0 13 881 338.9)"/><use xlink:href="#f0_x" transform="matrix(13 0 0 13 891.1 338.9)"/><use xlink:href="#f0_15" transform="matrix(13 0 0 13 905.7 338.9)"/><use xlink:href="#f0_16" transform="matrix(13 0 0 13 916.3 338.9)"/><use xlink:href="#f0_11" transform="matrix(13 0 0 13 989.2 338.9)"/><use xlink:href="#f0_6" transform="matrix(13 0 0 13 1006.6 338.9)"/><use xlink:href="#f0_4" transform="matrix(13 0 0 13 1011.5 338.9)"/><use xlink:href="#f0_1f" transform="matrix(13 0 0 13 1022 338.9)"/><use xlink:href="#f0_l" transform="matrix(13 0 0 13 1031.9 338.9)"/><use xlink:href="#f0_10" transform="matrix(13 0 0 13 1046.4 338.9)"/><use xlink:href="#f0_d" transform="matrix(13 0 0 13 1051.3 338.9)"/><use xlink:href="#f0_a" transform="matrix(13 0 0 13 1061.2 338.9)"/><use xlink:href="#f0_1g" transform="matrix(13 0 0 13 1070.7 338.9)"/><use xlink:href="#f0_1e" transform="matrix(13 0 0 13 1078.5 338.9)"/><use xlink:href="#f0_17" transform="matrix(13 0 0 13 1088.2 338.9)"/><use xlink:href="#f0_4" transform="matrix(13 0 0 13 1101.5 338.9)"/><use xlink:href="#f0_d" transform="matrix(13 0 0 13 1112.2 338.9)"/><use xlink:href="#f0_s" transform="matrix(13 0 0 13 1126.7 338.9)"/><use xlink:href="#f0_1b" transform="matrix(13 0 0 13 976.9 363.2)"/></g><text x="43" y="338" dx="0,0,.1,-.1,0,0,.1,-.1,0,0,0,-.1,-.1,0,0" class="s1">2 Star Director</text><text x="209" y="338" dx="0,0,-.1" class="s1">10%</text><text x="263" y="338" class="s1">5%</text><text x="308" y="338" dx="0,-.1" class="s1">5%</text><text x="352" y="338" class="s1">5%</text><text x="397" y="338" class="s1">5%</text><text x="441" y="338" dx="0,-.1" class="s1">5%</text><text x="486" y="338" class="s1">5%</text><text x="530" y="338" class="s1">1%</text><text x="575" y="338" dx="0,-.1" class="s1">1%</text><text x="756" y="338" class="s1">42%</text><text x="820" y="338" dx="0,-.1,.1,0,0,-.1,.1,0,0,0,.1,0" class="s1">3,750,000 PV</text><text x="989" y="338" dx="0,0,0,-.1,0,.1,0,-.1,0,-.1,0,-.1,.1,.1,-.1,0,.1,-.1" class="s1">Min. 3 legs, One 7</text><g fill="#445C70" clip-path="url(#c0)"><use xlink:href="#f0_6" transform="matrix(13 0 0 13 989.4 363.2)"/><use xlink:href="#f0_3" transform="matrix(13 0 0 13 994.2 363.2)"/><use xlink:href="#f0_12" transform="matrix(13 0 0 13 1004 363.2)"/><use xlink:href="#f0_h" transform="matrix(13 0 0 13 1020.1 363.2)"/><use xlink:href="#f0_4" transform="matrix(13 0 0 13 1030.7 363.2)"/><use xlink:href="#f0_1i" transform="matrix(13 0 0 13 1041.4 363.2)"/><use xlink:href="#f0_6" transform="matrix(13 0 0 13 1056.5 363.2)"/><use xlink:href="#f0_4" transform="matrix(13 0 0 13 1061.4 363.2)"/><use xlink:href="#f0_d" transform="matrix(13 0 0 13 1076.4 363.2)"/><use xlink:href="#f0_3" transform="matrix(13 0 0 13 1086.4 363.2)"/><use xlink:href="#f0_1c" transform="matrix(13 0 0 13 1096.1 363.2)"/><use xlink:href="#f0_1h" transform="matrix(13 0 0 13 1104.4 363.2)"/><use xlink:href="#f0_10" transform="matrix(13 0 0 13 1119.8 363.2)"/><use xlink:href="#f0_d" transform="matrix(13 0 0 13 1124.6 363.2)"/><use xlink:href="#f0_a" transform="matrix(13 0 0 13 1134.6 363.2)"/><use xlink:href="#f0_1f" transform="matrix(13 0 0 13 1143.9 363.2)"/><use xlink:href="#f0_i" transform="matrix(13 0 0 13 43.1 390.2)"/></g><text x="976" y="363" dx="0,0,0,0,-.1,0,0,0,-.1,0,0,-.1,-.1,0,-.1,.2,.1,0,-.1,-.1" class="s1">Diamond in each leg.</text><g fill="#445C70" clip-path="url(#c0)"><use xlink:href="#f0_1a" transform="matrix(13 0 0 13 57.7 390.2)"/><use xlink:href="#f0_z" transform="matrix(13 0 0 13 67 390.2)"/><use xlink:href="#f0_3" transform="matrix(13 0 0 13 73.9 390.2)"/><use xlink:href="#f0_e" transform="matrix(13 0 0 13 83.7 390.2)"/><use xlink:href="#f0_1b" transform="matrix(13 0 0 13 95.3 390.2)"/><use xlink:href="#f0_6" transform="matrix(13 0 0 13 107.8 390.2)"/><use xlink:href="#f0_e" transform="matrix(13 0 0 13 112.7 390.2)"/><use xlink:href="#f0_d" transform="matrix(13 0 0 13 119.7 390.2)"/><use xlink:href="#f0_1c" transform="matrix(13 0 0 13 129.6 390.2)"/><use xlink:href="#f0_z" transform="matrix(13 0 0 13 137.9 390.2)"/><use xlink:href="#f0_h" transform="matrix(13 0 0 13 144.7 390.2)"/><use xlink:href="#f0_e" transform="matrix(13 0 0 13 155.4 390.2)"/><use xlink:href="#f0_i" transform="matrix(13 0 0 13 209 390.2)"/><use xlink:href="#f0_x" transform="matrix(13 0 0 13 219.1 390.2)"/><use xlink:href="#f0_1d" transform="matrix(13 0 0 13 229 390.2)"/><use xlink:href="#f0_p" transform="matrix(13 0 0 13 263.4 390.2)"/><use xlink:href="#f0_1d" transform="matrix(13 0 0 13 273.5 390.2)"/><use xlink:href="#f0_p" transform="matrix(13 0 0 13 308 390.2)"/><use xlink:href="#f0_1d" transform="matrix(13 0 0 13 317.9 390.2)"/><use xlink:href="#f0_p" transform="matrix(13 0 0 13 352.5 390.2)"/><use xlink:href="#f0_1d" transform="matrix(13 0 0 13 362.5 390.2)"/><use xlink:href="#f0_p" transform="matrix(13 0 0 13 397.1 390.2)"/><use xlink:href="#f0_1d" transform="matrix(13 0 0 13 407.1 390.2)"/><use xlink:href="#f0_p" transform="matrix(13 0 0 13 441.7 390.2)"/><use xlink:href="#f0_1d" transform="matrix(13 0 0 13 451.6 390.2)"/><use xlink:href="#f0_p" transform="matrix(13 0 0 13 486.1 390.2)"/><use xlink:href="#f0_1d" transform="matrix(13 0 0 13 496.2 390.2)"/><use xlink:href="#f0_i" transform="matrix(13 0 0 13 530.8 390.2)"/><use xlink:href="#f0_1d" transform="matrix(13 0 0 13 540.8 390.2)"/><use xlink:href="#f0_n" transform="matrix(13 0 0 13 756.7 390.2)"/><use xlink:href="#f0_i" transform="matrix(13 0 0 13 766.8 390.2)"/><use xlink:href="#f0_1d" transform="matrix(13 0 0 13 776.8 390.2)"/><use xlink:href="#f0_i" transform="matrix(13 0 0 13 820.6 390.2)"/><use xlink:href="#f0_1e" transform="matrix(13 0 0 13 830.5 390.2)"/><use xlink:href="#f0_p" transform="matrix(13 0 0 13 835.7 390.2)"/><use xlink:href="#f0_x" transform="matrix(13 0 0 13 845.8 390.2)"/><use xlink:href="#f0_x" transform="matrix(13 0 0 13 855.8 390.2)"/><use xlink:href="#f0_1e" transform="matrix(13 0 0 13 865.8 390.2)"/><use xlink:href="#f0_x" transform="matrix(13 0 0 13 870.9 390.2)"/><use xlink:href="#f0_x" transform="matrix(13 0 0 13 881 390.2)"/><use xlink:href="#f0_x" transform="matrix(13 0 0 13 891.1 390.2)"/><use xlink:href="#f0_15" transform="matrix(13 0 0 13 905.7 390.2)"/><use xlink:href="#f0_16" transform="matrix(13 0 0 13 916.3 390.2)"/><use xlink:href="#f0_11" transform="matrix(13 0 0 13 989.2 390.2)"/><use xlink:href="#f0_6" transform="matrix(13 0 0 13 1006.6 390.2)"/><use xlink:href="#f0_4" transform="matrix(13 0 0 13 1011.5 390.2)"/><use xlink:href="#f0_1f" transform="matrix(13 0 0 13 1022 390.2)"/><use xlink:href="#f0_l" transform="matrix(13 0 0 13 1031.9 390.2)"/><use xlink:href="#f0_10" transform="matrix(13 0 0 13 1046.4 390.2)"/><use xlink:href="#f0_d" transform="matrix(13 0 0 13 1051.3 390.2)"/><use xlink:href="#f0_a" transform="matrix(13 0 0 13 1061.2 390.2)"/><use xlink:href="#f0_1g" transform="matrix(13 0 0 13 1070.7 390.2)"/><use xlink:href="#f0_1e" transform="matrix(13 0 0 13 1078.5 390.2)"/><use xlink:href="#f0_17" transform="matrix(13 0 0 13 1088.2 390.2)"/><use xlink:href="#f0_4" transform="matrix(13 0 0 13 1101.5 390.2)"/><use xlink:href="#f0_d" transform="matrix(13 0 0 13 1112.2 390.2)"/><use xlink:href="#f0_r" transform="matrix(13 0 0 13 1126.7 390.2)"/><use xlink:href="#f0_1b" transform="matrix(13 0 0 13 976.9 414.5)"/></g><text x="43" y="390" dx="0,0,.1,-.1,0,0,.1,-.1,0,0,0,-.1,-.1,0,0" class="s1">1 Star Director</text><text x="209" y="390" dx="0,0,-.1" class="s1">10%</text><text x="263" y="390" class="s1">5%</text><text x="308" y="390" dx="0,-.1" class="s1">5%</text><text x="352" y="390" class="s1">5%</text><text x="397" y="390" class="s1">5%</text><text x="441" y="390" dx="0,-.1" class="s1">5%</text><text x="486" y="390" class="s1">5%</text><text x="530" y="390" class="s1">1%</text><text x="756" y="390" class="s1">41%</text><text x="820" y="390" dx="0,-.1,.1,0,0,-.1,.1,0,0,0,.1,0" class="s1">1,500,000 PV</text><text x="989" y="390" dx="0,0,0,-.1,0,.1,0,-.1,0,-.1,0,-.1,.1,.1,-.1,0,.1,-.1" class="s1">Min. 3 legs, One 6</text><g fill="#445C70" clip-path="url(#c0)"><use xlink:href="#f0_6" transform="matrix(13 0 0 13 989.4 414.5)"/><use xlink:href="#f0_3" transform="matrix(13 0 0 13 994.2 414.5)"/><use xlink:href="#f0_12" transform="matrix(13 0 0 13 1004 414.5)"/><use xlink:href="#f0_h" transform="matrix(13 0 0 13 1020.1 414.5)"/><use xlink:href="#f0_4" transform="matrix(13 0 0 13 1030.7 414.5)"/><use xlink:href="#f0_1i" transform="matrix(13 0 0 13 1041.4 414.5)"/><use xlink:href="#f0_6" transform="matrix(13 0 0 13 1056.5 414.5)"/><use xlink:href="#f0_4" transform="matrix(13 0 0 13 1061.4 414.5)"/><use xlink:href="#f0_d" transform="matrix(13 0 0 13 1076.4 414.5)"/><use xlink:href="#f0_3" transform="matrix(13 0 0 13 1086.4 414.5)"/><use xlink:href="#f0_1c" transform="matrix(13 0 0 13 1096.1 414.5)"/><use xlink:href="#f0_1h" transform="matrix(13 0 0 13 1104.4 414.5)"/><use xlink:href="#f0_10" transform="matrix(13 0 0 13 1119.8 414.5)"/><use xlink:href="#f0_d" transform="matrix(13 0 0 13 1124.6 414.5)"/><use xlink:href="#f0_a" transform="matrix(13 0 0 13 1134.6 414.5)"/><use xlink:href="#f0_1f" transform="matrix(13 0 0 13 1143.9 414.5)"/><use xlink:href="#f0_s" transform="matrix(13 0 0 13 57.9 441.5)"/></g><text x="976" y="414" dx="0,0,0,0,-.1,0,0,0,-.1,0,0,-.1,-.1,0,-.1,.2,.1,0,-.1,-.1" class="s1">Diamond in each leg.</text><g fill="#445C70" clip-path="url(#c0)"><use xlink:href="#f0_1b" transform="matrix(13 0 0 13 72.5 441.5)"/><use xlink:href="#f0_6" transform="matrix(13 0 0 13 84.9 441.5)"/><use xlink:href="#f0_3" transform="matrix(13 0 0 13 89.8 441.5)"/><use xlink:href="#f0_12" transform="matrix(13 0 0 13 99.6 441.5)"/><use xlink:href="#f0_h" transform="matrix(13 0 0 13 115.7 441.5)"/><use xlink:href="#f0_4" transform="matrix(13 0 0 13 126.4 441.5)"/><use xlink:href="#f0_1i" transform="matrix(13 0 0 13 137 441.5)"/><use xlink:href="#f0_i" transform="matrix(13 0 0 13 209 441.5)"/><use xlink:href="#f0_x" transform="matrix(13 0 0 13 219.1 441.5)"/><use xlink:href="#f0_1d" transform="matrix(13 0 0 13 229 441.5)"/><use xlink:href="#f0_p" transform="matrix(13 0 0 13 263.4 441.5)"/><use xlink:href="#f0_1d" transform="matrix(13 0 0 13 273.5 441.5)"/><use xlink:href="#f0_p" transform="matrix(13 0 0 13 308 441.5)"/><use xlink:href="#f0_1d" transform="matrix(13 0 0 13 317.9 441.5)"/><use xlink:href="#f0_p" transform="matrix(13 0 0 13 352.5 441.5)"/><use xlink:href="#f0_1d" transform="matrix(13 0 0 13 362.5 441.5)"/><use xlink:href="#f0_p" transform="matrix(13 0 0 13 397.1 441.5)"/><use xlink:href="#f0_1d" transform="matrix(13 0 0 13 407.1 441.5)"/><use xlink:href="#f0_p" transform="matrix(13 0 0 13 441.7 441.5)"/><use xlink:href="#f0_1d" transform="matrix(13 0 0 13 451.6 441.5)"/><use xlink:href="#f0_p" transform="matrix(13 0 0 13 486.1 441.5)"/><use xlink:href="#f0_1d" transform="matrix(13 0 0 13 496.2 441.5)"/><use xlink:href="#f0_n" transform="matrix(13 0 0 13 756.7 441.5)"/><use xlink:href="#f0_x" transform="matrix(13 0 0 13 766.8 441.5)"/><use xlink:href="#f0_1d" transform="matrix(13 0 0 13 776.8 441.5)"/><use xlink:href="#f0_n" transform="matrix(13 0 0 13 828.1 441.5)"/><use xlink:href="#f0_p" transform="matrix(13 0 0 13 838.1 441.5)"/><use xlink:href="#f0_x" transform="matrix(13 0 0 13 848.2 441.5)"/><use xlink:href="#f0_1e" transform="matrix(13 0 0 13 858.3 441.5)"/><use xlink:href="#f0_x" transform="matrix(13 0 0 13 863.3 441.5)"/><use xlink:href="#f0_x" transform="matrix(13 0 0 13 873.4 441.5)"/><use xlink:href="#f0_x" transform="matrix(13 0 0 13 883.4 441.5)"/><use xlink:href="#f0_15" transform="matrix(13 0 0 13 898.1 441.5)"/><use xlink:href="#f0_16" transform="matrix(13 0 0 13 908.6 441.5)"/><use xlink:href="#f0_11" transform="matrix(13 0 0 13 989.2 441.5)"/><use xlink:href="#f0_6" transform="matrix(13 0 0 13 1006.6 441.5)"/><use xlink:href="#f0_4" transform="matrix(13 0 0 13 1011.5 441.5)"/><use xlink:href="#f0_1f" transform="matrix(13 0 0 13 1022 441.5)"/><use xlink:href="#f0_l" transform="matrix(13 0 0 13 1031.9 441.5)"/><use xlink:href="#f0_10" transform="matrix(13 0 0 13 1046.4 441.5)"/><use xlink:href="#f0_d" transform="matrix(13 0 0 13 1051.3 441.5)"/><use xlink:href="#f0_a" transform="matrix(13 0 0 13 1061.2 441.5)"/><use xlink:href="#f0_1g" transform="matrix(13 0 0 13 1070.7 441.5)"/><use xlink:href="#f0_1e" transform="matrix(13 0 0 13 1078.5 441.5)"/><use xlink:href="#f0_17" transform="matrix(13 0 0 13 1088.2 441.5)"/><use xlink:href="#f0_4" transform="matrix(13 0 0 13 1101.5 441.5)"/><use xlink:href="#f0_d" transform="matrix(13 0 0 13 1112.2 441.5)"/><use xlink:href="#f0_p" transform="matrix(13 0 0 13 1126.7 441.5)"/><use xlink:href="#f0_1b" transform="matrix(13 0 0 13 976.9 465.8)"/></g><text x="57" y="441" dx="0,0,.1,-.1,0,0,0,0,0" class="s1">7 Diamond</text><text x="209" y="441" dx="0,0,-.1" class="s1">10%</text><text x="263" y="441" class="s1">5%</text><text x="308" y="441" dx="0,-.1" class="s1">5%</text><text x="352" y="441" class="s1">5%</text><text x="397" y="441" class="s1">5%</text><text x="441" y="441" dx="0,-.1" class="s1">5%</text><text x="486" y="441" class="s1">5%</text><text x="756" y="441" class="s1">40%</text><text x="828" y="441" dx="0,0,0,0,-.1,0,0,0,.1,0" class="s1">450,000 PV</text><text x="989" y="441" dx="0,0,0,-.1,0,.1,0,-.1,0,-.1,0,-.1,.1,.1,-.1,0,.1,-.1" class="s1">Min. 3 legs, One 5</text><g fill="#445C70" clip-path="url(#c0)"><use xlink:href="#f0_6" transform="matrix(13 0 0 13 989.4 465.8)"/><use xlink:href="#f0_3" transform="matrix(13 0 0 13 994.2 465.8)"/><use xlink:href="#f0_12" transform="matrix(13 0 0 13 1004 465.8)"/><use xlink:href="#f0_h" transform="matrix(13 0 0 13 1020.1 465.8)"/><use xlink:href="#f0_4" transform="matrix(13 0 0 13 1030.7 465.8)"/><use xlink:href="#f0_1i" transform="matrix(13 0 0 13 1041.4 465.8)"/><use xlink:href="#f0_6" transform="matrix(13 0 0 13 1056.5 465.8)"/><use xlink:href="#f0_4" transform="matrix(13 0 0 13 1061.4 465.8)"/><use xlink:href="#f0_d" transform="matrix(13 0 0 13 1076.4 465.8)"/><use xlink:href="#f0_3" transform="matrix(13 0 0 13 1086.4 465.8)"/><use xlink:href="#f0_1c" transform="matrix(13 0 0 13 1096.1 465.8)"/><use xlink:href="#f0_1h" transform="matrix(13 0 0 13 1104.4 465.8)"/><use xlink:href="#f0_10" transform="matrix(13 0 0 13 1119.8 465.8)"/><use xlink:href="#f0_d" transform="matrix(13 0 0 13 1124.6 465.8)"/><use xlink:href="#f0_a" transform="matrix(13 0 0 13 1134.6 465.8)"/><use xlink:href="#f0_1f" transform="matrix(13 0 0 13 1143.9 465.8)"/><use xlink:href="#f0_r" transform="matrix(13 0 0 13 57.9 492.9)"/></g><text x="976" y="465" dx="0,0,0,0,-.1,0,0,0,-.1,0,0,-.1,-.1,0,-.1,.2,.1,0,-.1,-.1" class="s1">Diamond in each leg.</text><g fill="#445C70" clip-path="url(#c0)"><use xlink:href="#f0_1b" transform="matrix(13 0 0 13 72.5 492.9)"/><use xlink:href="#f0_6" transform="matrix(13 0 0 13 84.9 492.9)"/><use xlink:href="#f0_3" transform="matrix(13 0 0 13 89.8 492.9)"/><use xlink:href="#f0_12" transform="matrix(13 0 0 13 99.6 492.9)"/><use xlink:href="#f0_h" transform="matrix(13 0 0 13 115.7 492.9)"/><use xlink:href="#f0_4" transform="matrix(13 0 0 13 126.4 492.9)"/><use xlink:href="#f0_1i" transform="matrix(13 0 0 13 137 492.9)"/><use xlink:href="#f0_i" transform="matrix(13 0 0 13 209 492.9)"/><use xlink:href="#f0_x" transform="matrix(13 0 0 13 219.1 492.9)"/><use xlink:href="#f0_1d" transform="matrix(13 0 0 13 229 492.9)"/><use xlink:href="#f0_p" transform="matrix(13 0 0 13 263.4 492.9)"/><use xlink:href="#f0_1d" transform="matrix(13 0 0 13 273.5 492.9)"/><use xlink:href="#f0_p" transform="matrix(13 0 0 13 308 492.9)"/><use xlink:href="#f0_1d" transform="matrix(13 0 0 13 317.9 492.9)"/><use xlink:href="#f0_p" transform="matrix(13 0 0 13 352.5 492.9)"/><use xlink:href="#f0_1d" transform="matrix(13 0 0 13 362.5 492.9)"/><use xlink:href="#f0_p" transform="matrix(13 0 0 13 397.1 492.9)"/><use xlink:href="#f0_1d" transform="matrix(13 0 0 13 407.1 492.9)"/><use xlink:href="#f0_p" transform="matrix(13 0 0 13 441.7 492.9)"/><use xlink:href="#f0_1d" transform="matrix(13 0 0 13 451.6 492.9)"/><use xlink:href="#f0_l" transform="matrix(13 0 0 13 756.7 492.9)"/><use xlink:href="#f0_p" transform="matrix(13 0 0 13 766.8 492.9)"/><use xlink:href="#f0_1d" transform="matrix(13 0 0 13 776.8 492.9)"/><use xlink:href="#f0_j" transform="matrix(13 0 0 13 828.1 492.9)"/><use xlink:href="#f0_j" transform="matrix(13 0 0 13 838.1 492.9)"/><use xlink:href="#f0_p" transform="matrix(13 0 0 13 848.2 492.9)"/><use xlink:href="#f0_1e" transform="matrix(13 0 0 13 858.3 492.9)"/><use xlink:href="#f0_x" transform="matrix(13 0 0 13 863.3 492.9)"/><use xlink:href="#f0_x" transform="matrix(13 0 0 13 873.4 492.9)"/><use xlink:href="#f0_x" transform="matrix(13 0 0 13 883.4 492.9)"/><use xlink:href="#f0_15" transform="matrix(13 0 0 13 898.1 492.9)"/><use xlink:href="#f0_16" transform="matrix(13 0 0 13 908.6 492.9)"/><use xlink:href="#f0_11" transform="matrix(13 0 0 13 989.2 492.9)"/><use xlink:href="#f0_6" transform="matrix(13 0 0 13 1006.6 492.9)"/><use xlink:href="#f0_4" transform="matrix(13 0 0 13 1011.5 492.9)"/><use xlink:href="#f0_1f" transform="matrix(13 0 0 13 1022 492.9)"/><use xlink:href="#f0_j" transform="matrix(13 0 0 13 1031.9 492.9)"/><use xlink:href="#f0_10" transform="matrix(13 0 0 13 1046.4 492.9)"/><use xlink:href="#f0_d" transform="matrix(13 0 0 13 1051.3 492.9)"/><use xlink:href="#f0_a" transform="matrix(13 0 0 13 1061.2 492.9)"/><use xlink:href="#f0_1g" transform="matrix(13 0 0 13 1070.7 492.9)"/><use xlink:href="#f0_1e" transform="matrix(13 0 0 13 1078.5 492.9)"/><use xlink:href="#f0_17" transform="matrix(13 0 0 13 1088.2 492.9)"/><use xlink:href="#f0_4" transform="matrix(13 0 0 13 1101.5 492.9)"/><use xlink:href="#f0_d" transform="matrix(13 0 0 13 1112.2 492.9)"/><use xlink:href="#f0_p" transform="matrix(13 0 0 13 1126.7 492.9)"/><use xlink:href="#f0_1b" transform="matrix(13 0 0 13 976.9 517.2)"/></g><text x="57" y="492" dx="0,0,.1,-.1,0,0,0,0,0" class="s1">6 Diamond</text><text x="209" y="492" dx="0,0,-.1" class="s1">10%</text><text x="263" y="492" class="s1">5%</text><text x="308" y="492" dx="0,-.1" class="s1">5%</text><text x="352" y="492" class="s1">5%</text><text x="397" y="492" class="s1">5%</text><text x="441" y="492" dx="0,-.1" class="s1">5%</text><text x="756" y="492" class="s1">35%</text><text x="828" y="492" dx="0,0,0,0,-.1,0,0,0,.1,0" class="s1">225,000 PV</text><text x="989" y="492" dx="0,0,0,-.1,0,.1,0,-.1,0,-.1,0,-.1,.1,.1,-.1,0,.1,-.1" class="s1">Min. 2 legs, One 5</text><g fill="#445C70" clip-path="url(#c0)"><use xlink:href="#f0_6" transform="matrix(13 0 0 13 989.4 517.2)"/><use xlink:href="#f0_3" transform="matrix(13 0 0 13 994.2 517.2)"/><use xlink:href="#f0_12" transform="matrix(13 0 0 13 1004 517.2)"/><use xlink:href="#f0_h" transform="matrix(13 0 0 13 1020.1 517.2)"/><use xlink:href="#f0_4" transform="matrix(13 0 0 13 1030.7 517.2)"/><use xlink:href="#f0_1i" transform="matrix(13 0 0 13 1041.4 517.2)"/><use xlink:href="#f0_6" transform="matrix(13 0 0 13 1056.5 517.2)"/><use xlink:href="#f0_4" transform="matrix(13 0 0 13 1061.4 517.2)"/><use xlink:href="#f0_d" transform="matrix(13 0 0 13 1076.4 517.2)"/><use xlink:href="#f0_3" transform="matrix(13 0 0 13 1086.4 517.2)"/><use xlink:href="#f0_1c" transform="matrix(13 0 0 13 1096.1 517.2)"/><use xlink:href="#f0_1h" transform="matrix(13 0 0 13 1104.4 517.2)"/><use xlink:href="#f0_10" transform="matrix(13 0 0 13 1119.8 517.2)"/><use xlink:href="#f0_d" transform="matrix(13 0 0 13 1124.6 517.2)"/><use xlink:href="#f0_a" transform="matrix(13 0 0 13 1134.6 517.2)"/><use xlink:href="#f0_1f" transform="matrix(13 0 0 13 1143.9 517.2)"/><use xlink:href="#f0_p" transform="matrix(13 0 0 13 57.9 546.5)"/></g><text x="976" y="517" dx="0,0,0,0,-.1,0,0,0,-.1,0,0,-.1,-.1,0,-.1,.2,.1,0,-.1,-.1" class="s1">Diamond in each leg.</text><g fill="#445C70" clip-path="url(#c0)"><use xlink:href="#f0_1b" transform="matrix(13 0 0 13 72.5 546.5)"/><use xlink:href="#f0_6" transform="matrix(13 0 0 13 84.9 546.5)"/><use xlink:href="#f0_3" transform="matrix(13 0 0 13 89.8 546.5)"/><use xlink:href="#f0_12" transform="matrix(13 0 0 13 99.6 546.5)"/><use xlink:href="#f0_h" transform="matrix(13 0 0 13 115.7 546.5)"/><use xlink:href="#f0_4" transform="matrix(13 0 0 13 126.4 546.5)"/><use xlink:href="#f0_1i" transform="matrix(13 0 0 13 137 546.5)"/><use xlink:href="#f0_i" transform="matrix(13 0 0 13 209 546.5)"/><use xlink:href="#f0_x" transform="matrix(13 0 0 13 219.1 546.5)"/><use xlink:href="#f0_1d" transform="matrix(13 0 0 13 229 546.5)"/><use xlink:href="#f0_p" transform="matrix(13 0 0 13 263.4 546.5)"/><use xlink:href="#f0_1d" transform="matrix(13 0 0 13 273.5 546.5)"/><use xlink:href="#f0_p" transform="matrix(13 0 0 13 308 546.5)"/><use xlink:href="#f0_1d" transform="matrix(13 0 0 13 317.9 546.5)"/><use xlink:href="#f0_p" transform="matrix(13 0 0 13 352.5 546.5)"/><use xlink:href="#f0_1d" transform="matrix(13 0 0 13 362.5 546.5)"/><use xlink:href="#f0_p" transform="matrix(13 0 0 13 397.1 546.5)"/><use xlink:href="#f0_1d" transform="matrix(13 0 0 13 407.1 546.5)"/><use xlink:href="#f0_l" transform="matrix(13 0 0 13 756.7 546.5)"/><use xlink:href="#f0_x" transform="matrix(13 0 0 13 766.8 546.5)"/><use xlink:href="#f0_1d" transform="matrix(13 0 0 13 776.8 546.5)"/><use xlink:href="#f0_s" transform="matrix(13 0 0 13 833.1 546.5)"/><use xlink:href="#f0_p" transform="matrix(13 0 0 13 843.2 546.5)"/><use xlink:href="#f0_1e" transform="matrix(13 0 0 13 853.2 546.5)"/><use xlink:href="#f0_x" transform="matrix(13 0 0 13 858.4 546.5)"/><use xlink:href="#f0_x" transform="matrix(13 0 0 13 868.4 546.5)"/><use xlink:href="#f0_x" transform="matrix(13 0 0 13 878.4 546.5)"/><use xlink:href="#f0_15" transform="matrix(13 0 0 13 893.1 546.5)"/><use xlink:href="#f0_16" transform="matrix(13 0 0 13 903.6 546.5)"/><use xlink:href="#f0_11" transform="matrix(13 0 0 13 989.2 546.5)"/><use xlink:href="#f0_6" transform="matrix(13 0 0 13 1006.6 546.5)"/><use xlink:href="#f0_4" transform="matrix(13 0 0 13 1011.5 546.5)"/><use xlink:href="#f0_1f" transform="matrix(13 0 0 13 1022 546.5)"/><use xlink:href="#f0_j" transform="matrix(13 0 0 13 1031.9 546.5)"/><use xlink:href="#f0_10" transform="matrix(13 0 0 13 1046.4 546.5)"/><use xlink:href="#f0_d" transform="matrix(13 0 0 13 1051.3 546.5)"/><use xlink:href="#f0_a" transform="matrix(13 0 0 13 1061.2 546.5)"/><use xlink:href="#f0_1g" transform="matrix(13 0 0 13 1070.7 546.5)"/><use xlink:href="#f0_1e" transform="matrix(13 0 0 13 1078.5 546.5)"/><use xlink:href="#f0_17" transform="matrix(13 0 0 13 1088.2 546.5)"/><use xlink:href="#f0_4" transform="matrix(13 0 0 13 1101.5 546.5)"/><use xlink:href="#f0_d" transform="matrix(13 0 0 13 1112.2 546.5)"/><use xlink:href="#f0_n" transform="matrix(13 0 0 13 1126.7 546.5)"/><use xlink:href="#f0_1b" transform="matrix(13 0 0 13 976.9 570.6)"/></g><text x="57" y="546" dx="0,0,.1,-.1,0,0,0,0,0" class="s1">5 Diamond</text><text x="209" y="546" dx="0,0,-.1" class="s1">10%</text><text x="263" y="546" class="s1">5%</text><text x="308" y="546" dx="0,-.1" class="s1">5%</text><text x="352" y="546" class="s1">5%</text><text x="397" y="546" class="s1">5%</text><text x="756" y="546" class="s1">30%</text><text x="833" y="546" dx="0,0,0,.1,-.1,0,0,.1,0" class="s1">75,000 PV</text><text x="989" y="546" dx="0,0,0,-.1,0,.1,0,-.1,0,-.1,0,-.1,.1,.1,-.1,0,.1,-.1" class="s1">Min. 2 legs, One 4</text><g fill="#445C70" clip-path="url(#c0)"><use xlink:href="#f0_6" transform="matrix(13 0 0 13 989.4 570.6)"/><use xlink:href="#f0_3" transform="matrix(13 0 0 13 994.2 570.6)"/><use xlink:href="#f0_12" transform="matrix(13 0 0 13 1004 570.6)"/><use xlink:href="#f0_h" transform="matrix(13 0 0 13 1020.1 570.6)"/><use xlink:href="#f0_4" transform="matrix(13 0 0 13 1030.7 570.6)"/><use xlink:href="#f0_1i" transform="matrix(13 0 0 13 1041.4 570.6)"/><use xlink:href="#f0_6" transform="matrix(13 0 0 13 1056.5 570.6)"/><use xlink:href="#f0_4" transform="matrix(13 0 0 13 1061.4 570.6)"/><use xlink:href="#f0_d" transform="matrix(13 0 0 13 1076.4 570.6)"/><use xlink:href="#f0_3" transform="matrix(13 0 0 13 1086.4 570.6)"/><use xlink:href="#f0_1c" transform="matrix(13 0 0 13 1096.1 570.6)"/><use xlink:href="#f0_1h" transform="matrix(13 0 0 13 1104.4 570.6)"/><use xlink:href="#f0_10" transform="matrix(13 0 0 13 1119.8 570.6)"/><use xlink:href="#f0_d" transform="matrix(13 0 0 13 1124.6 570.6)"/><use xlink:href="#f0_a" transform="matrix(13 0 0 13 1134.6 570.6)"/><use xlink:href="#f0_1f" transform="matrix(13 0 0 13 1143.9 570.6)"/><use xlink:href="#f0_n" transform="matrix(13 0 0 13 57.9 597.8)"/></g><text x="976" y="570" dx="0,0,0,0,-.1,0,0,0,-.1,0,0,-.1,-.1,0,-.1,.2,.1,0,-.1,-.1" class="s1">Diamond in each leg.</text><g fill="#445C70" clip-path="url(#c0)"><use xlink:href="#f0_1b" transform="matrix(13 0 0 13 72.5 597.8)"/><use xlink:href="#f0_6" transform="matrix(13 0 0 13 84.9 597.8)"/><use xlink:href="#f0_3" transform="matrix(13 0 0 13 89.8 597.8)"/><use xlink:href="#f0_12" transform="matrix(13 0 0 13 99.6 597.8)"/><use xlink:href="#f0_h" transform="matrix(13 0 0 13 115.7 597.8)"/><use xlink:href="#f0_4" transform="matrix(13 0 0 13 126.4 597.8)"/><use xlink:href="#f0_1i" transform="matrix(13 0 0 13 137 597.8)"/><use xlink:href="#f0_i" transform="matrix(13 0 0 13 209 597.8)"/><use xlink:href="#f0_x" transform="matrix(13 0 0 13 219.1 597.8)"/><use xlink:href="#f0_1d" transform="matrix(13 0 0 13 229 597.8)"/><use xlink:href="#f0_p" transform="matrix(13 0 0 13 263.4 597.8)"/><use xlink:href="#f0_1d" transform="matrix(13 0 0 13 273.5 597.8)"/><use xlink:href="#f0_p" transform="matrix(13 0 0 13 308 597.8)"/><use xlink:href="#f0_1d" transform="matrix(13 0 0 13 317.9 597.8)"/><use xlink:href="#f0_p" transform="matrix(13 0 0 13 352.5 597.8)"/><use xlink:href="#f0_1d" transform="matrix(13 0 0 13 362.5 597.8)"/><use xlink:href="#f0_j" transform="matrix(13 0 0 13 756.7 597.8)"/><use xlink:href="#f0_p" transform="matrix(13 0 0 13 766.8 597.8)"/><use xlink:href="#f0_1d" transform="matrix(13 0 0 13 776.8 597.8)"/><use xlink:href="#f0_i" transform="matrix(13 0 0 13 831 597.8)"/><use xlink:href="#f0_p" transform="matrix(13 0 0 13 841 597.8)"/><use xlink:href="#f0_1e" transform="matrix(13 0 0 13 851 597.8)"/><use xlink:href="#f0_x" transform="matrix(13 0 0 13 860.7 597.8)"/><use xlink:href="#f0_x" transform="matrix(13 0 0 13 870.6 597.8)"/><use xlink:href="#f0_x" transform="matrix(13 0 0 13 880.7 597.8)"/><use xlink:href="#f0_15" transform="matrix(13 0 0 13 895.3 597.8)"/><use xlink:href="#f0_16" transform="matrix(13 0 0 13 905.9 597.8)"/><use xlink:href="#f0_11" transform="matrix(13 0 0 13 989.2 597.8)"/><use xlink:href="#f0_6" transform="matrix(13 0 0 13 1006.6 597.8)"/><use xlink:href="#f0_4" transform="matrix(13 0 0 13 1011.5 597.8)"/><use xlink:href="#f0_1f" transform="matrix(13 0 0 13 1022 597.8)"/><use xlink:href="#f0_j" transform="matrix(13 0 0 13 1031.9 597.8)"/><use xlink:href="#f0_10" transform="matrix(13 0 0 13 1046.4 597.8)"/><use xlink:href="#f0_d" transform="matrix(13 0 0 13 1051.3 597.8)"/><use xlink:href="#f0_a" transform="matrix(13 0 0 13 1061.2 597.8)"/><use xlink:href="#f0_1g" transform="matrix(13 0 0 13 1070.7 597.8)"/><use xlink:href="#f0_1e" transform="matrix(13 0 0 13 1078.5 597.8)"/><use xlink:href="#f0_17" transform="matrix(13 0 0 13 1088.2 597.8)"/><use xlink:href="#f0_4" transform="matrix(13 0 0 13 1101.5 597.8)"/><use xlink:href="#f0_d" transform="matrix(13 0 0 13 1112.2 597.8)"/><use xlink:href="#f0_l" transform="matrix(13 0 0 13 1126.7 597.8)"/><use xlink:href="#f0_1b" transform="matrix(13 0 0 13 976.9 622)"/></g><text x="57" y="597" dx="0,0,.1,-.1,0,0,0,0,0" class="s1">4 Diamond</text><text x="209" y="597" dx="0,0,-.1" class="s1">10%</text><text x="263" y="597" class="s1">5%</text><text x="308" y="597" dx="0,-.1" class="s1">5%</text><text x="352" y="597" class="s1">5%</text><text x="756" y="597" class="s1">25%</text><text x="830" y="597" dx="0,0,-.1,.1,.1,-.1,0,0,.1,0" class="s1">15, 000 PV</text><text x="989" y="597" dx="0,0,0,-.1,0,.1,0,-.1,0,-.1,0,-.1,.1,.1,-.1,0,.1,-.1" class="s1">Min. 2 legs, One 3</text><g fill="#445C70" clip-path="url(#c0)"><use xlink:href="#f0_6" transform="matrix(13 0 0 13 989.4 622)"/><use xlink:href="#f0_3" transform="matrix(13 0 0 13 994.2 622)"/><use xlink:href="#f0_12" transform="matrix(13 0 0 13 1004 622)"/><use xlink:href="#f0_h" transform="matrix(13 0 0 13 1020.1 622)"/><use xlink:href="#f0_4" transform="matrix(13 0 0 13 1030.7 622)"/><use xlink:href="#f0_1i" transform="matrix(13 0 0 13 1041.4 622)"/><use xlink:href="#f0_6" transform="matrix(13 0 0 13 1056.5 622)"/><use xlink:href="#f0_4" transform="matrix(13 0 0 13 1061.4 622)"/><use xlink:href="#f0_d" transform="matrix(13 0 0 13 1076.4 622)"/><use xlink:href="#f0_3" transform="matrix(13 0 0 13 1086.4 622)"/><use xlink:href="#f0_1c" transform="matrix(13 0 0 13 1096.1 622)"/><use xlink:href="#f0_1h" transform="matrix(13 0 0 13 1104.4 622)"/><use xlink:href="#f0_10" transform="matrix(13 0 0 13 1119.8 622)"/><use xlink:href="#f0_d" transform="matrix(13 0 0 13 1124.6 622)"/><use xlink:href="#f0_a" transform="matrix(13 0 0 13 1134.6 622)"/><use xlink:href="#f0_1f" transform="matrix(13 0 0 13 1143.9 622)"/><use xlink:href="#f0_l" transform="matrix(13 0 0 13 57.9 649.2)"/></g><text x="976" y="621" dx="0,0,0,0,-.1,0,0,0,-.1,0,0,-.1,-.1,0,-.1,.2,.1,0,-.1,-.1" class="s1">Diamond in each leg.</text><g fill="#445C70" clip-path="url(#c0)"><use xlink:href="#f0_1b" transform="matrix(13 0 0 13 72.5 649.2)"/><use xlink:href="#f0_6" transform="matrix(13 0 0 13 84.9 649.2)"/><use xlink:href="#f0_3" transform="matrix(13 0 0 13 89.8 649.2)"/><use xlink:href="#f0_12" transform="matrix(13 0 0 13 99.6 649.2)"/><use xlink:href="#f0_h" transform="matrix(13 0 0 13 115.7 649.2)"/><use xlink:href="#f0_4" transform="matrix(13 0 0 13 126.4 649.2)"/><use xlink:href="#f0_1i" transform="matrix(13 0 0 13 137 649.2)"/><use xlink:href="#f0_i" transform="matrix(13 0 0 13 209 649.2)"/><use xlink:href="#f0_x" transform="matrix(13 0 0 13 219.1 649.2)"/><use xlink:href="#f0_1d" transform="matrix(13 0 0 13 229 649.2)"/><use xlink:href="#f0_p" transform="matrix(13 0 0 13 263.4 649.2)"/><use xlink:href="#f0_1d" transform="matrix(13 0 0 13 273.5 649.2)"/><use xlink:href="#f0_p" transform="matrix(13 0 0 13 308 649.2)"/><use xlink:href="#f0_1d" transform="matrix(13 0 0 13 317.9 649.2)"/><use xlink:href="#f0_j" transform="matrix(13 0 0 13 756.7 649.2)"/><use xlink:href="#f0_x" transform="matrix(13 0 0 13 766.8 649.2)"/><use xlink:href="#f0_1d" transform="matrix(13 0 0 13 776.8 649.2)"/><use xlink:href="#f0_l" transform="matrix(13 0 0 13 836 649.2)"/><use xlink:href="#f0_1e" transform="matrix(13 0 0 13 845.9 649.2)"/><use xlink:href="#f0_r" transform="matrix(13 0 0 13 855.7 649.2)"/><use xlink:href="#f0_x" transform="matrix(13 0 0 13 865.6 649.2)"/><use xlink:href="#f0_x" transform="matrix(13 0 0 13 875.7 649.2)"/><use xlink:href="#f0_15" transform="matrix(13 0 0 13 890.3 649.2)"/><use xlink:href="#f0_16" transform="matrix(13 0 0 13 900.9 649.2)"/><use xlink:href="#f0_11" transform="matrix(13 0 0 13 989.2 649.2)"/><use xlink:href="#f0_6" transform="matrix(13 0 0 13 1006.6 649.2)"/><use xlink:href="#f0_4" transform="matrix(13 0 0 13 1011.5 649.2)"/><use xlink:href="#f0_1f" transform="matrix(13 0 0 13 1022 649.2)"/><use xlink:href="#f0_j" transform="matrix(13 0 0 13 1031.9 649.2)"/><use xlink:href="#f0_10" transform="matrix(13 0 0 13 1046.4 649.2)"/><use xlink:href="#f0_d" transform="matrix(13 0 0 13 1051.3 649.2)"/><use xlink:href="#f0_a" transform="matrix(13 0 0 13 1061.2 649.2)"/><use xlink:href="#f0_1g" transform="matrix(13 0 0 13 1070.7 649.2)"/><use xlink:href="#f0_1e" transform="matrix(13 0 0 13 1078.5 649.2)"/><use xlink:href="#f0_17" transform="matrix(13 0 0 13 1088.2 649.2)"/><use xlink:href="#f0_4" transform="matrix(13 0 0 13 1101.5 649.2)"/><use xlink:href="#f0_d" transform="matrix(13 0 0 13 1112.2 649.2)"/><use xlink:href="#f0_j" transform="matrix(13 0 0 13 1126.7 649.2)"/><use xlink:href="#f0_1b" transform="matrix(13 0 0 13 976.9 673.3)"/></g><text x="57" y="649" dx="0,0,.1,-.1,0,0,0,0,0" class="s1">3 Diamond</text><text x="209" y="649" dx="0,0,-.1" class="s1">10%</text><text x="263" y="649" class="s1">5%</text><text x="308" y="649" dx="0,-.1" class="s1">5%</text><text x="756" y="649" class="s1">20%</text><text x="836" y="649" dx="0,-.1,.1,.1,-.1,0,0,.1,0" class="s1">3, 600 PV</text><text x="989" y="649" dx="0,0,0,-.1,0,.1,0,-.1,0,-.1,0,-.1,.1,.1,-.1,0,.1,-.1" class="s1">Min. 2 legs, One 2</text><g fill="#445C70" clip-path="url(#c0)"><use xlink:href="#f0_6" transform="matrix(13 0 0 13 989.4 673.3)"/><use xlink:href="#f0_3" transform="matrix(13 0 0 13 994.2 673.3)"/><use xlink:href="#f0_12" transform="matrix(13 0 0 13 1004 673.3)"/><use xlink:href="#f0_h" transform="matrix(13 0 0 13 1020.1 673.3)"/><use xlink:href="#f0_4" transform="matrix(13 0 0 13 1030.7 673.3)"/><use xlink:href="#f0_1i" transform="matrix(13 0 0 13 1041.4 673.3)"/><use xlink:href="#f0_6" transform="matrix(13 0 0 13 1056.5 673.3)"/><use xlink:href="#f0_4" transform="matrix(13 0 0 13 1061.4 673.3)"/><use xlink:href="#f0_d" transform="matrix(13 0 0 13 1076.4 673.3)"/><use xlink:href="#f0_3" transform="matrix(13 0 0 13 1086.4 673.3)"/><use xlink:href="#f0_1c" transform="matrix(13 0 0 13 1096.1 673.3)"/><use xlink:href="#f0_1h" transform="matrix(13 0 0 13 1104.4 673.3)"/><use xlink:href="#f0_10" transform="matrix(13 0 0 13 1119.8 673.3)"/><use xlink:href="#f0_d" transform="matrix(13 0 0 13 1124.6 673.3)"/><use xlink:href="#f0_a" transform="matrix(13 0 0 13 1134.6 673.3)"/><use xlink:href="#f0_1f" transform="matrix(13 0 0 13 1143.9 673.3)"/><use xlink:href="#f0_j" transform="matrix(13 0 0 13 57.9 700.5)"/></g><text x="976" y="673" dx="0,0,0,0,-.1,0,0,0,-.1,0,0,-.1,-.1,0,-.1,.2,.1,0,-.1,-.1" class="s1">Diamond in each leg.</text><g fill="#445C70" clip-path="url(#c0)"><use xlink:href="#f0_1b" transform="matrix(13 0 0 13 72.5 700.5)"/><use xlink:href="#f0_6" transform="matrix(13 0 0 13 84.9 700.5)"/><use xlink:href="#f0_3" transform="matrix(13 0 0 13 89.8 700.5)"/><use xlink:href="#f0_12" transform="matrix(13 0 0 13 99.6 700.5)"/><use xlink:href="#f0_h" transform="matrix(13 0 0 13 115.7 700.5)"/><use xlink:href="#f0_4" transform="matrix(13 0 0 13 126.4 700.5)"/><use xlink:href="#f0_1i" transform="matrix(13 0 0 13 137 700.5)"/><use xlink:href="#f0_i" transform="matrix(13 0 0 13 209 700.5)"/><use xlink:href="#f0_x" transform="matrix(13 0 0 13 219.1 700.5)"/><use xlink:href="#f0_1d" transform="matrix(13 0 0 13 229 700.5)"/><use xlink:href="#f0_p" transform="matrix(13 0 0 13 263.4 700.5)"/><use xlink:href="#f0_1d" transform="matrix(13 0 0 13 273.5 700.5)"/><use xlink:href="#f0_i" transform="matrix(13 0 0 13 756.7 700.5)"/><use xlink:href="#f0_p" transform="matrix(13 0 0 13 766.8 700.5)"/><use xlink:href="#f0_1d" transform="matrix(13 0 0 13 776.8 700.5)"/><use xlink:href="#f0_i" transform="matrix(13 0 0 13 838.1 700.5)"/><use xlink:href="#f0_1e" transform="matrix(13 0 0 13 848.2 700.5)"/><use xlink:href="#f0_r" transform="matrix(13 0 0 13 853.4 700.5)"/><use xlink:href="#f0_u" transform="matrix(13 0 0 13 863.5 700.5)"/><use xlink:href="#f0_x" transform="matrix(13 0 0 13 873.4 700.5)"/><use xlink:href="#f0_15" transform="matrix(13 0 0 13 888 700.5)"/><use xlink:href="#f0_16" transform="matrix(13 0 0 13 898.6 700.5)"/><use xlink:href="#f0_1j" transform="matrix(13 0 0 13 1046.4 700.5)"/><use xlink:href="#f0_b" transform="matrix(13 0 0 13 1059.4 700.5)"/><use xlink:href="#f0_1k" transform="matrix(13 0 0 13 1067.9 700.5)"/><use xlink:href="#f0_i" transform="matrix(13 0 0 13 57.9 754)"/></g><text x="57" y="700" dx="0,0,.1,-.1,0,0,0,0,0" class="s1">2 Diamond</text><text x="209" y="700" dx="0,0,-.1" class="s1">10%</text><text x="263" y="700" class="s1">5%</text><text x="756" y="700" class="s1">15%</text><text x="838" y="700" dx="0,0,.1,0,-.1,0,.1,0" class="s1">1,680 PV</text><text x="1046" y="700" dx="0,-.1,0" class="s1">N/A</text><g fill="#445C70" clip-path="url(#c0)"><use xlink:href="#f0_1b" transform="matrix(13 0 0 13 72.5 754)"/><use xlink:href="#f0_6" transform="matrix(13 0 0 13 84.9 754)"/><use xlink:href="#f0_3" transform="matrix(13 0 0 13 89.8 754)"/><use xlink:href="#f0_12" transform="matrix(13 0 0 13 99.6 754)"/><use xlink:href="#f0_h" transform="matrix(13 0 0 13 115.7 754)"/><use xlink:href="#f0_4" transform="matrix(13 0 0 13 126.4 754)"/><use xlink:href="#f0_1i" transform="matrix(13 0 0 13 137 754)"/><use xlink:href="#f0_i" transform="matrix(13 0 0 13 209 754)"/><use xlink:href="#f0_x" transform="matrix(13 0 0 13 219.1 754)"/><use xlink:href="#f0_1d" transform="matrix(13 0 0 13 229 754)"/><use xlink:href="#f0_i" transform="matrix(13 0 0 13 756.7 754)"/><use xlink:href="#f0_x" transform="matrix(13 0 0 13 766.8 754)"/><use xlink:href="#f0_1d" transform="matrix(13 0 0 13 776.8 754)"/><use xlink:href="#f0_s" transform="matrix(13 0 0 13 845.8 754)"/><use xlink:href="#f0_j" transform="matrix(13 0 0 13 855.8 754)"/><use xlink:href="#f0_x" transform="matrix(13 0 0 13 865.9 754)"/><use xlink:href="#f0_15" transform="matrix(13 0 0 13 880.4 754)"/><use xlink:href="#f0_16" transform="matrix(13 0 0 13 891 754)"/><use xlink:href="#f0_1j" transform="matrix(13 0 0 13 1046.4 754)"/><use xlink:href="#f0_b" transform="matrix(13 0 0 13 1059.4 754)"/><use xlink:href="#f0_1k" transform="matrix(13 0 0 13 1067.9 754)"/></g><text x="57" y="753" dx="0,0,.1,-.1,0,0,0,0,0" class="s1">1 Diamond</text><text x="209" y="753" dx="0,0,-.1" class="s1">10%</text><text x="756" y="753" class="s1">10%</text><text x="845" y="753" dx="0,0,0,0,-.1,0" class="s1">720 PV</text><text x="1046" y="753" dx="0,-.1,0" class="s1">N/A</text></g><defs><path d="M385 521s48 0 82 12c0 0 35 13 57 35 0 0 23 23 34 54 0 0 10 31 10 67 0 0 0 73-44 112 0 0-45 39-138 39H285V521zM88 0v991h298s100 0 170-22c0 0 71-21 116-59 0 0 46-38 67-91 0 0 20-53 20-116 0 0 0-49-13-92 0 0-13-44-39-80 0 0-26-36-63-64 0 0-38-28-86-46 0 0 19-10 35-25 0 0 16-14 31-35L845 0H668s-47 0-72 40L416 348s-12 18-25 26c0 0-14 7-40 7h-66V0z" id="f0_2" transform="scale(.001 -.001)"/><path d="M329 118s51 0 88 18c0 0 37 18 73 56v120s-74-3-123-12c0 0-48-10-78-24 0 0-29-15-41-34 0 0-12-20-12-42 0 0 0-45 25-63 0 0 25-19 68-19zM270-10s-48 0-87 12c0 0-40 13-68 38 0 0-29 26-45 63 0 0-16 38-16 87 0 0 0 41 21 82 0 0 21 41 72 75 0 0 50 33 134 55 0 0 84 22 209 25v39s0 72-30 105c0 0-30 34-86 34 0 0-41 0-69-10 0 0-27-9-48-21 0 0-21-12-38-21 0 0-18-10-41-10 0 0-19 0-33 10 0 0-14 10-22 24l-34 60s64 60 142 89c0 0 77 29 167 29 0 0 65 0 117-21 0 0 51-22 87-60 0 0 36-38 54-91 0 0 19-53 19-117V0h-86s-27 0-41 8c0 0-15 8-23 32l-16 49s-29-25-55-43c0 0-26-19-54-32 0 0-28-13-59-18 0 0-32-6-71-6z" id="f0_3" transform="scale(.001 -.001)"/><path d="M93 0v741h116s18 0 30-8c0 0 12-9 16-26l13-54s22 22 46 40c0 0 24 19 52 32 0 0 27 13 58 20 0 0 31 8 68 8 0 0 61 0 107-21 0 0 46-21 78-58 0 0 31-38 47-90 0 0 16-51 16-113V0H551v471s0 64-30 99c0 0-29 35-87 35 0 0-43 0-81-19 0 0-37-18-71-52V0z" id="f0_4" transform="scale(.001 -.001)"/><path d="M80 0v1072h189V462h29s18 0 28 5c0 0 9 5 19 19l135 223s12 15 26 23c0 0 15 9 36 9h173L536 468s-12-16-26-29c0 0-14-12-30-23 0 0 15-11 26-25 0 0 12-15 23-32L724 0H554s-44 0-63 33L355 309s-9 17-19 22c0 0-10 5-29 5h-38V0z" id="f0_5" transform="scale(.001 -.001)"/><path d="M93 0v741h190V0zm91 836s-24 0-45 9c0 0-21 9-37 25 0 0-16 16-26 37 0 0-9 22-9 46 0 0 0 25 9 47 0 0 10 21 26 37 0 0 16 16 37 26 0 0 21 9 45 9 0 0 25 0 47-9 0 0 23-10 39-26 0 0 16-16 26-37 0 0 10-22 10-47 0 0 0-24-10-45 0 0-10-22-26-38 0 0-16-16-39-25 0 0-22-9-47-9z" id="f0_6" transform="scale(.001 -.001)"/><path d="M354-124s47 0 78 8c0 0 32 7 52 19 0 0 20 12 28 29 0 0 9 18 9 38 0 0 0 20-11 31 0 0-12 13-31 20 0 0-19 7-46 11 0 0-26 3-55 5 0 0-30 2-61 3 0 0-32 2-63 6 0 0-24-16-40-37 0 0-15-20-15-48 0 0 0-18 8-34 0 0 8-15 26-27 0 0 18-11 47-17 0 0 30-7 74-7zm-10 519s57 0 85 32c0 0 27 31 27 83 0 0 0 52-27 82 0 0-28 30-85 30 0 0-57 0-84-30 0 0-27-30-27-82 0 0 0-51 27-83 0 0 27-32 84-32zm7-653s-81 0-141 17c0 0-59 16-98 43 0 0-39 27-58 62 0 0-19 36-19 74 0 0 0 50 28 83 0 0 29 35 79 56 0 0-26 15-42 41 0 0-16 26-16 66 0 0 0 17 5 34 0 0 6 18 18 35 0 0 12 18 29 33 0 0 17 16 41 29 0 0-54 30-85 81 0 0-31 50-31 118 0 0 0 55 22 100 0 0 21 44 59 75 0 0 38 31 90 48 0 0 51 16 112 16 0 0 45 0 85-9 0 0 39-10 73-28h206v-71s0-16-9-26c0 0-10-10-31-14l-59-12s14-37 14-79c0 0 0-55-21-100 0 0-22-44-59-75 0 0-38-32-89-48 0 0-51-17-110-17 0 0-18 0-35 1 0 0-17 2-34 5 0 0-28-18-28-42 0 0 0-22 19-31 0 0 20-10 51-14 0 0 31-4 72-5 0 0 40-2 82-5 0 0 42-4 83-13 0 0 40-9 71-29 0 0 31-20 51-54 0 0 19-33 19-86 0 0 0-48-23-95 0 0-23-47-67-83 0 0-44-37-108-59 0 0-64-22-146-22z" id="f0_a" transform="scale(.001 -.001)"/><path d="M-12-68l506 1074s13 32 38 49c0 0 25 17 60 17h79L168 1s-14-34-43-52c0 0-28-17-59-17z" id="f0_b" transform="scale(.001 -.001)"/><path d="M569-9S449-9 352 27c0 0-98 38-167 105 0 0-69 68-107 161 0 0-38 93-38 203 0 0 0 111 36 204 0 0 36 93 103 160 0 0 66 67 161 105 0 0 94 37 211 37 0 0 60 0 112-10 0 0 52-10 97-27 0 0 45-17 82-41 0 0 37-24 67-53l-56-88s-13-21-34-25c0 0-4-1-9-1-9 0-22 2-37 11 0 0-23 14-46 26 0 0-24 12-50 22 0 0-27 9-59 14 0 0-32 6-73 6 0 0-71 0-126-25 0 0-56-24-96-68 0 0-40-44-61-107 0 0-21-63-21-140 0 0 0-83 23-149 0 0 23-66 65-111 0 0 42-45 102-69 0 0 60-23 133-23 0 0 49 0 88 10 0 0 40 10 78 28v173H615s-17 0-28 11c0 0-11 10-11 25v110h331V95s-74-55-159-80c0 0-84-24-179-24z" id="f0_c" transform="scale(.001 -.001)"/><path d="M553 457s0 32-9 61c0 0-8 29-27 51 0 0-18 23-46 36 0 0-27 13-65 13 0 0-73 0-114-42 0 0-41-43-53-119zM411-10s-77 0-143 24c0 0-67 26-116 76 0 0-49 50-77 124 0 0-28 75-28 172 0 0 0 76 25 143 0 0 24 66 70 116 0 0 46 50 112 79 0 0 65 29 148 29 0 0 70 0 129-23 0 0 59-23 102-66 0 0 42-43 66-105 0 0 24-63 24-143 0 0 0-22-2-36 0 0-3-14-7-22 0 0-5-8-14-11 0 0-8-4-21-4H236s4-54 19-93c0 0 15-40 40-65 0 0 24-25 58-38 0 0 33-12 74-12 0 0 41 0 72 10 0 0 30 10 53 22 0 0 22 11 40 21 0 0 18 10 35 10 0 0 21 0 35-17l54-70s-30-36-68-59c0 0-37-24-77-37 0 0-40-14-81-19 0 0-41-6-79-6z" id="f0_d" transform="scale(.001 -.001)"/><path d="M82 0v741h111s29 0 41-11c0 0 11-10 15-36l10-76s33 64 78 100c0 0 45 37 104 37 0 0 48 0 80-23l-14-142s-2-13-9-19c0 0-8-6-21-6 0 0-11 0-32 4 0 0-21 3-38 3 0 0-27 0-47-7 0 0-21-8-37-22 0 0-16-15-28-36 0 0-13-21-23-47V0z" id="f0_e" transform="scale(.001 -.001)"/><path d="M314-10s-48 0-85 13c0 0-37 15-62 42 0 0-25 27-38 65 0 0-13 38-13 87v404H50s-15 0-26 10c0 0-11 10-11 30v75l112 21 40 196s7 31 42 31h98V736h500V0H615v601H305V210s0-33 14-51c0 0 14-19 40-19 0 0 13 0 23 4 0 0 9 3 16 7 0 0 6 5 12 8 0 0 6 4 12 4 0 0 8 0 14-4 0 0 5-5 11-14l57-91s-39-32-88-49c0 0-49-15-102-15zm401 848s-24 0-45 9c0 0-22 9-38 25 0 0-16 16-25 38 0 0-9 21-9 46 0 0 0 24 9 46 0 0 9 21 25 38 0 0 16 16 38 25 0 0 21 9 45 9 0 0 24 0 47-9 0 0 22-9 38-25 0 0 17-17 27-38 0 0 9-22 9-46 0 0 0-25-9-46 0 0-10-22-27-38 0 0-16-16-38-25 0 0-23-9-47-9z" id="f0_f" transform="scale(.001 -.001)"/><path d="M412 134s86 0 127 60c0 0 41 60 41 177 0 0 0 117-41 177 0 0-41 60-127 60 0 0-87 0-129-60 0 0-41-60-41-177 0 0 0-117 41-177 0 0 42-60 129-60zm0-144s-82 0-150 26c0 0-67 27-115 76 0 0-49 50-75 121 0 0-26 70-26 159 0 0 0 88 26 158 0 0 26 71 75 120 0 0 48 50 115 76 0 0 68 27 150 27 0 0 81 0 148-27 0 0 67-26 115-76 0 0 48-49 74-120 0 0 26-70 26-158 0 0 0-89-26-159 0 0-26-71-74-121 0 0-48-49-115-76 0 0-67-26-148-26z" id="f0_h" transform="scale(.001 -.001)"/><path d="M176 0v134h192v555s0 35 2 72L241 650s-13-11-25-13c0 0-6-1-13-1-4 0-8 0-11 1 0 0-11 2-20 8 0 0-9 5-13 11l-57 78 298 258h148V134h169V0z" id="f0_i" transform="scale(.001 -.001)"/><path d="M51 0v60s0 18 8 37c0 0 7 20 25 37l287 296s37 38 65 73c0 0 28 34 47 68 0 0 19 34 29 69 0 0 9 34 9 72 0 0 0 69-34 104 0 0-34 35-97 35 0 0-27 0-49-8 0 0-22-8-40-22 0 0-18-15-31-34 0 0-13-19-19-42 0 0-12-34-33-45 0 0-12-6-35-6-6 0-13 1-21 2l-96 16s12 73 41 127c0 0 29 54 72 90 0 0 44 36 101 55 0 0 56 18 121 18 0 0 69 0 125-21 0 0 57-20 97-57 0 0 39-38 61-90 0 0 22-53 22-116 0 0 0-55-15-101 0 0-16-47-42-89 0 0-26-42-61-82 0 0-35-40-74-80L304 145s33 11 67 17c0 0 33 5 62 5h225s28 0 46-16c0 0 17-17 17-44V0z" id="f0_j" transform="scale(.001 -.001)"/><path d="M397-9S326-9 272 6c0 0-54 16-95 50 0 0-40 33-70 82 0 0-29 49-50 114l79 34s20 8 42 8c5 0 11-1 16-2 0 0 28-6 39-29 0 0 13-26 28-48 0 0 15-22 34-39 0 0 19-16 44-26 0 0 24-10 56-10 0 0 40 0 69 13 0 0 30 13 49 35 0 0 20 21 29 48 0 0 10 27 10 53 0 0 0 35-6 63 0 0-7 28-29 49 0 0-22 20-64 31 0 0-43 11-116 11v128s61 0 101 11c0 0 39 10 61 29 0 0 22 19 31 45 0 0 8 27 8 59 0 0 0 68-34 102 0 0-34 34-95 34 0 0-55 0-91-30 0 0-37-31-51-76 0 0-12-34-32-45 0 0-12-6-34-6-7 0-14 1-22 2l-95 16s11 73 40 127c0 0 29 54 73 90 0 0 44 36 100 55 0 0 57 18 122 18 0 0 68 0 123-20 0 0 55-20 93-55 0 0 38-35 58-81 0 0 21-47 21-100 0 0 0-47-10-83 0 0-10-36-30-62 0 0-19-27-47-46 0 0-29-19-65-31 0 0 170-57 170-229 0 0 0-75-27-132 0 0-28-57-74-96 0 0-45-39-106-58 0 0-61-18-128-18z" id="f0_l" transform="scale(.001 -.001)"/><path d="M480 377v306s0 22 2 48c0 0 1 25 4 53L201 377zm0-377v238H78s-17 0-31 11c0 0-13 11-17 28l-19 90 454 624h172V377h114V274s0-15-9-26c0 0-10-10-27-10h-78V0z" id="f0_n" transform="scale(.001 -.001)"/><path d="M333-9s-47 0-88 9c0 0-41 9-78 25 0 0-36 17-67 38 0 0-31 22-56 46l55 76s19 25 46 25c0 0 18 0 36-11 0 0 17-11 39-24 0 0 22-14 51-25 0 0 30-10 72-10 0 0 44 0 77 14 0 0 32 15 54 41 0 0 21 27 32 62 0 0 11 35 11 77 0 0 0 79-44 123 0 0-44 43-128 43 0 0-33 0-67-7 0 0-35-6-69-19L98 505l80 486h485v-76s0-38-24-62c0 0-25-24-82-24H304l-33-195s59 12 113 12c0 0 76 0 135-23 0 0 58-24 98-65 0 0 39-41 60-96 0 0 20-55 20-119 0 0 0-79-27-144 0 0-28-65-76-112 0 0-49-46-115-72 0 0-67-24-146-24z" id="f0_p" transform="scale(.001 -.001)"/><path d="M388 142s35 0 65 15c0 0 30 14 52 38 0 0 22 25 34 59 0 0 12 34 12 73 0 0 0 44-12 78 0 0-12 34-33 58 0 0-21 24-51 37 0 0-31 12-67 12 0 0-34 0-63-13 0 0-29-14-49-38 0 0-21-25-32-59 0 0-12-33-12-74 0 0 0-42 10-76 0 0 9-34 29-58 0 0 20-25 49-38 0 0 29-14 68-14zm4-152s-80 0-143 26c0 0-63 27-108 75 0 0-44 49-68 116 0 0-23 68-23 150 0 0 0 75 28 152 0 0 28 77 84 160l224 330s14 19 41 31c0 0 27 13 60 13h169L369 668l-29-38s26 12 54 18c0 0 28 6 61 6 0 0 53 0 104-19 0 0 52-20 92-58 0 0 41-39 65-98 0 0 25-59 25-137 0 0 0-73-26-138 0 0-25-64-71-111 0 0-46-48-110-76 0 0-64-27-142-27z" id="f0_r" transform="scale(.001 -.001)"/><path d="M131 0l364 744s12 24 26 45c0 0 13 21 30 40H102s-15 0-28 12c0 0-13 12-13 29v121h673v-77s0-34-7-56c0 0-8-22-15-36L357 61s-13-25-35-43c0 0-22-18-60-18z" id="f0_s" transform="scale(.001 -.001)"/><path d="M387 136s37 0 65 12c0 0 28 12 46 34 0 0 17 22 26 51 0 0 9 30 9 65 0 0 0 81-34 124 0 0-35 43-112 43 0 0-76 0-111-44 0 0-35-43-35-123 0 0 0-35 9-65 0 0 9-29 27-51 0 0 18-22 45-34 0 0 28-12 65-12zm0 477s37 0 61 14c0 0 24 13 39 35 0 0 14 21 20 50 0 0 5 28 5 58 0 0 0 27-7 54 0 0-7 26-22 45 0 0-15 19-39 31 0 0-23 12-57 12 0 0-33 0-57-12 0 0-23-12-39-31 0 0-15-19-22-45 0 0-7-27-7-54 0 0 0-30 5-58 0 0 6-29 21-50 0 0 14-22 38-35 0 0 24-14 61-14zm0-623s-76 0-139 20c0 0-63 22-108 62 0 0-45 40-70 97 0 0-24 56-24 126 0 0 0 89 40 153 0 0 40 64 130 96 0 0-70 31-104 90 0 0-34 58-34 140 0 0 0 59 22 111 0 0 23 51 64 89 0 0 41 38 98 59 0 0 57 22 125 22 0 0 68 0 125-22 0 0 57-21 98-59 0 0 41-38 64-89 0 0 23-52 23-111 0 0 0-82-35-140 0 0-34-59-104-90 0 0 90-32 130-96 0 0 41-64 41-153 0 0 0-70-25-126 0 0-24-57-70-97 0 0-45-40-108-62 0 0-63-20-139-20z" id="f0_u" transform="scale(.001 -.001)"/><path d="M413 527s38 0 67 13c0 0 30 12 49 34 0 0 20 22 30 52l11 65s0 39-12 70c0 0-11 30-32 52 0 0-21 21-49 32 0 0-29 11-63 11 0 0-35 0-63-13 0 0-28-12-48-34 0 0-20-22-30-52 0 0-11-30-11-65 0 0 0-80 39-122 0 0 38-43 112-43zM160 0l303 382 20 26s9 13 18 25c0 0-32-19-70-29 0 0-39-11-81-11 0 0-49 0-97 18 0 0-48 18-86 53 0 0-38 36-61 89 0 0-23 53-23 125 0 0 0 66 24 125 0 0 24 59 68 103 0 0 44 44 105 70 0 0 61 26 136 26 0 0 76 0 136-24 0 0 60-25 103-68 0 0 42-43 64-104 0 0 23-60 23-132 0 0 0-47-8-89 0 0-7-42-22-80 0 0-14-39-34-75 0 0-19-36-44-72L418 41s-13-17-38-29c0 0-24-12-55-12z" id="f0_v" transform="scale(.001 -.001)"/><path d="M386 138s33 0 63 16c0 0 31 16 55 57 0 0 24 40 39 109 0 0 14 69 14 176 0 0 0 106-14 175 0 0-15 69-39 110 0 0-24 40-55 56 0 0-30 16-63 16 0 0-33 0-63-16 0 0-31-16-54-56 0 0-24-41-38-110 0 0-14-69-14-175 0 0 0-107 14-176 0 0 14-69 38-109 0 0 23-41 54-57 0 0 30-16 63-16zm0-147s-76 0-141 29c0 0-64 30-112 93 0 0-48 62-75 158 0 0-27 95-27 225 0 0 0 130 27 225 0 0 27 95 75 157 0 0 48 63 112 93 0 0 65 31 141 31 0 0 76 0 141-31 0 0 65-30 113-93 0 0 49-62 76-157 0 0 27-95 27-225 0 0 0-130-27-225 0 0-27-96-76-158 0 0-48-63-113-93 0 0-65-29-141-29z" id="f0_x" transform="scale(.001 -.001)"/><path d="M280 0v831H13v160h730V831H476V0z" id="f0_y" transform="scale(.001 -.001)"/><path d="M316-10s-96 0-147 54c0 0-52 56-52 153v404H50s-15 0-25 10c0 0-11 10-11 30v75l113 22 39 195s7 31 42 31h99V736h182V601H307V210s0-33 14-51c0 0 14-19 40-19 0 0 14 0 24 4 0 0 9 3 16 7 0 0 6 5 12 8 0 0 6 4 12 4 0 0 8 0 14-4 0 0 5-5 11-14l57-91s-39-32-88-49c0 0-50-15-103-15z" id="f0_z" transform="scale(.001 -.001)"/><path d="M93 0v1072h190V0z" id="f0_10" transform="scale(.001 -.001)"/><path d="M104 0v991h148s13 0 22-1c0 0 9-1 17-4 0 0 8-3 14-9 0 0 7-6 13-17l307-537s25-47 44-98c0 0 11 26 21 51 0 0 10 25 23 48l305 536s6 11 13 18c0 0 6 6 13 9 0 0 8 2 18 3 0 0 9 1 22 1h148V0h-173v620s0 20 1 44c0 0 2 23 4 48L751 158s-23-43-68-43h-27s-46 0-69 43L271 715s3-26 4-50c0 0 2-24 2-45V0z" id="f0_11" transform="scale(.001 -.001)"/><path d="M95 0v741h117s18 0 30-8c0 0 12-9 16-26l13-52s20 21 41 39c0 0 21 18 46 31 0 0 25 13 53 20 0 0 28 8 61 8 0 0 71 0 117-38 0 0 46-38 68-100 0 0 18 37 45 63 0 0 26 26 58 43 0 0 32 16 68 24 0 0 35 8 71 8 0 0 63 0 111-19 0 0 49-19 82-56 0 0 34-36 51-88 0 0 17-52 17-119V0H971v471s0 134-120 134c0 0-27 0-50-9 0 0-23-8-40-25 0 0-18-17-28-42 0 0-10-25-10-58V0H533v471s0 72-29 103c0 0-30 31-87 31 0 0-38 0-71-17 0 0-33-17-61-49V0z" id="f0_12" transform="scale(.001 -.001)"/><path d="M327-10s-60 0-106 20c0 0-46 21-78 58 0 0-31 37-47 89 0 0-16 51-16 113v471h189V270s0-64 29-99c0 0 29-35 88-35 0 0 42 0 80 19 0 0 38 19 72 52v534h189V0H611s-18 0-30 9c0 0-13 8-16 25l-14 54s-44-44-97-72c0 0-53-26-127-26z" id="f0_13" transform="scale(.001 -.001)"/><path d="M404 496s90 0 132 47c0 0 41 48 41 130 0 0 0 77-42 122 0 0-43 45-131 45H282V496zM86 0v991h318s97 0 166-24c0 0 69-24 115-66 0 0 45-42 67-101 0 0 22-58 22-127 0 0 0-73-23-134 0 0-23-60-69-103 0 0-46-44-115-68 0 0-69-24-163-24H282V0z" id="f0_15" transform="scale(.001 -.001)"/><path d="M363 0L1 991h157s26 0 42-12c0 0 16-12 24-32l186-584s11-31 23-67c0 0 11-36 21-74 0 0 8 39 18 75 0 0 10 36 22 67l186 583s6 18 23 31c0 0 17 13 41 13h159L540 0z" id="f0_16" transform="scale(.001 -.001)"/><path d="M518 157s65 0 117 23c0 0 52 23 88 67 0 0 36 43 56 106 0 0 19 63 19 143 0 0 0 79-19 142 0 0-20 62-56 106 0 0-36 45-88 68 0 0-52 24-117 24 0 0-66 0-118-24 0 0-52-23-89-67 0 0-36-45-55-107 0 0-20-63-20-142 0 0 0-80 20-143 0 0 19-63 55-106 0 0 37-44 89-67 0 0 52-23 118-23zm0-166S410-9 321 28c0 0-89 38-152 106 0 0-64 67-98 160 0 0-35 93-35 202 0 0 0 108 34 201 0 0 35 93 99 161 0 0 63 67 152 105 0 0 89 39 197 39 0 0 108 0 197-39 0 0 88-38 151-106 0 0 64-68 98-160 0 0 34-93 34-201 0 0 0-109-34-202 0 0-34-93-98-160 0 0-63-68-151-106 0 0-89-37-197-37z" id="f0_17" transform="scale(.001 -.001)"/><path d="M41 0v78s0 13 6 32c0 0 6 18 19 33l286 453H59v145h509v-78s0-21-7-39c0 0-7-19-16-32L257 145h304V0z" id="f0_18" transform="scale(.001 -.001)"/><path d="M381 139s27 0 49 5c0 0 21 5 40 16 0 0 19 10 36 25 0 0 16 16 33 36v328s-29 34-62 48c0 0-33 15-71 15 0 0-37 0-67-15 0 0-30-14-52-44 0 0-21-30-33-76 0 0-12-46-12-108 0 0 0-64 10-108 0 0 10-43 28-70 0 0 18-28 43-40 0 0 26-12 58-12zm158-378V89s-44-46-97-73c0 0-54-26-126-26 0 0-59 0-109 24 0 0-49 26-85 74 0 0-35 49-55 119 0 0-20 71-20 162 0 0 0 82 22 153 0 0 23 70 64 122 0 0 41 52 99 81 0 0 57 30 129 30 0 0 34 0 62-6 0 0 28-6 51-17 0 0 24-11 43-27 0 0 20-16 38-35l10 37s4 17 16 26c0 0 13 8 31 8h116v-980z" id="f0_19" transform="scale(.001 -.001)"/><path d="M345-9s-45 0-89 9c0 0-45 8-86 25 0 0-41 18-77 41 0 0-37 24-65 54l59 93s6 12 18 18c0 0 11 7 25 7 0 0 18 0 37-14 0 0 19-14 44-30 0 0 25-17 59-31 0 0 34-14 80-14 0 0 67 0 104 35 0 0 38 34 38 101 0 0 0 38-19 62 0 0-18 24-48 40 0 0-30 16-68 27 0 0-38 12-78 25 0 0-40 14-79 33 0 0-38 19-68 50 0 0-30 32-48 78 0 0-18 46-18 115 0 0 0 54 21 106 0 0 20 52 61 92 0 0 40 40 99 65 0 0 58 24 133 24 0 0 85 0 158-28 0 0 73-27 124-77l-50-93s-7-15-17-21c0 0-10-6-25-6 0 0-14 0-31 10 0 0-16 10-38 23 0 0-22 12-51 23 0 0-29 10-67 10 0 0-67 0-101-33 0 0-34-33-34-86 0 0 0-33 18-55 0 0 18-22 48-38 0 0 31-16 69-29 0 0 38-13 79-27 0 0 40-15 78-35 0 0 39-19 69-49 0 0 30-30 49-73 0 0 18-44 18-105 0 0 0-68-22-127 0 0-22-58-65-102 0 0-42-44-104-69 0 0-61-24-140-24z" id="f0_1a" transform="scale(.001 -.001)"/><path d="M448 156s65 0 117 23c0 0 53 23 89 67 0 0 36 44 55 107 0 0 20 63 20 143 0 0 0 79-20 142 0 0-19 62-55 106 0 0-36 45-89 68 0 0-52 24-117 24H283V156zM87 0v991h361s108 0 197-37c0 0 88-36 151-102 0 0 63-66 98-157 0 0 34-91 34-199 0 0 0-109-34-200 0 0-35-92-98-157 0 0-63-66-151-102 0 0-89-37-197-37z" id="f0_1b" transform="scale(.001 -.001)"/><path d="M348-10s-62 0-118 25c0 0-55 25-98 75 0 0-42 49-66 120 0 0-25 71-25 162 0 0 0 82 22 151 0 0 21 69 63 120 0 0 43 52 105 81 0 0 62 29 144 29 0 0 78 0 137-28 0 0 59-27 106-78l-50-68s-9-11-17-17c0 0-8-6-23-6 0 0-14 0-26 8l-27 18s-15 10-36 19c0 0-20 8-52 8 0 0-39 0-67-17 0 0-29-16-48-47 0 0-18-30-28-74 0 0-9-44-9-99 0 0 0-115 40-178 0 0 39-62 108-62 0 0 37 0 59 10 0 0 21 11 36 23 0 0 15 13 27 23 0 0 13 10 30 10 0 0 22 0 33-17l56-70s-30-36-64-59c0 0-33-24-69-38 0 0-35-14-71-19 0 0-37-5-72-5z" id="f0_1c" transform="scale(.001 -.001)"/><path d="M840 110s19 0 35 6c0 0 16 7 29 23 0 0 12 15 19 42 0 0 7 26 7 64 0 0 0 40-7 67 0 0-7 27-19 43 0 0-13 16-29 24 0 0-16 7-35 7 0 0-19 0-34-7 0 0-16-8-28-24 0 0-11-16-18-43 0 0-7-27-7-67 0 0 0-38 7-64 0 0 7-27 18-42 0 0 12-16 28-23 0 0 15-6 34-6zm0-122s-51 0-93 18c0 0-43 18-74 52 0 0-31 34-49 82 0 0-18 47-18 105 0 0 0 61 18 109 0 0 18 49 49 83 0 0 31 34 74 53 0 0 42 18 93 18 0 0 51 0 95-18 0 0 43-19 74-53 0 0 32-34 49-83 0 0 18-48 18-109 0 0 0-58-20-105 0 0-19-48-52-82 0 0-32-34-74-52 0 0-43-18-90-18zM272 655s19 0 35 7c0 0 17 6 29 22 0 0 12 16 18 42 0 0 7 26 7 65 0 0 0 40-7 67 0 0-6 27-18 43 0 0-12 17-29 24 0 0-16 7-35 7 0 0-19 0-35-7 0 0-15-7-27-24 0 0-12-16-19-43 0 0-6-27-6-67 0 0 0-39 6-65 0 0 7-26 19-42 0 0 12-16 27-22 0 0 16-7 35-7zM134 0l635 981s19 30 42 46c0 0 24 16 57 16h82L310 54s-20-32-43-43c0 0-22-11-52-11zm138 533s-50 0-93 19c0 0-43 18-75 52 0 0-31 33-48 81 0 0-18 48-18 106 0 0 0 60 18 109 0 0 17 48 48 82 0 0 32 35 75 53 0 0 43 18 93 18 0 0 51 0 94-18 0 0 44-18 75-53 0 0 31-34 49-82 0 0 17-49 17-109 0 0 0-58-19-106 0 0-20-48-52-81 0 0-32-34-75-52 0 0-42-19-89-19z" id="f0_1d" transform="scale(.001 -.001)"/><path d="M145-206l-33 30s-8 7-11 13c0 0-3 7-3 16 0 0 0 6 5 13 0 0 4 7 10 13 0 0 9 9 20 22 0 0 12 12 23 28 0 0 12 16 22 35 0 0 9 18 14 39 0 0-23 1-42 9 0 0-19 9-33 24 0 0-14 15-22 34 0 0-7 20-7 44 0 0 0 21 8 40 0 0 8 18 22 32 0 0 15 13 35 21 0 0 19 8 44 8 0 0 29 0 50-10 0 0 22-10 35-28 0 0 14-17 21-40 0 0 7-23 7-48 0 0 0-35-10-74 0 0-11-38-32-77 0 0-20-39-51-76 0 0-31-37-72-68z" id="f0_1e" transform="scale(.001 -.001)"/><path d="M204-9s-24 0-45 8c0 0-21 8-36 23 0 0-16 15-24 35 0 0-9 21-9 45 0 0 0 23 9 44 0 0 8 21 24 36 0 0 15 15 36 24 0 0 21 9 45 9 0 0 24 0 44-9 0 0 21-9 37-24 0 0 15-15 24-36 0 0 9-21 9-44 0 0 0-24-9-45 0 0-9-20-24-35 0 0-16-15-37-23 0 0-20-8-44-8z" id="f0_1f" transform="scale(.001 -.001)"/><path d="M284-10s-36 0-71 7c0 0-35 5-67 18 0 0-32 12-60 28 0 0-28 17-48 36l44 72s8 12 19 20c0 0 12 7 30 7 0 0 16 0 31-9 0 0 14-9 31-19 0 0 17-11 41-20 0 0 24-9 60-9 0 0 27 0 46 7 0 0 19 6 30 18 0 0 12 11 18 26 0 0 5 15 5 31 0 0 0 33-24 51 0 0-25 18-62 32 0 0-38 13-81 27 0 0-42 14-80 39 0 0-37 25-62 65 0 0-24 40-24 107 0 0 0 46 17 87 0 0 17 42 51 73 0 0 34 31 84 50 0 0 51 19 118 19 0 0 36 0 71-7 0 0 34-7 64-19 0 0 30-12 55-30 0 0 25-17 45-37l-43-68s-7-13-16-18c0 0-8-5-21-5 0 0-14 0-28 7 0 0-15 7-32 16 0 0-18 9-40 16 0 0-22 7-52 7 0 0-44 0-69-21 0 0-25-20-25-55 0 0 0-23 15-38 0 0 14-15 37-27 0 0 24-11 53-21 0 0 30-10 61-21 0 0 31-11 61-27 0 0 29-15 53-37 0 0 23-23 38-55 0 0 14-32 14-77 0 0 0-53-19-99 0 0-19-45-55-78 0 0-36-33-89-52 0 0-54-17-124-17z" id="f0_1g" transform="scale(.001 -.001)"/><path d="M93 0v1072h190V666s42 39 92 63c0 0 49 24 118 24 0 0 61 0 107-21 0 0 46-21 77-58 0 0 32-38 48-90 0 0 16-51 16-113V0H551v471s0 64-29 99c0 0-29 35-87 35 0 0-43 0-81-19 0 0-38-18-71-52V0z" id="f0_1h" transform="scale(.001 -.001)"/><path d="M381 139s26 0 48 5c0 0 22 6 41 16 0 0 19 11 35 26 0 0 17 15 33 36v326s-28 36-62 50c0 0-33 14-71 14 0 0-36 0-67-15 0 0-30-14-51-44 0 0-21-30-33-76 0 0-12-46-12-108 0 0 0-64 10-108 0 0 10-43 28-70 0 0 18-28 43-40 0 0 26-12 58-12zM315-10s-59 0-108 24c0 0-50 26-85 74 0 0-35 49-55 119 0 0-20 71-20 162 0 0 0 82 22 153 0 0 23 70 64 122 0 0 41 52 99 81 0 0 57 30 128 30 0 0 60 0 102-18 0 0 42-19 76-51v386h189V0H610s-17 0-29 9c0 0-13 8-16 25l-17 67s-44-50-100-81c0 0-57-30-133-30z" id="f0_1i" transform="scale(.001 -.001)"/><path d="M91 0v991h103s13 0 22-1c0 0 9-2 16-5 0 0 7-3 13-9 0 0 6-6 15-16l487-643s-4 49-4 93v581h172V0H815s-24 0-39 8c0 0-15 8-30 26L260 673s4-46 4-86V0z" id="f0_1j" transform="scale(.001 -.001)"/><path d="M602 375L501 689s-9 23-18 54c0 0-10 31-20 67 0 0-9-36-18-68 0 0-10-31-18-54L326 375zM3 0l361 991h200L925 0H774s-26 0-41 12c0 0-16 13-24 31l-62 195H282L220 44s-6-16-23-30c0 0-16-14-41-14z" id="f0_1k" transform="scale(.001 -.001)"/></defs><style>@font-face{font-family:Carlito-Bold_9;src:url(&quot;fonts/Carlito-Bold_9.woff&quot;) format(&quot;woff&quot;)}</style></svg>