<svg height="100" width="160" xmlns="http://www.w3.org/2000/svg"><g fill="none" fill-rule="evenodd"><path d="M148 0H8C4 0 0 4 0 8v80c0 8 4 12 12 12h136c8 0 12-4 12-12V12c0-8-4-12-12-12zm0 0" fill="#265697"/><path d="M149.5452 50.5c.0066 23.2378-18.6256 42.0793-41.6157 42.0854-22.9905.0057-41.6307-18.8263-41.6368-42.064V50.5c-.0061-23.2373 18.626-42.0797 41.6152-42.086 22.9906-.006 41.6312 18.8269 41.6373 42.0646V50.5s0-.0076 0 0zm0 0" fill="#DFAC16"/><path d="M51.8126 8.425C28.9587 8.5717 10.4543 27.3653 10.4543 50.5c0 23.225 18.6487 42.0745 41.6265 42.0745 10.7842 0 20.6143-4.154 28.0113-10.9626-.0005 0-.0014-.001-.0033-.0019h.009a42.2827 42.2827 0 004.2258-4.5055h-8.5283a41.082 41.082 0 01-3.1035-4.334h14.7085a42.2892 42.2892 0 002.4232-4.5055h-19.56a41.7634 41.7634 0 01-1.7397-4.4205H91.565c1.3888-4.194 2.1423-8.6809 2.1423-13.345 0-3.0923-.3317-6.1072-.9593-9.01H67.3018a42.3114 42.3114 0 011.1877-4.42h23.0497a42.3455 42.3455 0 00-1.7946-4.505H70.261a40.506 40.506 0 012.3884-4.4195h14.6977c-.9781-1.5751-2.0606-3.08-3.2308-4.5055h-8.1947c1.267-1.5072 2.6619-2.9265 4.176-4.25C72.7003 12.58 62.8674 8.425 52.0808 8.425c-.0897 0-.1785-.0005-.2682 0 0 0 .0897-.0005 0 0zm0 0" fill="#BF3126"/><path d="M67.0495 61.2124l.5549-3.808c-.303 0-.7489.1311-1.1421.1311-1.5428 0-1.7129-.829-1.6147-1.4421l1.2464-7.7697h2.3447l.5661-4.212H66.794l.45-2.6193h-4.432c-.0978.0987-2.6164 14.7316-2.6164 16.5132 0 2.6379 1.4653 3.8127 3.5315 3.7937 1.618-.0138 2.878-.4663 3.3224-.587 0 0-.4444.1207 0 0zm0 0M68.4538 53.9522c0 6.3309 4.1342 7.8352 7.6563 7.8352 3.251 0 4.6815-.7346 4.6815-.7346l.7808-4.3207s-2.473 1.1012-4.7064 1.1012c-4.759 0-3.9257-3.5867-3.9257-3.5867h9.007s.5816-2.9028.5816-4.0857c0-2.9517-1.4535-6.5483-6.3197-6.5483-4.4565.001-7.7554 4.8545-7.7554 10.3396 0 0 0-5.485 0 0zm7.7723-6.3275c2.5012 0 2.0399 2.8411 2.0399 3.071h-4.9207c0-.2935.4651-3.071 2.8808-3.071 0 0-2.4157 0 0 0zm0 0M104.2919 61.2105l.793-4.884s-2.1747 1.1022-3.6672 1.1022c-3.144 0-4.4049-2.4265-4.4049-5.0335 0-5.2886 2.7051-8.198 5.7165-8.198 2.2584 0 4.0708 1.2816 4.0708 1.2816l.7235-4.7453s-2.6877-1.0993-4.9916-1.0993c-5.1166 0-10.094 4.4865-10.094 12.9124 0 5.5873 2.6876 9.2774 7.9766 9.2774 1.4954.0005 3.8773-.6135 3.8773-.6135zm0 0M42.673 43.6824c-3.039 0-5.3688.9873-5.3688.9873l-.6431 3.8592s1.9229-.7897 4.8295-.7897c1.6504 0 2.8578.1875 2.8578 1.5433 0 .8234-.148 1.1273-.148 1.1273s-1.3018-.1102-1.9046-.1102c-3.833 0-7.8597 1.6535-7.8597 6.6386 0 3.928 2.6417 4.8293 4.279 4.8293 3.127 0 4.4748-2.051 4.5466-2.0571l-.146 1.7119h3.9026l1.741-12.3374c0-5.2339-4.517-5.4025-6.0862-5.4025zm.9496 10.0452c.0845.7536-.4675 4.2861-3.136 4.2861-1.3765 0-1.7345-1.0627-1.7345-1.6914 0-1.2261.6592-2.6982 3.9069-2.6982.7554.001.8362.0826.9636.1035 0 0-.1274-.0209 0 0zm0 0M52.9072 61.6773c.9983 0 6.7054.2564 6.7054-5.696 0-5.5649-5.2829-4.4656-5.2829-6.7012 0-1.113.8612-1.4635 2.435-1.4635.6248 0 3.0288.2008 3.0288.2008l.559-3.9556c0 .0005-1.556-.3518-4.089-.3518-3.2788 0-6.6069 1.323-6.6069 5.8493 0 5.129 5.5493 4.6142 5.5493 6.7748 0 1.4422-1.5503 1.5595-2.745 1.5595-2.0676 0-3.9294-.717-3.936-.6829l-.591 3.9157c.1071.0333 1.2553.5509 4.9733.5509 0 0-3.718 0 0 0zm0 0M141.0043 40.1328l-.956 5.9961s-1.6683-2.3292-4.28-2.3292c-4.0609 0-7.4458 4.949-7.4458 10.6355 0 3.6706 1.8055 7.2672 5.4962 7.2672 2.6549 0 4.1267-1.871 4.1267-1.871l-.195 1.598h4.311l3.3858-21.3037-4.4429.0071zm-2.0582 11.6911c0 2.3662-1.159 5.527-3.562 5.527-1.595 0-2.3424-1.3534-2.3424-3.4775 0-3.4731 1.5433-5.7648 3.4906-5.7648 1.5954-.0005 2.4138 1.1074 2.4138 3.7153 0 0 0-2.608 0 0zm0 0M18.6753 61.4479l2.698-16.0835.3961 16.0835h3.0537l5.6963-16.0835-2.5233 16.0835h4.5373l3.4944-21.3321h-7.0165l-4.3696 13.0885-.2273-13.0885h-6.4678L14.402 61.4479h4.2733zm0 0M86.9615 61.4773c1.29-7.4154 1.5292-13.4366 4.6078-12.3345.5388-2.87 1.0589-3.9802 1.647-5.195 0 0-.2757-.0583-.8545-.0583-1.9849 0-3.4554 2.7409-3.4554 2.7409l.3951-2.5173h-4.1267l-2.7647 17.3642h4.5514zm0 0M114.5186 43.6824c-3.0392 0-5.369.9873-5.369.9873l-.6426 3.8592s1.9229-.7897 4.8295-.7897c1.6504 0 2.8569.1875 2.8569 1.5433 0 .8234-.147 1.1273-.147 1.1273s-1.3019-.1102-1.9051-.1102c-3.8326 0-7.8593 1.6535-7.8593 6.6386 0 3.928 2.6412 4.8293 4.2785 4.8293 3.127 0 4.4748-2.051 4.5462-2.0571l-.1451 1.7119h3.9026l1.7406-12.3374c.0005-5.2339-4.5171-5.4025-6.0862-5.4025zm.9508 10.0452c.0846.7536-.4679 4.2861-3.1373 4.2861-1.3765 0-1.7335-1.0627-1.7335-1.6914 0-1.2261.659-2.6982 3.9063-2.6982.7555.001.8358.0826.9645.1035 0 0-.1287-.0209 0 0zm0 0M124.1717 61.4773c1.2906-7.4154 1.5297-13.4366 4.6074-12.3345.5398-2.87 1.0603-3.9802 1.648-5.195 0 0-.2758-.0583-.8546-.0583-1.9849 0-3.4553 2.7409-3.4553 2.7409l.395-2.5173h-4.1266l-2.7648 17.3642h4.551zm0 0" fill="#FFF"/></g></svg>