<svg height="128" version="1.0" viewBox="0 0 95049 95149" width="128" xmlns="http://www.w3.org/2000/svg" shape-rendering="geometricPrecision" text-rendering="geometricPrecision" image-rendering="optimizeQuality" fill-rule="evenodd" clip-rule="evenodd"><path d="M40562 14026c8527 0 16438 2634 22968 7129l-7879 7879c-4422-2617-9580-4120-15089-4120-16389 0-29674 13285-29674 29673 0 16389 13285 29674 29674 29674 16388 0 29673-13285 29673-29674 0-5510-1503-10668-4120-15089l7879-7879c4496 6530 7129 14441 7129 22968 0 22402-18160 40562-40561 40562C18160 95149 0 76989 0 54587c0-22401 18160-40561 40562-40561zm1850 42412c-1022 1021-2679 1021-3701 0-1021-1022-1021-2679 0-3701l32732-32731 752-10512L80643 0l731 10075c1022-1022 2679-1022 3700 0 1022 1021 1022 2678 0 3700l-7 7 9982 731-9500 8442-10391 737-32746 32746zm-1850-20308c2373 0 4643 448 6727 1265l-7503 7504c-5005 395-8944 4581-8944 9688 0 5369 4352 9720 9720 9720 5106 0 9293-3939 9689-8944l7503-7504c816 2085 1265 4355 1265 6728 0 10194-8264 18458-18457 18458-10194 0-18458-8264-18458-18458 0-10193 8264-18457 18458-18457z" fill="#ed1a1a"/></svg>