<svg height="64" viewBox="0 0 16 16" width="64" xmlns="http://www.w3.org/2000/svg"><path d="M6.8797 11.0591V13h2.351v-1.9409zM8 16c-4.4183 0-8-3.5817-8-8s3.5817-8 8-8 8 3.5817 8 8-3.5817 8-8 8zM5.57 3.5104C4.5865 4.0432 4.0631 4.9476 4 6.2236h2.28c0-.3716.1276-.7298.3827-1.0745.2551-.3448.6877-.5171 1.2979-.5171.6206 0 1.048.1399 1.282.4197.234.2798.351.5899.351.9302 0 .2955-.1051.5663-.3155.8126l-.4576.3962-.576.3828c-.568.3761-.9204.7086-1.0571.9974-.1368.2887-.221.8115-.2525 1.5681h2.1302c.0052-.3582.0394-.6223.1026-.7925.0999-.2686.3024-.5037.6074-.7051l.5602-.3694c.568-.3761.952-.685 1.1519-.9268.3419-.3985.5128-.8887.5128-1.4708 0-.9492-.3932-1.6655-1.1795-2.149C10.0342 3.2417 9.0467 3 7.858 3c-.9047 0-1.6673.1701-2.288.5104zm0 0" fill="#9da9b2" fill-rule="evenodd"/></svg>