<svg viewBox="0 0 64 64" xmlns="http://www.w3.org/2000/svg" xmlns:xlink="http://www.w3.org/1999/xlink"><defs><linearGradient gradientUnits="userSpaceOnUse" id="a" x1="3.018" x2="59.018" y1="1.983" y2="59.983"><stop offset="0" stop-color="#fff200"/><stop offset="1" stop-color="#cd118c"/></linearGradient><linearGradient id="b" x1="4.062" x2="60.062" xlink:href="#a" y1=".975" y2="58.975"/><linearGradient id="c" x1="-3.978" x2="52.022" xlink:href="#a" y1="8.737" y2="66.737"/></defs><g data-name="speed meter-performance-business-finance"><path d="M32 2a30 30 0 1030 30A30.034 30.034 0 0032 2zm0 58a28 28 0 1128-28 28.032 28.032 0 01-28 28z" fill="url(#a)"/><path d="M54.97 30.89v-.12c-.021-.32-.042-.641-.073-.949s-.063-.625-.1-.919c-.034-.258-.068-.516-.112-.7-.043-.3-.1-.6-.164-.916l-.03-.134c-.052-.238-.107-.482-.164-.7-.154-.632-.352-1.3-.6-2.014-.067-.212-.144-.412-.213-.588-.1-.272-.206-.543-.321-.8-.148-.35-.3-.687-.453-1-.14-.3-.291-.593-.441-.862a20.715 20.715 0 00-1.214-2.032l-.02-.028v-.005c-.019-.028-.039-.054-.059-.083-.137-.2-.276-.4-.418-.591l-.14-.192c-.193-.268-.4-.527-.677-.856a1.705 1.705 0 01-.127-.161c-.157-.187-.324-.376-.5-.575-.06-.065-.125-.128-.185-.192l1.755-1.755-1.414-1.414-1.756 1.756c-.079-.075-.151-.149-.232-.223-.178-.157-.356-.315-.578-.5-.021-.015-.043-.031-.072-.054s-.064-.053-.114-.1c-.259-.216-.518-.421-.767-.6l-.015-.011-.2-.145c-.232-.169-.462-.336-.7-.494a20.658 20.658 0 00-2.017-1.207c-.291-.161-.582-.313-.856-.44-.339-.169-.678-.317-1.014-.46-.272-.12-.544-.229-.822-.329-.19-.073-.381-.146-.556-.2-.743-.257-1.411-.455-2.024-.6-.258-.068-.525-.126-.864-.2-.3-.063-.6-.118-.836-.149-.247-.054-.494-.087-.765-.122-.3-.042-.612-.073-.93-.106s-.633-.051-1.012-.072a21.052 21.052 0 00-2.275 0h-.113c-.321.021-.643.042-.962.073s-.622.063-.947.108c-.246.032-.493.065-.67.106-.3.044-.6.1-.986.18-.259.058-.526.116-.766.18-.631.151-1.3.349-2.015.6-.2.064-.393.137-.589.212-.272.1-.544.207-.8.322-.351.148-.69.3-1 .453-.3.139-.592.291-.863.441-.106.056-.209.119-.314.176-.587.32-1.166.665-1.716 1.038h-.014l-.109.078q-.3.2-.582.411l-.194.142c-.135.1-.268.2-.406.306s-.284.23-.445.366a.642.642 0 01-.065.055l-.1.077c-.178.149-.356.307-.575.5-.621.57-1.224 1.172-1.8 1.8-.168.188-.335.377-.524.606a1.707 1.707 0 01-.159.189c-.215.259-.42.518-.6.766l-.009.011v.007l-.142.194c-.169.233-.337.464-.5.7a20.628 20.628 0 00-1.207 2.015c-.161.291-.312.582-.44.858-.169.339-.317.676-.461 1.014-.119.272-.228.543-.316.79-.078.2-.155.4-.213.588-.255.74-.453 1.407-.6 2.025-.061.236-.116.48-.168.718l-.032.142c-.065.3-.119.606-.149.837-.057.259-.091.517-.124.767-.041.3-.073.615-.1.925s-.052.631-.074 1.017S9 31.612 9 32s.01.776.03 1.11v.12c.021.32.042.641.073.949s.063.625.1.919c.034.258.068.516.112.7.043.3.1.6.164.916l.03.134c.052.238.107.482.164.7.154.632.352 1.3.6 2.014.067.212.144.412.213.588.1.272.206.543.321.8.148.35.3.687.453 1 .14.3.291.593.442.864.115.221.241.451.367.671l.5.871 7.809-4.5-.504-.856a14 14 0 010-14A14.09 14.09 0 0125 19.874a14.236 14.236 0 0114 0 13.935 13.935 0 012.145 1.567l-6.391 6.391a5.015 5.015 0 101.414 1.414l6.391-6.391A13.922 13.922 0 0144.126 39l-.5.868 7.809 4.5.5-.871c.126-.22.252-.45.357-.651.161-.291.312-.582.44-.858.169-.339.317-.676.461-1.014.119-.272.228-.543.316-.79.078-.2.155-.4.213-.588.255-.74.453-1.407.6-2.025.061-.236.116-.48.168-.718l.032-.142c.065-.3.119-.606.149-.837.057-.259.091-.517.124-.767.041-.3.073-.615.1-.925s.052-.631.074-1.017S55 32.388 55 32s-.01-.776-.03-1.11zm-2.588-3.96c.055.214.1.435.152.651l.028.129c.055.257.1.514.151.843.044.2.069.4.1.614.039.277.067.564.1.854.016.154.028.31.039.46.01.128.018.251.026.359V31h-5.011a15.923 15.923 0 00-1.637-6.118l4.337-2.5c.09.17.18.335.269.526.15.3.282.6.418.925.1.229.192.457.284.71.062.161.125.32.187.514.234.678.415 1.287.557 1.873zM33.984 11.1c.286.029.573.057.885.1.194.026.386.05.65.105.257.036.515.083.839.152.235.052.476.106.727.17.568.138 1.176.318 1.886.563.159.049.31.109.51.186.229.082.457.174.7.28.31.131.612.262.939.426.166.077.333.169.5.256l-2.5 4.339A16.016 16.016 0 0033 16.072v-5.046h.1c.3.021.594.04.884.074zm-9.416 1.257c.151-.058.3-.118.488-.176.683-.236 1.291-.416 1.876-.558.234-.06.475-.114.776-.18.258-.055.516-.1.843-.151.194-.042.387-.066.616-.1.276-.038.563-.066.85-.095s.588-.048.823-.065H31v5.045a16.012 16.012 0 00-6.117 1.6l-2.5-4.338c.17-.09.335-.18.527-.27.3-.151.6-.282.926-.418.226-.106.454-.198.732-.299zM11.192 29.158c.026-.2.051-.4.108-.677.037-.257.083-.514.136-.763l.03-.137c.048-.216.1-.437.156-.666.138-.571.319-1.18.562-1.884.053-.169.116-.328.187-.513.083-.229.174-.457.279-.7.132-.31.264-.611.427-.939.077-.166.169-.334.256-.5l4.337 2.5A15.933 15.933 0 0016.033 31h-5.008v-.1c.019-.3.038-.594.067-.883s.06-.573.1-.859zm2.141 12.461c-.09-.17-.18-.335-.269-.526-.15-.3-.282-.6-.418-.925-.1-.229-.192-.457-.284-.71-.062-.161-.125-.32-.187-.514-.234-.679-.415-1.288-.557-1.874-.055-.214-.1-.435-.152-.651l-.028-.129c-.055-.257-.1-.514-.151-.843-.044-.2-.069-.4-.1-.614-.039-.277-.067-.564-.1-.854-.016-.154-.028-.31-.039-.46-.01-.128-.018-.251-.026-.359v-.1-.055h5.031a15.922 15.922 0 001.61 6.119zm5.34-18.468l-4.341-2.5c.085-.132.164-.266.253-.4l.026-.035c.179-.261.359-.521.571-.8.166-.231.342-.453.463-.6a2.769 2.769 0 00.253-.3c.143-.172.3-.344.439-.5q.793-.864 1.684-1.683c.164-.144.327-.289.446-.39l.166-.129a1.162 1.162 0 00.108-.1c.221-.185.442-.36.693-.541.278-.21.556-.4.827-.589.125-.085.266-.153.393-.235l2.5 4.33a16.125 16.125 0 00-4.481 4.472zm22.176-4.478l2.5-4.341c.128.082.259.159.385.245.276.19.553.381.849.606.23.164.45.339.609.468.052.05.107.1.159.141s.1.079.135.105c.163.137.326.282.505.439.044.041.086.084.131.125l-3.544 3.544a16.021 16.021 0 00-1.729-1.332zM35 32a3 3 0 11-3-3 2.951 2.951 0 011.285.3l-.774.774A1.96 1.96 0 0032 30a2 2 0 102 2 1.96 1.96 0 00-.075-.511l.774-.774A2.951 2.951 0 0135 32zm9-10.581l3.544-3.544c.037.041.077.08.114.12.153.172.306.344.417.475a2.422 2.422 0 00.221.269c.184.221.359.441.54.692l.013.019c.2.266.386.532.578.811.086.126.153.265.235.394l-4.33 2.5A15.935 15.935 0 0044 21.419zm8.813 13.423c-.026.2-.051.4-.108.677-.037.257-.083.514-.136.763l-.03.137c-.048.216-.1.437-.156.666-.138.571-.319 1.18-.562 1.884-.053.169-.116.328-.187.513-.083.229-.174.457-.279.7-.132.31-.264.611-.427.939-.077.167-.169.333-.256.5l-4.335-2.5A15.922 15.922 0 0047.942 33h5.033v.1c-.019.3-.038.594-.067.883s-.06.573-.1.859z" fill="url(#b)"/><path d="M21 49h22v-6H21zm2-4h18v2H23z" fill="url(#c)"/></g></svg>