<svg width="1210" height="935" xmlns="http://www.w3.org/2000/svg" xmlns:xlink="http://www.w3.org/1999/xlink" style="margin-left:auto;margin-right:auto" display="block"><defs><clipPath id="c_1"><path d="M0 0h1210v935H0z"/></clipPath><clipPath id="c0"><path d="M651.1 265v-46.5h81.6V265z"/></clipPath><clipPath id="c1"><path d="M442.4 267.4v-46.5H524v46.5z"/></clipPath><clipPath id="c2"><path d="M230.2 265.9v-46.4h81.7v46.4z"/></clipPath><clipPath id="c3"><path d="M176.7 543v-27.8h212.8V543z"/></clipPath><clipPath id="c4"><path d="M389.6 543v-27.8h212.8V543z"/></clipPath><clipPath id="c5"><path d="M602.4 543v-27.8h212.8V543z"/></clipPath><style>text{white-space:pre}path{pointer-events:none}text::-moz-selection{color:transparent;background:rgba(0,106,173,.4)}text::selection{color:transparent;background:rgba(0,106,173,.4)}.s2,.s3,.s4,.s5{font-size:21.39px;font-family:Carlito-Bold_9;fill:TRANSPARENT}.s3,.s4,.s5{font-size:22.92px}.s4,.s5{font-size:27.5px}.s5{font-size:42.78px}.g2{fill:none;stroke:#455f7b;stroke-width:6.875;stroke-linecap:butt;stroke-linejoin:round}.g3{fill:#fff}.g4{fill:#455f7b}</style></defs><path d="M0 0v935h1210V0z" fill="#FFF"/><g clip-path="url(#c_1)"><path d="M427 70.2v0l.1-2.6.2-2.6.3-2.5.5-2.6.6-2.5.8-2.5.8-2.4 1-2.5 1.1-2.3 1.3-2.2 1.3-2.3 1.5-2.1L438 39l1.7-2 1.8-1.8 1.9-1.8 1.9-1.7 2.1-1.5 2.1-1.5 2.3-1.4 2.3-1.2 2.2-1.1 2.5-1 2.4-.9 2.5-.7 2.5-.6 2.6-.5 2.5-.3 2.6-.2 2.6-.1 2.6.1 2.6.2 2.5.3 2.6.5 2.5.6 2.5.7 2.4.9 2.5 1 2.3 1.1 2.3 1.2 2.2 1.4 2.1 1.5 2.1 1.5 2 1.7 1.8 1.8 1.8 1.8 1.7 2 1.5 2.1 1.5 2.1 1.4 2.3 1.2 2.2 1.1 2.3 1 2.5.9 2.4.7 2.5.6 2.5.5 2.6.3 2.5.2 2.6.1 2.6h-.1v2.6l-.3 2.6-.3 2.5-.4 2.6-.6 2.5-.8 2.5-.8 2.4-1 2.4-1.1 2.4-1.3 2.3-1.3 2.2-1.5 2.1-1.6 2-1.6 2-1.8 1.9-1.9 1.7-2 1.7-2.1 1.6-2.1 1.5-2.1 1.4-2.3 1.2-2.4 1.1-2.4 1-2.4.9-2.5.7-2.5.6-2.6.5-2.5.3-2.6.2-2.6.1v-.1l-2.6-.1-2.6-.2-2.5-.3-2.6-.4-2.5-.7-2.5-.7-2.4-.9-2.4-1-2.3-1-2.3-1.3-2.3-1.3-2.1-1.5-2-1.6-2-1.7-1.9-1.7-1.7-1.9-1.7-2-1.6-2.1-1.5-2.1-1.3-2.1-1.3-2.3-1.1-2.4-1-2.4-.8-2.4-.8-2.5-.6-2.5-.5-2.6-.3-2.5-.2-2.6-.1-2.6z" fill="none" stroke="#455f7b" stroke-width="9.166" stroke-linejoin="round"/><path d="M219.9 242.4v0l.1-2.6.2-2.6.3-2.5.5-2.6.6-2.6.8-2.4.8-2.4 1-2.5 1.1-2.3 1.3-2.3 1.3-2.2 1.5-2.1 1.5-2.1 1.7-2 1.8-1.8 1.9-1.8 2-1.7 2-1.5 2.2-1.5 2.2-1.4 2.3-1.2 2.3-1.1 2.4-1 2.4-.9 2.5-.7 2.5-.6 2.6-.5 2.5-.3 2.6-.2 2.6-.1 2.6.1 2.6.2 2.5.3 2.6.5 2.6.6 2.4.7 2.4.9 2.5 1 2.3 1.1 2.3 1.2 2.2 1.4 2.1 1.5 2.1 1.5 2 1.7 1.8 1.8 1.8 1.8 1.7 2 1.6 2.1 1.4 2.1 1.4 2.2 1.2 2.3 1.1 2.3 1 2.5.9 2.4.7 2.4.7 2.6.4 2.6.3 2.5.2 2.6.1 2.6h-.1v2.6l-.3 2.6-.3 2.5-.4 2.6-.6 2.5-.8 2.5-.8 2.4-1 2.4-1.1 2.3-1.3 2.3-1.3 2.2-1.5 2.2-1.6 2-1.6 2-1.8 1.9-1.9 1.7-2 1.7-2 1.6-2.2 1.5-2.1 1.3-2.3 1.3-2.4 1.1-2.4 1-2.4.8-2.4.8-2.6.6-2.6.5-2.5.3-2.6.2-2.6.1v-.1l-2.6-.1-2.6-.2-2.5-.3-2.6-.5-2.5-.6-2.5-.7-2.4-.9-2.4-1-2.3-1-2.3-1.3-2.2-1.3-2.2-1.6-2-1.5-2-1.7-1.9-1.7-1.7-1.9-1.7-2-1.6-2.1-1.5-2.1-1.3-2.2-1.3-2.3-1.1-2.3-1-2.4-.8-2.4-.8-2.5-.6-2.5-.5-2.6-.3-2.5-.2-2.6-.1-2.6zm212.4.4v0l.1-2.6.2-2.6.3-2.6.5-2.5.6-2.6.7-2.4.9-2.5 1-2.4 1.1-2.3 1.2-2.3 1.4-2.2 1.5-2.1 1.5-2.1 1.7-2 1.8-1.8 1.8-1.9 2-1.6 2.1-1.6 2.1-1.4 2.2-1.4 2.3-1.2 2.3-1.2 2.5-1 2.4-.8 2.5-.8 2.5-.6 2.6-.4 2.5-.3 2.6-.3h5.2l2.6.3 2.5.3 2.6.4 2.5.6 2.5.8 2.4.8 2.5 1 2.2 1.2 2.3 1.2 2.3 1.4 2.1 1.4 2.1 1.6 1.9 1.6 1.9 1.9 1.8 1.8 1.7 2 1.5 2.1 1.5 2.1 1.3 2.2 1.3 2.3 1.1 2.3 1 2.4.8 2.5.8 2.4.6 2.6.5 2.5.3 2.6.2 2.6.1 2.6h-.1l-.1 2.6-.2 2.6-.3 2.5-.5 2.6-.6 2.5-.7 2.4-.9 2.5-1 2.4-1 2.3-1.3 2.3-1.3 2.2-1.6 2.2-1.5 2-1.7 1.9-1.7 1.9-1.9 1.8-2 1.7-2.1 1.6-2.1 1.4-2.2 1.4-2.3 1.2-2.3 1.2-2.4 1-2.4.8-2.5.8-2.5.6-2.6.5-2.5.3-2.6.2-2.6.1v-.1l-2.6-.1-2.6-.2-2.5-.3-2.6-.5-2.5-.6-2.5-.8-2.4-.8-2.4-1-2.4-1.1-2.3-1.3-2.2-1.3-2.1-1.5-2-1.5-2-1.7-1.9-1.8-1.8-1.9-1.6-1.9-1.6-2.1-1.5-2.1-1.4-2.2-1.2-2.3-1.1-2.3-1-2.4-.9-2.5-.7-2.4-.6-2.5-.5-2.6-.3-2.5-.2-2.6-.1-2.6zm207.9-.7v0l.1-2.6.2-2.6.3-2.5.5-2.6.6-2.6.8-2.4.8-2.4 1-2.5 1.1-2.3 1.3-2.3 1.3-2.2 1.5-2.1 1.5-2.1 1.7-2 1.8-1.8 1.9-1.8 1.9-1.7 2.1-1.6 2.1-1.4 2.3-1.4 2.3-1.2 2.2-1.1 2.5-1 2.4-.9 2.5-.7 2.5-.7 2.6-.4 2.5-.3 2.6-.2 2.6-.1 2.6.1 2.6.2 2.5.3 2.6.4 2.5.7 2.5.7 2.4.9 2.5 1 2.3 1.1 2.3 1.2 2.2 1.4 2.1 1.4 2.1 1.6 2 1.7 1.8 1.8 1.8 1.8 1.7 2 1.5 2.1 1.5 2.1 1.4 2.2 1.2 2.3 1.1 2.3 1 2.5.9 2.4.7 2.4.6 2.6.5 2.6.3 2.5.2 2.6.1 2.6h-.1v2.6l-.3 2.6-.3 2.5-.4 2.6-.6 2.5-.8 2.5-.8 2.4-1 2.4-1.1 2.3-1.3 2.3-1.3 2.2-1.5 2.2-1.6 2-1.6 2-1.8 1.9-1.9 1.7-2 1.7-2.1 1.6-2.1 1.5-2.1 1.3-2.3 1.3-2.4 1.1-2.4 1-2.4.8-2.5.8-2.5.6-2.6.5-2.5.3-2.6.2-2.6.1v-.1l-2.6-.1-2.6-.2-2.5-.3-2.6-.5-2.5-.6-2.5-.7-2.4-.9-2.4-1-2.3-1-2.3-1.3-2.3-1.3-2.1-1.6-2-1.5-2-1.7-1.9-1.7-1.7-1.9-1.7-2-1.6-2.1-1.5-2.1-1.3-2.2-1.3-2.3-1.1-2.3-1-2.4-.8-2.4-.8-2.5-.6-2.5-.5-2.6-.3-2.5-.2-2.6-.1-2.6z" fill="none" stroke="#3a5f8b" stroke-width="9.166" stroke-linejoin="round"/><path d="M700.9 153.2H265.1m548.1 403.1l-36.4.3m-12.1.1l-36.5.4m-12.1.2l-36.5.3m-12.1.1l-36.5.4m-12.1.1l-36.4.4m-12.2.1l-36.4.4m-12.2.1l-36.4.3m-12.1.2l-36.5.3m-12.1.2l-36.5.3m-12.1.1l-36.5.4m-12.1.2l-36.4.3m-12.2.1l-36.4.4m-12.2.1l-36.4.4m-12.1.1l-36.5.3m-12.1.2l-36.5.3m-12.1.1l-36.4.4m-12.1.2l-32.4.3m264.9-371.2l.1-41.6m428.8 43.3l.1-41.7m-217 41.7l.1-79" class="g2"/><path fill-rule="evenodd" d="M700.5 406.6H594.1V299.7h212.8v106.9H700.5zM487.6 406.6H381.2V299.7H594v106.9H487.6z" class="g3"/><path fill-rule="evenodd" d="M274.8 406.5H168.4V299.6h212.8v106.9H274.8z" class="g3"/><path fill-rule="evenodd" d="M90.5 348.6h59.1v-12.3l24.5 24.5-24.5 24.5V373H90.5v-24.4z" class="g4"/><path fill-rule="evenodd" d="M77.2 384.2H3.9v-46.9h146.6v46.9H77.2zM89.6 499.5h59.1v-12.2l24.5 24.4-24.5 24.6V524H89.6v-24.5z" class="g4"/><path fill-rule="evenodd" d="M76.5 535.3H3.1v-46.9h146.6v46.9H76.5zM88.8 630.1h59.1v-12.2l24.5 24.5-24.5 24.5v-12.3H88.8v-24.5z" class="g4"/><path fill-rule="evenodd" d="M75.5 665.7H2.2v-46.8h146.6v46.8H75.5z" class="g4"/><path fill-rule="evenodd" d="M708.8 548.5H602.4v-94.7h212.8v94.7H708.8z" class="g3"/><path fill-rule="evenodd" d="M496 548.5H389.6v-94.7h212.8v94.7H496zM283.1 548.5H176.7v-94.7h212.8v94.7H283.1z" class="g3"/><path d="M284.6 445.6l.1-34.6m428.8 34.7v-32.6m-217 32.6l.1-36.6m310.5 1.7l-36.4.2m-12.2 0l-36.4.1m-12.1.1l-36.5.2m-12.1 0l-36.5.1m-12.1.1l-36.4.1m-12.2 0l-36.4.2m-12.2.1h-36.4m-12.2.1l-36.4.2m-12.1 0l-36.5.1m-12.1.1l-36.5.2m-12.1 0l-36.4.1m-12.2.1l-36.4.1m-12.2 0l-36.4.2m-12.2 0l-36.4.1m-12.1.1l-36.5.2m-12.1 0l-36.5.1m-12.1.1l-26.2.1" class="g2"/><path fill-rule="evenodd" d="M700 699.9H593.5v-107h212.9v107H700zM487.1 699.9H380.6v-107h212.9v107H487.1zM278.3 699.3H176.5V592.4h203.6v106.9H278.3zM324.3 88.6h-84.6V45.8h169.1v42.8h-84.5z" class="g3"/><path d="M324.3 88.6h-84.6V45.8h169.1v42.8h-84.5z" fill="none" stroke="#d99694" stroke-width="3.055" stroke-linejoin="round"/><path fill-rule="evenodd" d="M1011.2 398.4H815.5V314h391.3v84.4h-195.6z" fill="#e6b9b8"/><path fill-rule="evenodd" d="M1011.2 541.7H815.5v-84.5h391.3v84.5h-195.6z" fill="#c3d69b"/><path fill-rule="evenodd" d="M1001 684H794.8v-84.5h412.5V684H1001z" fill="#ccc1da"/><g fill="#455F7B"><use xlink:href="#f0_2" transform="matrix(13 0 0 13 805.9 631.9)"/><use xlink:href="#f0_4" transform="matrix(13 0 0 13 820.2 631.9)"/><use xlink:href="#f0_5" transform="matrix(13 0 0 13 826.4 631.9)"/><use xlink:href="#f0_8" transform="matrix(13 0 0 13 836.4 631.9)"/><use xlink:href="#f0_a" transform="matrix(13 0 0 13 846.5 631.9)"/><use xlink:href="#f0_b" transform="matrix(13 0 0 13 856.6 631.9)"/><use xlink:href="#f0_c" transform="matrix(13 0 0 13 872 631.9)"/><use xlink:href="#f0_d" transform="matrix(13 0 0 13 886.3 631.9)"/><use xlink:href="#f0_a" transform="matrix(13 0 0 13 896.4 631.9)"/><use xlink:href="#f0_a" transform="matrix(13 0 0 13 906.5 631.9)"/><use xlink:href="#f0_b" transform="matrix(13 0 0 13 916.5 631.9)"/><use xlink:href="#f0_f" transform="matrix(13 0 0 13 927.4 631.9)"/><use xlink:href="#f0_c" transform="matrix(13 0 0 13 938 631.9)"/><use xlink:href="#f0_g" transform="matrix(13 0 0 13 952.4 631.9)"/><use xlink:href="#f0_d" transform="matrix(13 0 0 13 962.4 631.9)"/><use xlink:href="#f0_h" transform="matrix(13 0 0 13 972.5 631.9)"/><use xlink:href="#f0_i" transform="matrix(13 0 0 13 991.4 631.9)"/><use xlink:href="#f0_4" transform="matrix(13 0 0 13 1005.8 631.9)"/><use xlink:href="#f0_d" transform="matrix(13 0 0 13 1011.9 631.9)"/><use xlink:href="#f0_8" transform="matrix(13 0 0 13 1022 631.9)"/><use xlink:href="#f0_a" transform="matrix(13 0 0 13 1032 631.9)"/><use xlink:href="#f0_b" transform="matrix(13 0 0 13 1042.1 631.9)"/><use xlink:href="#f0_c" transform="matrix(13 0 0 13 1057.5 631.9)"/><use xlink:href="#f0_g" transform="matrix(13 0 0 13 1071.9 631.9)"/><use xlink:href="#f0_8" transform="matrix(13 0 0 13 1081.9 631.9)"/><use xlink:href="#f0_a" transform="matrix(13 0 0 13 1092 631.9)"/><use xlink:href="#f0_b" transform="matrix(13 0 0 13 1102.1 631.9)"/><use xlink:href="#f0_f" transform="matrix(13 0 0 13 1112.9 631.9)"/><use xlink:href="#f0_c" transform="matrix(13 0 0 13 1119 631.9)"/><use xlink:href="#f0_g" transform="matrix(13 0 0 13 1133.5 631.9)"/><use xlink:href="#f0_d" transform="matrix(13 0 0 13 1143.6 631.9)"/><use xlink:href="#f0_h" transform="matrix(13 0 0 13 1153.5 631.9)"/><use xlink:href="#f0_2" transform="matrix(14 0 0 14 805.9 662.8)"/></g><text x="805" y="631" dx="0,0,-.1,-.1,0,0,0,.1,-.1,0,-.1,0,0,0,0,.1,-.1,0,-.1,0,0,0,-.1,0,-.1,-.1,0,0,0,.1,-.1,0,-.1,0,0,0,0,-.1,0,.1,0,-.1" font-size="19.86" font-family="Carlito-Bold_9" fill="TRANSPARENT">= (350K * 200K) * 12% + (250K * 150K)* 12%</text><g fill="#455F7B"><use xlink:href="#f0_j" transform="matrix(14 0 0 14 821.5 662.8)"/><use xlink:href="#f0_k" transform="matrix(14 0 0 14 835.4 662.8)"/><use xlink:href="#f0_l" transform="matrix(14 0 0 14 845.4 662.8)"/><use xlink:href="#f0_d" transform="matrix(14 0 0 14 863.7 662.8)"/><use xlink:href="#f0_m" transform="matrix(14 0 0 14 874.6 662.8)"/><use xlink:href="#f0_a" transform="matrix(14 0 0 14 885.4 662.8)"/><use xlink:href="#f0_a" transform="matrix(14 0 0 14 896.2 662.8)"/><use xlink:href="#f0_a" transform="matrix(14 0 0 14 907 662.8)"/><use xlink:href="#f0_2" transform="matrix(14 0 0 14 826.7 347.9)"/></g><text x="805" y="662" dx="0,0,0,0,0,.1,-.1,0,0,0,0" class="s2">= USD 24000</text><g fill="#455F7B"><use xlink:href="#f0_4" transform="matrix(14 0 0 14 842.2 347.9)"/><use xlink:href="#f0_g" transform="matrix(14 0 0 14 848.8 347.9)"/><use xlink:href="#f0_a" transform="matrix(14 0 0 14 859.6 347.9)"/><use xlink:href="#f0_a" transform="matrix(14 0 0 14 870.4 347.9)"/><use xlink:href="#f0_b" transform="matrix(14 0 0 14 881.3 347.9)"/><use xlink:href="#f0_c" transform="matrix(14 0 0 14 897.7 347.9)"/><use xlink:href="#f0_g" transform="matrix(14 0 0 14 913.3 347.9)"/><use xlink:href="#f0_d" transform="matrix(14 0 0 14 924.1 347.9)"/><use xlink:href="#f0_h" transform="matrix(14 0 0 14 934.9 347.9)"/><use xlink:href="#f0_f" transform="matrix(14 0 0 14 950.4 347.9)"/><use xlink:href="#f0_i" transform="matrix(14 0 0 14 961.9 347.9)"/><use xlink:href="#f0_4" transform="matrix(14 0 0 14 977.3 347.9)"/><use xlink:href="#f0_d" transform="matrix(14 0 0 14 984 347.9)"/><use xlink:href="#f0_a" transform="matrix(14 0 0 14 994.8 347.9)"/><use xlink:href="#f0_b" transform="matrix(14 0 0 14 1005.5 347.9)"/><use xlink:href="#f0_c" transform="matrix(14 0 0 14 1022.2 347.9)"/><use xlink:href="#f0_g" transform="matrix(14 0 0 14 1037.6 347.9)"/><use xlink:href="#f0_d" transform="matrix(14 0 0 14 1048.4 347.9)"/><use xlink:href="#f0_h" transform="matrix(14 0 0 14 1059.2 347.9)"/><use xlink:href="#f0_f" transform="matrix(14 0 0 14 1074.8 347.9)"/><use xlink:href="#f0_2" transform="matrix(14 0 0 14 826.7 379.5)"/></g><text x="826" y="347" dx="0,0,0,-.1,0,0,0,.1,-.1,0,0,0,0,-.2,0,0,0,-.1,0,0,-.1,.1,0,0,-.1,0,0,0" class="s2">= (100K * 12%) + (20K * 12%)</text><g fill="#455F7B"><use xlink:href="#f0_j" transform="matrix(14 0 0 14 842.2 379.5)"/><use xlink:href="#f0_k" transform="matrix(14 0 0 14 856.1 379.5)"/><use xlink:href="#f0_l" transform="matrix(14 0 0 14 866.2 379.5)"/><use xlink:href="#f0_g" transform="matrix(14 0 0 14 884.5 379.5)"/><use xlink:href="#f0_o" transform="matrix(14 0 0 14 895.3 379.5)"/><use xlink:href="#f0_a" transform="matrix(14 0 0 14 906.2 379.5)"/><use xlink:href="#f0_a" transform="matrix(14 0 0 14 917 379.5)"/><use xlink:href="#f0_a" transform="matrix(14 0 0 14 927.8 379.5)"/><use xlink:href="#f0_2" transform="matrix(14 0 0 14 826.7 491.2)"/></g><text x="826" y="379" dx="0,0,0,0,0,.1,-.1,0,0,0,0" class="s2">= USD 18000</text><g fill="#455F7B"><use xlink:href="#f0_4" transform="matrix(14 0 0 14 842.2 491.2)"/><use xlink:href="#f0_d" transform="matrix(14 0 0 14 848.8 491.2)"/><use xlink:href="#f0_a" transform="matrix(14 0 0 14 859.6 491.2)"/><use xlink:href="#f0_a" transform="matrix(14 0 0 14 870.4 491.2)"/><use xlink:href="#f0_b" transform="matrix(14 0 0 14 881.3 491.2)"/><use xlink:href="#f0_p" transform="matrix(14 0 0 14 897.7 491.2)"/><use xlink:href="#f0_g" transform="matrix(14 0 0 14 909.2 491.2)"/><use xlink:href="#f0_a" transform="matrix(14 0 0 14 920 491.2)"/><use xlink:href="#f0_a" transform="matrix(14 0 0 14 930.8 491.2)"/><use xlink:href="#f0_b" transform="matrix(14 0 0 14 941.5 491.2)"/><use xlink:href="#f0_f" transform="matrix(14 0 0 14 953.2 491.2)"/><use xlink:href="#f0_c" transform="matrix(14 0 0 14 964.7 491.2)"/><use xlink:href="#f0_g" transform="matrix(14 0 0 14 980.2 491.2)"/><use xlink:href="#f0_d" transform="matrix(14 0 0 14 991 491.2)"/><use xlink:href="#f0_h" transform="matrix(14 0 0 14 1001.9 491.2)"/><use xlink:href="#f0_i" transform="matrix(14 0 0 14 1022.2 491.2)"/><use xlink:href="#f0_4" transform="matrix(14 0 0 14 1037.7 491.2)"/><use xlink:href="#f0_g" transform="matrix(14 0 0 14 1044.3 491.2)"/><use xlink:href="#f0_8" transform="matrix(14 0 0 14 1055.1 491.2)"/><use xlink:href="#f0_a" transform="matrix(14 0 0 14 1065.9 491.2)"/><use xlink:href="#f0_b" transform="matrix(14 0 0 14 1076.8 491.2)"/><use xlink:href="#f0_c" transform="matrix(14 0 0 14 1093.2 491.2)"/><use xlink:href="#f0_8" transform="matrix(14 0 0 14 1108.8 491.2)"/><use xlink:href="#f0_a" transform="matrix(14 0 0 14 1119.6 491.2)"/><use xlink:href="#f0_b" transform="matrix(14 0 0 14 1130.3 491.2)"/><use xlink:href="#f0_f" transform="matrix(14 0 0 14 1142 491.2)"/><use xlink:href="#f0_c" transform="matrix(14 0 0 14 1153.5 491.2)"/><use xlink:href="#f0_g" transform="matrix(14 0 0 14 1169 491.2)"/><use xlink:href="#f0_d" transform="matrix(14 0 0 14 1179.8 491.2)"/><use xlink:href="#f0_h" transform="matrix(14 0 0 14 1190.7 491.2)"/><use xlink:href="#f0_2" transform="matrix(14 0 0 14 826.7 528.8)"/></g><text x="826" y="491" dx="0,0,0,-.1,0,0,0,.1,-.1,0,0,0,0,-.1,.1,0,-.1,0,0,0,0,0,-.1,0,0,-.1,0,0,0,.1,-.1,0,0,0,-.1,.1,0,-.1,0,0,0,0" class="s2">= (200K - 100K) * 12% + (150K * 50K) * 12%</text><g fill="#455F7B"><use xlink:href="#f0_j" transform="matrix(14 0 0 14 842.2 528.8)"/><use xlink:href="#f0_k" transform="matrix(14 0 0 14 856.1 528.8)"/><use xlink:href="#f0_l" transform="matrix(14 0 0 14 866.2 528.8)"/><use xlink:href="#f0_d" transform="matrix(14 0 0 14 884.5 528.8)"/><use xlink:href="#f0_m" transform="matrix(14 0 0 14 895.3 528.8)"/><use xlink:href="#f0_a" transform="matrix(14 0 0 14 906.2 528.8)"/><use xlink:href="#f0_a" transform="matrix(14 0 0 14 917 528.8)"/><use xlink:href="#f0_a" transform="matrix(14 0 0 14 927.8 528.8)"/><use xlink:href="#f0_5" transform="matrix(15 0 0 15 255.6 620.1)"/></g><text x="826" y="528" dx="0,0,0,0,0,.1,-.1,0,0,0,0" class="s2">= USD 24000</text><g fill="#455F7B"><use xlink:href="#f0_8" transform="matrix(15 0 0 15 267.2 620.1)"/><use xlink:href="#f0_a" transform="matrix(15 0 0 15 278.8 620.1)"/><use xlink:href="#f0_q" transform="matrix(15 0 0 15 290.4 620.1)"/><use xlink:href="#f0_r" transform="matrix(15 0 0 15 193.3 648.1)"/></g><text x="255" y="620" class="s3">350k</text><g fill="#455F7B"><use xlink:href="#f0_s" transform="matrix(15 0 0 15 207 648.1)"/><use xlink:href="#f0_s" transform="matrix(15 0 0 15 216.6 648.1)"/><use xlink:href="#f0_t" transform="matrix(15 0 0 15 226.2 648.1)"/><use xlink:href="#f0_u" transform="matrix(15 0 0 15 238.4 648.1)"/><use xlink:href="#f0_t" transform="matrix(15 0 0 15 257.1 648.1)"/><use xlink:href="#f0_v" transform="matrix(15 0 0 15 269.3 648.1)"/><use xlink:href="#f0_w" transform="matrix(15 0 0 15 274.9 648.1)"/><use xlink:href="#f0_x" transform="matrix(15 0 0 15 286.2 648.1)"/><use xlink:href="#f0_y" transform="matrix(15 0 0 15 294.1 648.1)"/><use xlink:href="#f0_z" transform="matrix(15 0 0 15 305.7 648.1)"/><use xlink:href="#f0_10" transform="matrix(15 0 0 15 323.3 648.1)"/><use xlink:href="#f0_11" transform="matrix(15 0 0 15 337.9 648.1)"/><use xlink:href="#f0_12" transform="matrix(15 0 0 15 350 648.1)"/><use xlink:href="#f0_13" transform="matrix(15 0 0 15 216.6 676)"/></g><text x="193" y="648" dx="0,-.1,0,0,-.1,0,-.1,0,0,0,.1,.1,0,0,-.1" class="s3">Accumulated GPV</text><g fill="#455F7B"><use xlink:href="#f0_14" transform="matrix(15 0 0 15 229.5 676)"/><use xlink:href="#f0_15" transform="matrix(15 0 0 15 241.8 676)"/><use xlink:href="#f0_t" transform="matrix(15 0 0 15 254 676)"/><use xlink:href="#f0_16" transform="matrix(15 0 0 15 266.3 676)"/><use xlink:href="#f0_10" transform="matrix(15 0 0 15 280.7 676)"/><use xlink:href="#f0_17" transform="matrix(15 0 0 15 295.4 676)"/><use xlink:href="#f0_14" transform="matrix(15 0 0 15 303.3 676)"/><use xlink:href="#f0_t" transform="matrix(15 0 0 15 315.7 676)"/><use xlink:href="#f0_18" transform="matrix(15 0 0 15 327.9 676)"/></g><text x="216" y="676" dx="0,0,0,-.1,-.1,.2,0,0,-.2,0,-.1" class="s3">Bonus Group</text><g fill="#FFF"><use xlink:href="#f0_5" transform="matrix(18 0 0 18 23.7 651.3)"/><use xlink:href="#f0_17" transform="matrix(18 0 0 18 37.6 651.3)"/><use xlink:href="#f0_z" transform="matrix(18 0 0 18 47.3 651.3)"/><use xlink:href="#f0_19" transform="matrix(18 0 0 18 68.2 651.3)"/><use xlink:href="#f0_y" transform="matrix(18 0 0 18 93.2 651.3)"/><use xlink:href="#f0_y" transform="matrix(18 0 0 18 107 651.3)"/><use xlink:href="#f0_q" transform="matrix(18 0 0 18 120.9 651.3)"/></g><use xlink:href="#f0_m" transform="matrix(15 0 0 15 464.4 620.7)" fill="#C0504D"/><text x="23" y="651" dx="0,0,0,.1,-.1,0,.1,.1" class="s4">3rd Week</text><g fill="#C0504D"><use xlink:href="#f0_a" transform="matrix(15 0 0 15 476 620.7)"/><use xlink:href="#f0_a" transform="matrix(15 0 0 15 487.6 620.7)"/><use xlink:href="#f0_q" transform="matrix(15 0 0 15 499.2 620.7)"/><use xlink:href="#f0_r" transform="matrix(15 0 0 15 402 648.7)"/></g><text x="464" y="620" class="s3">400k</text><g fill="#C0504D"><use xlink:href="#f0_s" transform="matrix(15 0 0 15 415.8 648.7)"/><use xlink:href="#f0_s" transform="matrix(15 0 0 15 425.4 648.7)"/><use xlink:href="#f0_t" transform="matrix(15 0 0 15 435.1 648.7)"/><use xlink:href="#f0_u" transform="matrix(15 0 0 15 447.3 648.7)"/><use xlink:href="#f0_t" transform="matrix(15 0 0 15 465.9 648.7)"/><use xlink:href="#f0_v" transform="matrix(15 0 0 15 478.1 648.7)"/><use xlink:href="#f0_w" transform="matrix(15 0 0 15 483.7 648.7)"/><use xlink:href="#f0_x" transform="matrix(15 0 0 15 495 648.7)"/><use xlink:href="#f0_y" transform="matrix(15 0 0 15 503 648.7)"/><use xlink:href="#f0_z" transform="matrix(15 0 0 15 514.6 648.7)"/><use xlink:href="#f0_10" transform="matrix(15 0 0 15 532.1 648.7)"/><use xlink:href="#f0_11" transform="matrix(15 0 0 15 546.6 648.7)"/><use xlink:href="#f0_12" transform="matrix(15 0 0 15 558.8 648.7)"/><use xlink:href="#f0_k" transform="matrix(15 0 0 15 419.2 676.7)"/></g><text x="401" y="648" dx="0,0,0,0,-.1,0,-.1,0,0,0,.1,.1,0,-.1,0" class="s3">Accumulated GPV</text><g fill="#C0504D"><use xlink:href="#f0_1a" transform="matrix(15 0 0 15 430 676.7)"/><use xlink:href="#f0_w" transform="matrix(15 0 0 15 442.3 676.7)"/><use xlink:href="#f0_17" transform="matrix(15 0 0 15 453.6 676.7)"/><use xlink:href="#f0_1b" transform="matrix(15 0 0 15 461.6 676.7)"/><use xlink:href="#f0_15" transform="matrix(15 0 0 15 467.3 676.7)"/><use xlink:href="#f0_1e" transform="matrix(15 0 0 15 479.5 676.7)"/><use xlink:href="#f0_10" transform="matrix(15 0 0 15 495.6 676.7)"/><use xlink:href="#f0_17" transform="matrix(15 0 0 15 510.3 676.7)"/><use xlink:href="#f0_14" transform="matrix(15 0 0 15 518.4 676.7)"/><use xlink:href="#f0_t" transform="matrix(15 0 0 15 530.7 676.7)"/><use xlink:href="#f0_18" transform="matrix(15 0 0 15 542.9 676.7)"/></g><use xlink:href="#f0_d" transform="matrix(15 0 0 15 677.3 620.7)" fill="#455F7B"/><text x="419" y="676" dx="0,0,-.1,0,0,0,-.1,.1,0,0,0,0,-.1" class="s3">Sharing Group</text><g fill="#455F7B"><use xlink:href="#f0_8" transform="matrix(15 0 0 15 688.9 620.7)"/><use xlink:href="#f0_a" transform="matrix(15 0 0 15 700.5 620.7)"/><use xlink:href="#f0_q" transform="matrix(15 0 0 15 712.1 620.7)"/><use xlink:href="#f0_r" transform="matrix(15 0 0 15 614.9 648.7)"/></g><text x="677" y="620" class="s3">250k</text><g fill="#455F7B"><use xlink:href="#f0_s" transform="matrix(15 0 0 15 628.7 648.7)"/><use xlink:href="#f0_s" transform="matrix(15 0 0 15 638.3 648.7)"/><use xlink:href="#f0_t" transform="matrix(15 0 0 15 647.9 648.7)"/><use xlink:href="#f0_u" transform="matrix(15 0 0 15 660.1 648.7)"/><use xlink:href="#f0_t" transform="matrix(15 0 0 15 678.7 648.7)"/><use xlink:href="#f0_v" transform="matrix(15 0 0 15 690.9 648.7)"/><use xlink:href="#f0_w" transform="matrix(15 0 0 15 696.6 648.7)"/><use xlink:href="#f0_x" transform="matrix(15 0 0 15 707.9 648.7)"/><use xlink:href="#f0_y" transform="matrix(15 0 0 15 715.8 648.7)"/><use xlink:href="#f0_z" transform="matrix(15 0 0 15 727.4 648.7)"/><use xlink:href="#f0_10" transform="matrix(15 0 0 15 744.9 648.7)"/><use xlink:href="#f0_11" transform="matrix(15 0 0 15 759.6 648.7)"/><use xlink:href="#f0_12" transform="matrix(15 0 0 15 771.7 648.7)"/><use xlink:href="#f0_13" transform="matrix(15 0 0 15 638.3 676.7)"/></g><text x="614" y="648" dx="0,-.1,0,0,-.1,0,-.1,0,0,0,.1,.1,0,0,-.1" class="s3">Accumulated GPV</text><g fill="#455F7B"><use xlink:href="#f0_14" transform="matrix(15 0 0 15 651.1 676.7)"/><use xlink:href="#f0_15" transform="matrix(15 0 0 15 663.5 676.7)"/><use xlink:href="#f0_t" transform="matrix(15 0 0 15 675.7 676.7)"/><use xlink:href="#f0_16" transform="matrix(15 0 0 15 687.9 676.7)"/><use xlink:href="#f0_10" transform="matrix(15 0 0 15 702.4 676.7)"/><use xlink:href="#f0_17" transform="matrix(15 0 0 15 717 676.7)"/><use xlink:href="#f0_14" transform="matrix(15 0 0 15 725 676.7)"/><use xlink:href="#f0_t" transform="matrix(15 0 0 15 737.4 676.7)"/><use xlink:href="#f0_18" transform="matrix(15 0 0 15 749.6 676.7)"/></g><g clip-path="url(#c0)"><use xlink:href="#f0_1f" transform="matrix(28 0 0 28 680.8 260.2)" fill="#455F7B"/></g><text x="638" y="676" dx="0,0,0,-.1,-.1,.2,0,0,-.2,0,-.1" class="s3">Bonus Group</text><g clip-path="url(#c1)"><use xlink:href="#f0_13" transform="matrix(28 0 0 28 471.5 262.5)" fill="#455F7B"/></g><text x="680" y="260" class="s5">C</text><g clip-path="url(#c2)"><use xlink:href="#f0_r" transform="matrix(28 0 0 28 258.3 261.1)" fill="#455F7B"/></g><use xlink:href="#f0_1g" transform="matrix(20 0 0 20 448.4 85.1)" fill="#455F7B"/><text x="471" y="262" class="s5">B</text><text x="258" y="261" class="s5">A</text><g fill="#455F7B"><use xlink:href="#f0_1h" transform="matrix(20 0 0 20 464.3 85.1)"/><use xlink:href="#f0_j" transform="matrix(20 0 0 20 484.9 85.1)"/><use xlink:href="#f0_g" transform="matrix(15 0 0 15 464.9 327.4)"/></g><text x="448" y="85" font-size="30.56" font-family="Carlito-Bold_9" fill="TRANSPARENT">YOU</text><g fill="#455F7B"><use xlink:href="#f0_a" transform="matrix(15 0 0 15 476.5 327.4)"/><use xlink:href="#f0_a" transform="matrix(15 0 0 15 488.1 327.4)"/><use xlink:href="#f0_q" transform="matrix(15 0 0 15 499.7 327.4)"/><use xlink:href="#f0_r" transform="matrix(15 0 0 15 402.6 355.4)"/></g><text x="464" y="327" class="s3">100k</text><g fill="#455F7B"><use xlink:href="#f0_s" transform="matrix(15 0 0 15 416.3 355.4)"/><use xlink:href="#f0_s" transform="matrix(15 0 0 15 425.9 355.4)"/><use xlink:href="#f0_t" transform="matrix(15 0 0 15 435.5 355.4)"/><use xlink:href="#f0_u" transform="matrix(15 0 0 15 447.7 355.4)"/><use xlink:href="#f0_t" transform="matrix(15 0 0 15 466.4 355.4)"/><use xlink:href="#f0_v" transform="matrix(15 0 0 15 478.6 355.4)"/><use xlink:href="#f0_w" transform="matrix(15 0 0 15 484.2 355.4)"/><use xlink:href="#f0_x" transform="matrix(15 0 0 15 495.5 355.4)"/><use xlink:href="#f0_y" transform="matrix(15 0 0 15 503.4 355.4)"/><use xlink:href="#f0_z" transform="matrix(15 0 0 15 515 355.4)"/><use xlink:href="#f0_10" transform="matrix(15 0 0 15 532.6 355.4)"/><use xlink:href="#f0_11" transform="matrix(15 0 0 15 547.2 355.4)"/><use xlink:href="#f0_12" transform="matrix(15 0 0 15 559.3 355.4)"/><use xlink:href="#f0_13" transform="matrix(15 0 0 15 425.9 383.3)"/></g><text x="402" y="355" dx="0,-.1,0,0,-.1,0,-.1,0,0,0,.1,.1,0,0,-.1" class="s3">Accumulated GPV</text><g fill="#455F7B"><use xlink:href="#f0_14" transform="matrix(15 0 0 15 438.8 383.3)"/><use xlink:href="#f0_15" transform="matrix(15 0 0 15 451.1 383.3)"/><use xlink:href="#f0_t" transform="matrix(15 0 0 15 463.3 383.3)"/><use xlink:href="#f0_16" transform="matrix(15 0 0 15 475.6 383.3)"/><use xlink:href="#f0_10" transform="matrix(15 0 0 15 490 383.3)"/><use xlink:href="#f0_17" transform="matrix(15 0 0 15 504.7 383.3)"/><use xlink:href="#f0_14" transform="matrix(15 0 0 15 512.6 383.3)"/><use xlink:href="#f0_t" transform="matrix(15 0 0 15 525 383.3)"/><use xlink:href="#f0_18" transform="matrix(15 0 0 15 537.2 383.3)"/><use xlink:href="#f0_8" transform="matrix(15 0 0 15 683.7 327.4)"/></g><text x="425" y="383" dx="0,0,0,-.1,-.1,.2,0,0,-.2,0,-.1" class="s3">Bonus Group</text><g fill="#455F7B"><use xlink:href="#f0_a" transform="matrix(15 0 0 15 695.3 327.4)"/><use xlink:href="#f0_q" transform="matrix(15 0 0 15 706.9 327.4)"/><use xlink:href="#f0_r" transform="matrix(15 0 0 15 615.4 355.4)"/></g><text x="683" y="327" class="s3">50k</text><g fill="#455F7B"><use xlink:href="#f0_s" transform="matrix(15 0 0 15 629.3 355.4)"/><use xlink:href="#f0_s" transform="matrix(15 0 0 15 638.9 355.4)"/><use xlink:href="#f0_t" transform="matrix(15 0 0 15 648.5 355.4)"/><use xlink:href="#f0_u" transform="matrix(15 0 0 15 660.7 355.4)"/><use xlink:href="#f0_t" transform="matrix(15 0 0 15 679.3 355.4)"/><use xlink:href="#f0_v" transform="matrix(15 0 0 15 691.5 355.4)"/><use xlink:href="#f0_w" transform="matrix(15 0 0 15 697.2 355.4)"/><use xlink:href="#f0_x" transform="matrix(15 0 0 15 708.5 355.4)"/><use xlink:href="#f0_y" transform="matrix(15 0 0 15 716.4 355.4)"/><use xlink:href="#f0_z" transform="matrix(15 0 0 15 728 355.4)"/><use xlink:href="#f0_10" transform="matrix(15 0 0 15 745.5 355.4)"/><use xlink:href="#f0_11" transform="matrix(15 0 0 15 760 355.4)"/><use xlink:href="#f0_12" transform="matrix(15 0 0 15 772.2 355.4)"/><use xlink:href="#f0_13" transform="matrix(15 0 0 15 638.9 383.3)"/></g><text x="615" y="355" dx="0,0,0,0,-.1,0,-.1,0,0,0,.1,.1,0,-.1,0" class="s3">Accumulated GPV</text><g fill="#455F7B"><use xlink:href="#f0_14" transform="matrix(15 0 0 15 651.8 383.3)"/><use xlink:href="#f0_15" transform="matrix(15 0 0 15 664.1 383.3)"/><use xlink:href="#f0_t" transform="matrix(15 0 0 15 676.3 383.3)"/><use xlink:href="#f0_16" transform="matrix(15 0 0 15 688.5 383.3)"/><use xlink:href="#f0_10" transform="matrix(15 0 0 15 702.9 383.3)"/><use xlink:href="#f0_17" transform="matrix(15 0 0 15 717.5 383.3)"/><use xlink:href="#f0_14" transform="matrix(15 0 0 15 725.6 383.3)"/><use xlink:href="#f0_t" transform="matrix(15 0 0 15 737.9 383.3)"/><use xlink:href="#f0_18" transform="matrix(15 0 0 15 750.2 383.3)"/></g><use xlink:href="#f0_g" transform="matrix(15 0 0 15 252.1 327.4)" fill="#C0504D"/><text x="638" y="383" dx="0,0,0,-.1,-.1,0,0,0,0,0,-.1" class="s3">Bonus Group</text><g fill="#C0504D"><use xlink:href="#f0_8" transform="matrix(15 0 0 15 263.7 327.4)"/><use xlink:href="#f0_a" transform="matrix(15 0 0 15 275.3 327.4)"/><use xlink:href="#f0_q" transform="matrix(15 0 0 15 286.9 327.4)"/><use xlink:href="#f0_r" transform="matrix(15 0 0 15 189.8 355.4)"/></g><text x="252" y="327" class="s3">150k</text><g fill="#C0504D"><use xlink:href="#f0_s" transform="matrix(15 0 0 15 203.5 355.4)"/><use xlink:href="#f0_s" transform="matrix(15 0 0 15 213.1 355.4)"/><use xlink:href="#f0_t" transform="matrix(15 0 0 15 222.7 355.4)"/><use xlink:href="#f0_u" transform="matrix(15 0 0 15 234.9 355.4)"/><use xlink:href="#f0_t" transform="matrix(15 0 0 15 253.6 355.4)"/><use xlink:href="#f0_v" transform="matrix(15 0 0 15 265.8 355.4)"/><use xlink:href="#f0_w" transform="matrix(15 0 0 15 271.4 355.4)"/><use xlink:href="#f0_x" transform="matrix(15 0 0 15 282.7 355.4)"/><use xlink:href="#f0_y" transform="matrix(15 0 0 15 290.6 355.4)"/><use xlink:href="#f0_z" transform="matrix(15 0 0 15 302.2 355.4)"/><use xlink:href="#f0_10" transform="matrix(15 0 0 15 319.8 355.4)"/><use xlink:href="#f0_11" transform="matrix(15 0 0 15 334.4 355.4)"/><use xlink:href="#f0_12" transform="matrix(15 0 0 15 346.5 355.4)"/><use xlink:href="#f0_k" transform="matrix(15 0 0 15 206.9 383.3)"/></g><text x="189" y="355" dx="0,-.1,0,0,-.1,0,-.1,0,0,0,.1,.1,0,0,-.1" class="s3">Accumulated GPV</text><g fill="#C0504D"><use xlink:href="#f0_1a" transform="matrix(15 0 0 15 217.7 383.3)"/><use xlink:href="#f0_w" transform="matrix(15 0 0 15 229.9 383.3)"/><use xlink:href="#f0_17" transform="matrix(15 0 0 15 241.2 383.3)"/><use xlink:href="#f0_1b" transform="matrix(15 0 0 15 249.3 383.3)"/><use xlink:href="#f0_15" transform="matrix(15 0 0 15 254.9 383.3)"/><use xlink:href="#f0_1e" transform="matrix(15 0 0 15 267.1 383.3)"/><use xlink:href="#f0_10" transform="matrix(15 0 0 15 283.3 383.3)"/><use xlink:href="#f0_17" transform="matrix(15 0 0 15 298 383.3)"/><use xlink:href="#f0_14" transform="matrix(15 0 0 15 306 383.3)"/><use xlink:href="#f0_t" transform="matrix(15 0 0 15 318.4 383.3)"/><use xlink:href="#f0_18" transform="matrix(15 0 0 15 330.6 383.3)"/></g><text x="206" y="383" dx="0,0,-.1,0,0,0,-.1,.3,-.1,0,0,0,-.1" class="s3">Sharing Group</text><g fill="#FFF"><use xlink:href="#f0_g" transform="matrix(18 0 0 18 27.3 369.7)"/><use xlink:href="#f0_16" transform="matrix(18 0 0 18 41.3 369.7)"/><use xlink:href="#f0_x" transform="matrix(18 0 0 18 52.2 369.7)"/><use xlink:href="#f0_19" transform="matrix(18 0 0 18 68.1 369.7)"/><use xlink:href="#f0_y" transform="matrix(18 0 0 18 92.8 369.7)"/><use xlink:href="#f0_y" transform="matrix(18 0 0 18 106.7 369.7)"/><use xlink:href="#f0_q" transform="matrix(18 0 0 18 120.6 369.7)"/></g><text x="27" y="369" dx="0,0,0,.1,0,-.2,.1,.1" class="s4">1st Week</text><g fill="#FFF"><use xlink:href="#f0_d" transform="matrix(18 0 0 18 22.1 520.8)"/><use xlink:href="#f0_15" transform="matrix(18 0 0 18 36 520.8)"/><use xlink:href="#f0_z" transform="matrix(18 0 0 18 50.7 520.8)"/><use xlink:href="#f0_19" transform="matrix(18 0 0 18 71.7 520.8)"/><use xlink:href="#f0_y" transform="matrix(18 0 0 18 96.7 520.8)"/><use xlink:href="#f0_y" transform="matrix(18 0 0 18 110.4 520.8)"/><use xlink:href="#f0_q" transform="matrix(18 0 0 18 124.3 520.8)"/></g><use xlink:href="#f0_d" transform="matrix(15 0 0 15 260.5 481.6)" fill="#C0504D"/><text x="22" y="520" dx="0,0,-.1,.1,0,0,-.1,.1" class="s4">2nd Week</text><g fill="#C0504D"><use xlink:href="#f0_8" transform="matrix(15 0 0 15 272.1 481.6)"/><use xlink:href="#f0_a" transform="matrix(15 0 0 15 283.7 481.6)"/><use xlink:href="#f0_q" transform="matrix(15 0 0 15 295.3 481.6)"/><use xlink:href="#f0_r" transform="matrix(15 0 0 15 198 509.5)"/></g><text x="260" y="481" class="s3">250k</text><g fill="#C0504D"><use xlink:href="#f0_s" transform="matrix(15 0 0 15 211.9 509.5)"/><use xlink:href="#f0_s" transform="matrix(15 0 0 15 221.5 509.5)"/><use xlink:href="#f0_t" transform="matrix(15 0 0 15 231.1 509.5)"/><use xlink:href="#f0_u" transform="matrix(15 0 0 15 243.3 509.5)"/><use xlink:href="#f0_t" transform="matrix(15 0 0 15 261.9 509.5)"/><use xlink:href="#f0_v" transform="matrix(15 0 0 15 274.2 509.5)"/><use xlink:href="#f0_w" transform="matrix(15 0 0 15 279.8 509.5)"/><use xlink:href="#f0_x" transform="matrix(15 0 0 15 291.1 509.5)"/><use xlink:href="#f0_y" transform="matrix(15 0 0 15 299 509.5)"/><use xlink:href="#f0_z" transform="matrix(15 0 0 15 310.6 509.5)"/><use xlink:href="#f0_10" transform="matrix(15 0 0 15 328.1 509.5)"/><use xlink:href="#f0_11" transform="matrix(15 0 0 15 342.7 509.5)"/><use xlink:href="#f0_12" transform="matrix(15 0 0 15 354.8 509.5)"/></g><g clip-path="url(#c3)"><use xlink:href="#f0_k" transform="matrix(15 0 0 15 215.3 537.5)" fill="#C0504D"/></g><text x="198" y="509" dx="0,0,0,0,-.1,0,-.1,0,0,0,.1,.1,0,-.1,0" class="s3">Accumulated GPV</text><g fill="#C0504D" clip-path="url(#c3)"><use xlink:href="#f0_1a" transform="matrix(15 0 0 15 226.1 537.5)"/><use xlink:href="#f0_w" transform="matrix(15 0 0 15 238.3 537.5)"/><use xlink:href="#f0_17" transform="matrix(15 0 0 15 249.6 537.5)"/><use xlink:href="#f0_1b" transform="matrix(15 0 0 15 257.7 537.5)"/><use xlink:href="#f0_15" transform="matrix(15 0 0 15 263.3 537.5)"/><use xlink:href="#f0_1e" transform="matrix(15 0 0 15 275.5 537.5)"/><use xlink:href="#f0_10" transform="matrix(15 0 0 15 291.7 537.5)"/><use xlink:href="#f0_17" transform="matrix(15 0 0 15 306.3 537.5)"/><use xlink:href="#f0_14" transform="matrix(15 0 0 15 314.4 537.5)"/><use xlink:href="#f0_t" transform="matrix(15 0 0 15 326.8 537.5)"/><use xlink:href="#f0_18" transform="matrix(15 0 0 15 339 537.5)"/></g><use xlink:href="#f0_d" transform="matrix(15 0 0 15 473.3 481.6)" fill="#455F7B"/><text x="215" y="537" dx="0,0,-.1,0,0,0,-.1,.1,0,0,0,0,-.1" class="s3">Sharing Group</text><g fill="#455F7B"><use xlink:href="#f0_a" transform="matrix(15 0 0 15 484.9 481.6)"/><use xlink:href="#f0_a" transform="matrix(15 0 0 15 496.5 481.6)"/><use xlink:href="#f0_q" transform="matrix(15 0 0 15 508.1 481.6)"/><use xlink:href="#f0_r" transform="matrix(15 0 0 15 411 509.5)"/></g><text x="473" y="481" class="s3">200k</text><g fill="#455F7B"><use xlink:href="#f0_s" transform="matrix(15 0 0 15 424.7 509.5)"/><use xlink:href="#f0_s" transform="matrix(15 0 0 15 434.3 509.5)"/><use xlink:href="#f0_t" transform="matrix(15 0 0 15 443.9 509.5)"/><use xlink:href="#f0_u" transform="matrix(15 0 0 15 456.1 509.5)"/><use xlink:href="#f0_t" transform="matrix(15 0 0 15 474.8 509.5)"/><use xlink:href="#f0_v" transform="matrix(15 0 0 15 487 509.5)"/><use xlink:href="#f0_w" transform="matrix(15 0 0 15 492.6 509.5)"/><use xlink:href="#f0_x" transform="matrix(15 0 0 15 503.9 509.5)"/><use xlink:href="#f0_y" transform="matrix(15 0 0 15 511.9 509.5)"/><use xlink:href="#f0_z" transform="matrix(15 0 0 15 523.4 509.5)"/><use xlink:href="#f0_10" transform="matrix(15 0 0 15 541 509.5)"/><use xlink:href="#f0_11" transform="matrix(15 0 0 15 555.6 509.5)"/><use xlink:href="#f0_12" transform="matrix(15 0 0 15 567.7 509.5)"/></g><g clip-path="url(#c4)"><use xlink:href="#f0_13" transform="matrix(15 0 0 15 434.3 537.5)" fill="#455F7B"/></g><text x="410" y="509" dx="0,-.1,0,0,-.1,0,-.1,0,0,0,.1,.1,0,0,-.1" class="s3">Accumulated GPV</text><g fill="#455F7B" clip-path="url(#c4)"><use xlink:href="#f0_14" transform="matrix(15 0 0 15 447.2 537.5)"/><use xlink:href="#f0_15" transform="matrix(15 0 0 15 459.5 537.5)"/><use xlink:href="#f0_t" transform="matrix(15 0 0 15 471.7 537.5)"/><use xlink:href="#f0_16" transform="matrix(15 0 0 15 484 537.5)"/><use xlink:href="#f0_10" transform="matrix(15 0 0 15 498.4 537.5)"/><use xlink:href="#f0_17" transform="matrix(15 0 0 15 513.1 537.5)"/><use xlink:href="#f0_14" transform="matrix(15 0 0 15 521 537.5)"/><use xlink:href="#f0_t" transform="matrix(15 0 0 15 533.4 537.5)"/><use xlink:href="#f0_18" transform="matrix(15 0 0 15 545.6 537.5)"/></g><use xlink:href="#f0_g" transform="matrix(15 0 0 15 686.1 481.6)" fill="#455F7B"/><text x="434" y="537" dx="0,0,0,-.1,-.1,.2,0,0,-.2,0,-.1" class="s3">Bonus Group</text><g fill="#455F7B"><use xlink:href="#f0_8" transform="matrix(15 0 0 15 697.7 481.6)"/><use xlink:href="#f0_a" transform="matrix(15 0 0 15 709.3 481.6)"/><use xlink:href="#f0_q" transform="matrix(15 0 0 15 720.9 481.6)"/><use xlink:href="#f0_r" transform="matrix(15 0 0 15 623.8 509.5)"/></g><text x="686" y="481" class="s3">150k</text><g fill="#455F7B"><use xlink:href="#f0_s" transform="matrix(15 0 0 15 637.5 509.5)"/><use xlink:href="#f0_s" transform="matrix(15 0 0 15 647.1 509.5)"/><use xlink:href="#f0_t" transform="matrix(15 0 0 15 656.7 509.5)"/><use xlink:href="#f0_u" transform="matrix(15 0 0 15 669 509.5)"/><use xlink:href="#f0_t" transform="matrix(15 0 0 15 687.6 509.5)"/><use xlink:href="#f0_v" transform="matrix(15 0 0 15 699.8 509.5)"/><use xlink:href="#f0_w" transform="matrix(15 0 0 15 705.4 509.5)"/><use xlink:href="#f0_x" transform="matrix(15 0 0 15 716.7 509.5)"/><use xlink:href="#f0_y" transform="matrix(15 0 0 15 724.7 509.5)"/><use xlink:href="#f0_z" transform="matrix(15 0 0 15 736.3 509.5)"/><use xlink:href="#f0_10" transform="matrix(15 0 0 15 753.8 509.5)"/><use xlink:href="#f0_11" transform="matrix(15 0 0 15 768.4 509.5)"/><use xlink:href="#f0_12" transform="matrix(15 0 0 15 780.5 509.5)"/></g><g clip-path="url(#c5)"><use xlink:href="#f0_13" transform="matrix(15 0 0 15 647.2 537.5)" fill="#455F7B"/></g><text x="623" y="509" dx="0,-.1,0,0,-.1,0,-.1,0,0,0,.1,.1,0,0,-.1" class="s3">Accumulated GPV</text><g fill="#455F7B" clip-path="url(#c5)"><use xlink:href="#f0_14" transform="matrix(15 0 0 15 660 537.5)"/><use xlink:href="#f0_15" transform="matrix(15 0 0 15 672.4 537.5)"/><use xlink:href="#f0_t" transform="matrix(15 0 0 15 684.6 537.5)"/><use xlink:href="#f0_16" transform="matrix(15 0 0 15 696.8 537.5)"/><use xlink:href="#f0_10" transform="matrix(15 0 0 15 711.3 537.5)"/><use xlink:href="#f0_17" transform="matrix(15 0 0 15 725.9 537.5)"/><use xlink:href="#f0_14" transform="matrix(15 0 0 15 733.9 537.5)"/><use xlink:href="#f0_t" transform="matrix(15 0 0 15 746.2 537.5)"/><use xlink:href="#f0_18" transform="matrix(15 0 0 15 758.4 537.5)"/></g><use xlink:href="#f0_11" transform="matrix(15 0 0 15 263.1 73.6)" fill="#455F7B"/><text x="647" y="537" dx="0,0,0,-.1,-.1,.2,0,0,-.2,0,-.1" class="s3">Bonus Group</text><g fill="#455F7B"><use xlink:href="#f0_v" transform="matrix(15 0 0 15 275.3 73.6)"/><use xlink:href="#f0_w" transform="matrix(15 0 0 15 280.9 73.6)"/><use xlink:href="#f0_1i" transform="matrix(15 0 0 15 292.2 73.6)"/><use xlink:href="#f0_15" transform="matrix(15 0 0 15 305.6 73.6)"/><use xlink:href="#f0_t" transform="matrix(15 0 0 15 317.9 73.6)"/><use xlink:href="#f0_u" transform="matrix(15 0 0 15 330.1 73.6)"/><use xlink:href="#f0_12" transform="matrix(15 0 0 15 354 73.6)"/><use xlink:href="#f0_1k" transform="matrix(15 0 0 15 367.5 73.6)"/><use xlink:href="#f0_11" transform="matrix(15 0 0 15 373.6 73.6)"/></g><text x="263" y="73" dx="0,0,0,0,0,0,-.1,-.1,.1,0,-.1,0" class="s3">Platinum VIP</text></g><defs><path d="M59 286v139h642V286zm0 256v140h642V542z" id="f0_2" transform="scale(.001 -.001)"/><path d="M292-230s-54 82-92 165c0 0-37 81-61 166 0 0-24 85-35 172 0 0-11 87-11 178 0 0 0 91 11 179 0 0 11 87 35 172 0 0 24 84 61 167 0 0 38 83 92 165l84-51s7-5 14-11c0 0 7-7 10-16 0 0 4-9 2-20 0 0-1-12-10-27 0 0-64-125-99-268 0 0-36-143-36-290 0 0 0-147 36-289 0 0 35-143 99-267 0 0 9-16 10-27 0 0 2-12-2-21 0 0-3-9-10-15l-14-12-84-50z" id="f0_4" transform="scale(.001 -.001)"/><path d="M397-9S326-9 272 6c0 0-54 16-95 50 0 0-40 33-70 82 0 0-29 49-50 114l79 34s20 8 42 8c5 0 11-1 16-2 0 0 28-6 39-29 0 0 13-26 28-48 0 0 15-22 34-39 0 0 19-16 44-26 0 0 24-10 56-10 0 0 40 0 69 13 0 0 30 13 49 35 0 0 20 21 29 48 0 0 10 27 10 53 0 0 0 35-6 63 0 0-7 28-29 49 0 0-22 20-64 31 0 0-43 11-116 11v128s61 0 101 11c0 0 39 10 61 29 0 0 22 19 31 45 0 0 8 27 8 59 0 0 0 68-34 102 0 0-34 34-95 34 0 0-55 0-91-30 0 0-37-31-51-76 0 0-12-34-32-45 0 0-12-6-34-6-7 0-14 1-22 2l-95 16s11 73 40 127c0 0 29 54 73 90 0 0 44 36 100 55 0 0 57 18 122 18 0 0 68 0 123-20 0 0 55-20 93-55 0 0 38-35 58-81 0 0 21-47 21-100 0 0 0-47-10-83 0 0-10-36-30-62 0 0-19-27-47-46 0 0-29-19-65-31 0 0 170-57 170-229 0 0 0-75-27-132 0 0-28-57-74-96 0 0-45-39-106-58 0 0-61-18-128-18z" id="f0_5" transform="scale(.001 -.001)"/><path d="M333-9s-47 0-88 9c0 0-41 9-78 25 0 0-36 17-67 38 0 0-31 22-56 46l55 76s19 25 46 25c0 0 18 0 36-11 0 0 17-11 39-24 0 0 22-14 51-25 0 0 30-10 72-10 0 0 44 0 77 14 0 0 32 15 54 41 0 0 21 27 32 62 0 0 11 35 11 77 0 0 0 79-44 123 0 0-44 43-128 43 0 0-33 0-67-7 0 0-35-6-69-19L98 505l80 486h485v-76s0-38-24-62c0 0-25-24-82-24H304l-33-195s59 12 113 12c0 0 76 0 135-23 0 0 58-24 98-65 0 0 39-41 60-96 0 0 20-55 20-119 0 0 0-79-27-144 0 0-28-65-76-112 0 0-49-46-115-72 0 0-67-24-146-24z" id="f0_8" transform="scale(.001 -.001)"/><path d="M386 138s33 0 63 16c0 0 31 16 55 57 0 0 24 40 39 109 0 0 14 69 14 176 0 0 0 106-14 175 0 0-15 69-39 110 0 0-24 40-55 56 0 0-30 16-63 16 0 0-33 0-63-16 0 0-31-16-54-56 0 0-24-41-38-110 0 0-14-69-14-175 0 0 0-107 14-176 0 0 14-69 38-109 0 0 23-41 54-57 0 0 30-16 63-16zm0-147s-76 0-141 29c0 0-64 30-112 93 0 0-48 62-75 158 0 0-27 95-27 225 0 0 0 130 27 225 0 0 27 95 75 157 0 0 48 63 112 93 0 0 65 31 141 31 0 0 76 0 141-31 0 0 65-30 113-93 0 0 49-62 76-157 0 0 27-95 27-225 0 0 0-130-27-225 0 0-27-96-76-158 0 0-48-63-113-93 0 0-65-29-141-29z" id="f0_a" transform="scale(.001 -.001)"/><path d="M72 0v991h196V580h31s45 0 64 29l194 341s17 23 36 32c0 0 20 9 49 9h170L557 583s-27-40-59-56c0 0 23-9 41-24 0 0 18-16 34-40L833 0H659s-33 0-49 10c0 0-16 10-27 27L385 398s-11 18-27 26c0 0-15 8-42 8h-48V0z" id="f0_b" transform="scale(.001 -.001)"/><path d="M334 598v129s0 15 2 29c0 0 2 14 6 27 0 0-8-11-19-19 0 0-10-8-23-15l-112-65-45 75 112 66s13 8 26 13c0 0 14 5 27 7 0 0-28 5-53 21l-112 67 45 75 112-66s13-7 24-15c0 0 11-9 19-19 0 0-5 13-7 26 0 0-2 13-2 28v131h90V963s0-15-1-29c0 0-2-13-7-26 0 0 8 10 20 19 0 0 11 8 24 15l111 65 44-75-111-66s-13-7-26-13c0 0-13-6-27-8 0 0 14-2 27-7 0 0 14-5 26-13l111-67-44-75-111 66s-28 15-45 34c0 0 9-24 9-54V598z" id="f0_c" transform="scale(.001 -.001)"/><path d="M51 0v60s0 18 8 37c0 0 7 20 25 37l287 296s37 38 65 73c0 0 28 34 47 68 0 0 19 34 29 69 0 0 9 34 9 72 0 0 0 69-34 104 0 0-34 35-97 35 0 0-27 0-49-8 0 0-22-8-40-22 0 0-18-15-31-34 0 0-13-19-19-42 0 0-12-34-33-45 0 0-12-6-35-6-6 0-13 1-21 2l-96 16s12 73 41 127c0 0 29 54 72 90 0 0 44 36 101 55 0 0 56 18 121 18 0 0 69 0 125-21 0 0 57-20 97-57 0 0 39-38 61-90 0 0 22-53 22-116 0 0 0-55-15-101 0 0-16-47-42-89 0 0-26-42-61-82 0 0-35-40-74-80L304 145s33 11 67 17c0 0 33 5 62 5h225s28 0 46-16c0 0 17-17 17-44V0z" id="f0_d" transform="scale(.001 -.001)"/><path d="M184-230l-84 50s-8 6-15 12c0 0-6 6-9 15 0 0-4 9-2 21 0 0 1 11 10 27 0 0 64 124 99 267 0 0 36 142 36 289 0 0 0 147-36 290 0 0-35 143-99 268 0 0-9 15-10 27 0 0-2 11 2 20 0 0 3 9 9 16 0 0 7 6 15 11l84 51s53-82 91-165c0 0 38-83 61-167 0 0 24-85 35-172 0 0 12-88 12-179 0 0 0-91-11-178 0 0-12-87-36-172 0 0-23-85-61-166 0 0-38-83-91-165z" id="f0_f" transform="scale(.001 -.001)"/><path d="M176 0v134h192v555s0 35 2 72L241 650s-13-11-25-13c0 0-6-1-13-1-4 0-8 0-11 1 0 0-11 2-20 8 0 0-9 5-13 11l-57 78 298 258h148V134h169V0z" id="f0_g" transform="scale(.001 -.001)"/><path d="M840 110s19 0 35 6c0 0 16 7 29 23 0 0 12 15 19 42 0 0 7 26 7 64 0 0 0 40-7 67 0 0-7 27-19 43 0 0-13 16-29 24 0 0-16 7-35 7 0 0-19 0-34-7 0 0-16-8-28-24 0 0-11-16-18-43 0 0-7-27-7-67 0 0 0-38 7-64 0 0 7-27 18-42 0 0 12-16 28-23 0 0 15-6 34-6zm0-122s-51 0-93 18c0 0-43 18-74 52 0 0-31 34-49 82 0 0-18 47-18 105 0 0 0 61 18 109 0 0 18 49 49 83 0 0 31 34 74 53 0 0 42 18 93 18 0 0 51 0 95-18 0 0 43-19 74-53 0 0 32-34 49-83 0 0 18-48 18-109 0 0 0-58-20-105 0 0-19-48-52-82 0 0-32-34-74-52 0 0-43-18-90-18zM272 655s19 0 35 7c0 0 17 6 29 22 0 0 12 16 18 42 0 0 7 26 7 65 0 0 0 40-7 67 0 0-6 27-18 43 0 0-12 17-29 24 0 0-16 7-35 7 0 0-19 0-35-7 0 0-15-7-27-24 0 0-12-16-19-43 0 0-6-27-6-67 0 0 0-39 6-65 0 0 7-26 19-42 0 0 12-16 27-22 0 0 16-7 35-7zM134 0l635 981s19 30 42 46c0 0 24 16 57 16h82L310 54s-20-32-43-43c0 0-22-11-52-11zm138 533s-50 0-93 19c0 0-43 18-75 52 0 0-31 33-48 81 0 0-18 48-18 106 0 0 0 60 18 109 0 0 17 48 48 82 0 0 32 35 75 53 0 0 43 18 93 18 0 0 51 0 94-18 0 0 44-18 75-53 0 0 31-34 49-82 0 0 17-49 17-109 0 0 0-58-19-106 0 0-20-48-52-81 0 0-32-34-75-52 0 0-42-19-89-19z" id="f0_h" transform="scale(.001 -.001)"/><path d="M302 119v294H28v141h274v292h155V554h275V413H457V119z" id="f0_i" transform="scale(.001 -.001)"/><path d="M499-10s-96 0-173 29c0 0-78 31-131 86 0 0-54 55-83 130 0 0-28 75-28 165v591h196V400s0-55 15-100c0 0 15-45 43-76 0 0 28-32 68-49 0 0 41-17 93-17 0 0 52 0 93 17 0 0 41 17 69 49 0 0 28 31 42 76 0 0 15 45 15 100v591h196V400s0-90-29-165c0 0-29-75-82-130 0 0-54-55-131-86 0 0-77-29-173-29z" id="f0_j" transform="scale(.001 -.001)"/><path d="M345-9s-45 0-89 9c0 0-45 8-86 25 0 0-41 18-77 41 0 0-37 24-65 54l59 93s6 12 18 18c0 0 11 7 25 7 0 0 18 0 37-14 0 0 19-14 44-30 0 0 25-17 59-31 0 0 34-14 80-14 0 0 67 0 104 35 0 0 38 34 38 101 0 0 0 38-19 62 0 0-18 24-48 40 0 0-30 16-68 27 0 0-38 12-78 25 0 0-40 14-79 33 0 0-38 19-68 50 0 0-30 32-48 78 0 0-18 46-18 115 0 0 0 54 21 106 0 0 20 52 61 92 0 0 40 40 99 65 0 0 58 24 133 24 0 0 85 0 158-28 0 0 73-27 124-77l-50-93s-7-15-17-21c0 0-10-6-25-6 0 0-14 0-31 10 0 0-16 10-38 23 0 0-22 12-51 23 0 0-29 10-67 10 0 0-67 0-101-33 0 0-34-33-34-86 0 0 0-33 18-55 0 0 18-22 48-38 0 0 31-16 69-29 0 0 38-13 79-27 0 0 40-15 78-35 0 0 39-19 69-49 0 0 30-30 49-73 0 0 18-44 18-105 0 0 0-68-22-127 0 0-22-58-65-102 0 0-42-44-104-69 0 0-61-24-140-24z" id="f0_k" transform="scale(.001 -.001)"/><path d="M448 156s65 0 117 23c0 0 53 23 89 67 0 0 36 44 55 107 0 0 20 63 20 143 0 0 0 79-20 142 0 0-19 62-55 106 0 0-36 45-89 68 0 0-52 24-117 24H283V156zM87 0v991h361s108 0 197-37c0 0 88-36 151-102 0 0 63-66 98-157 0 0 34-91 34-199 0 0 0-109-34-200 0 0-35-92-98-157 0 0-63-66-151-102 0 0-89-37-197-37z" id="f0_l" transform="scale(.001 -.001)"/><path d="M480 377v306s0 22 2 48c0 0 1 25 4 53L201 377zm0-377v238H78s-17 0-31 11c0 0-13 11-17 28l-19 90 454 624h172V377h114V274s0-15-9-26c0 0-10-10-27-10h-78V0z" id="f0_m" transform="scale(.001 -.001)"/><path d="M387 136s37 0 65 12c0 0 28 12 46 34 0 0 17 22 26 51 0 0 9 30 9 65 0 0 0 81-34 124 0 0-35 43-112 43 0 0-76 0-111-44 0 0-35-43-35-123 0 0 0-35 9-65 0 0 9-29 27-51 0 0 18-22 45-34 0 0 28-12 65-12zm0 477s37 0 61 14c0 0 24 13 39 35 0 0 14 21 20 50 0 0 5 28 5 58 0 0 0 27-7 54 0 0-7 26-22 45 0 0-15 19-39 31 0 0-23 12-57 12 0 0-33 0-57-12 0 0-23-12-39-31 0 0-15-19-22-45 0 0-7-27-7-54 0 0 0-30 5-58 0 0 6-29 21-50 0 0 14-22 38-35 0 0 24-14 61-14zm0-623s-76 0-139 20c0 0-63 22-108 62 0 0-45 40-70 97 0 0-24 56-24 126 0 0 0 89 40 153 0 0 40 64 130 96 0 0-70 31-104 90 0 0-34 58-34 140 0 0 0 59 22 111 0 0 23 51 64 89 0 0 41 38 98 59 0 0 57 22 125 22 0 0 68 0 125-22 0 0 57-21 98-59 0 0 41-38 64-89 0 0 23-52 23-111 0 0 0-82-35-140 0 0-34-59-104-90 0 0 90-32 130-96 0 0 41-64 41-153 0 0 0-70-25-126 0 0-24-57-70-97 0 0-45-40-108-62 0 0-63-20-139-20z" id="f0_o" transform="scale(.001 -.001)"/><path d="M46 357v158h376V357z" id="f0_p" transform="scale(.001 -.001)"/><path d="M80 0v1072h189V462h29s18 0 28 5c0 0 9 5 19 19l135 223s12 15 26 23c0 0 15 9 36 9h173L536 468s-12-16-26-29c0 0-14-12-30-23 0 0 15-11 26-25 0 0 12-15 23-32L724 0H554s-44 0-63 33L355 309s-9 17-19 22c0 0-10 5-29 5h-38V0z" id="f0_q" transform="scale(.001 -.001)"/><path d="M602 375L501 689s-9 23-18 54c0 0-10 31-20 67 0 0-9-36-18-68 0 0-10-31-18-54L326 375zM3 0l361 991h200L925 0H774s-26 0-41 12c0 0-16 13-24 31l-62 195H282L220 44s-6-16-23-30c0 0-16-14-41-14z" id="f0_r" transform="scale(.001 -.001)"/><path d="M348-10s-62 0-118 25c0 0-55 25-98 75 0 0-42 49-66 120 0 0-25 71-25 162 0 0 0 82 22 151 0 0 21 69 63 120 0 0 43 52 105 81 0 0 62 29 144 29 0 0 78 0 137-28 0 0 59-27 106-78l-50-68s-9-11-17-17c0 0-8-6-23-6 0 0-14 0-26 8l-27 18s-15 10-36 19c0 0-20 8-52 8 0 0-39 0-67-17 0 0-29-16-48-47 0 0-18-30-28-74 0 0-9-44-9-99 0 0 0-115 40-178 0 0 39-62 108-62 0 0 37 0 59 10 0 0 21 11 36 23 0 0 15 13 27 23 0 0 13 10 30 10 0 0 22 0 33-17l56-70s-30-36-64-59c0 0-33-24-69-38 0 0-35-14-71-19 0 0-37-5-72-5z" id="f0_s" transform="scale(.001 -.001)"/><path d="M327-10s-60 0-106 20c0 0-46 21-78 58 0 0-31 37-47 89 0 0-16 51-16 113v471h189V270s0-64 29-99c0 0 29-35 88-35 0 0 42 0 80 19 0 0 38 19 72 52v534h189V0H611s-18 0-30 9c0 0-13 8-16 25l-14 54s-44-44-97-72c0 0-53-26-127-26z" id="f0_t" transform="scale(.001 -.001)"/><path d="M95 0v741h117s18 0 30-8c0 0 12-9 16-26l13-52s20 21 41 39c0 0 21 18 46 31 0 0 25 13 53 20 0 0 28 8 61 8 0 0 71 0 117-38 0 0 46-38 68-100 0 0 18 37 45 63 0 0 26 26 58 43 0 0 32 16 68 24 0 0 35 8 71 8 0 0 63 0 111-19 0 0 49-19 82-56 0 0 34-36 51-88 0 0 17-52 17-119V0H971v471s0 134-120 134c0 0-27 0-50-9 0 0-23-8-40-25 0 0-18-17-28-42 0 0-10-25-10-58V0H533v471s0 72-29 103c0 0-30 31-87 31 0 0-38 0-71-17 0 0-33-17-61-49V0z" id="f0_u" transform="scale(.001 -.001)"/><path d="M93 0v1072h190V0z" id="f0_v" transform="scale(.001 -.001)"/><path d="M329 118s51 0 88 18c0 0 37 18 73 56v120s-74-3-123-12c0 0-48-10-78-24 0 0-29-15-41-34 0 0-12-20-12-42 0 0 0-45 25-63 0 0 25-19 68-19zM270-10s-48 0-87 12c0 0-40 13-68 38 0 0-29 26-45 63 0 0-16 38-16 87 0 0 0 41 21 82 0 0 21 41 72 75 0 0 50 33 134 55 0 0 84 22 209 25v39s0 72-30 105c0 0-30 34-86 34 0 0-41 0-69-10 0 0-27-9-48-21 0 0-21-12-38-21 0 0-18-10-41-10 0 0-19 0-33 10 0 0-14 10-22 24l-34 60s64 60 142 89c0 0 77 29 167 29 0 0 65 0 117-21 0 0 51-22 87-60 0 0 36-38 54-91 0 0 19-53 19-117V0h-86s-27 0-41 8c0 0-15 8-23 32l-16 49s-29-25-55-43c0 0-26-19-54-32 0 0-28-13-59-18 0 0-32-6-71-6z" id="f0_w" transform="scale(.001 -.001)"/><path d="M316-10s-96 0-147 54c0 0-52 56-52 153v404H50s-15 0-25 10c0 0-11 10-11 30v75l113 22 39 195s7 31 42 31h99V736h182V601H307V210s0-33 14-51c0 0 14-19 40-19 0 0 14 0 24 4 0 0 9 3 16 7 0 0 6 5 12 8 0 0 6 4 12 4 0 0 8 0 14-4 0 0 5-5 11-14l57-91s-39-32-88-49c0 0-50-15-103-15z" id="f0_x" transform="scale(.001 -.001)"/><path d="M553 457s0 32-9 61c0 0-8 29-27 51 0 0-18 23-46 36 0 0-27 13-65 13 0 0-73 0-114-42 0 0-41-43-53-119zM411-10s-77 0-143 24c0 0-67 26-116 76 0 0-49 50-77 124 0 0-28 75-28 172 0 0 0 76 25 143 0 0 24 66 70 116 0 0 46 50 112 79 0 0 65 29 148 29 0 0 70 0 129-23 0 0 59-23 102-66 0 0 42-43 66-105 0 0 24-63 24-143 0 0 0-22-2-36 0 0-3-14-7-22 0 0-5-8-14-11 0 0-8-4-21-4H236s4-54 19-93c0 0 15-40 40-65 0 0 24-25 58-38 0 0 33-12 74-12 0 0 41 0 72 10 0 0 30 10 53 22 0 0 22 11 40 21 0 0 18 10 35 10 0 0 21 0 35-17l54-70s-30-36-68-59c0 0-37-24-77-37 0 0-40-14-81-19 0 0-41-6-79-6z" id="f0_y" transform="scale(.001 -.001)"/><path d="M381 139s26 0 48 5c0 0 22 6 41 16 0 0 19 11 35 26 0 0 17 15 33 36v326s-28 36-62 50c0 0-33 14-71 14 0 0-36 0-67-15 0 0-30-14-51-44 0 0-21-30-33-76 0 0-12-46-12-108 0 0 0-64 10-108 0 0 10-43 28-70 0 0 18-28 43-40 0 0 26-12 58-12zM315-10s-59 0-108 24c0 0-50 26-85 74 0 0-35 49-55 119 0 0-20 71-20 162 0 0 0 82 22 153 0 0 23 70 64 122 0 0 41 52 99 81 0 0 57 30 128 30 0 0 60 0 102-18 0 0 42-19 76-51v386h189V0H610s-17 0-29 9c0 0-13 8-16 25l-17 67s-44-50-100-81c0 0-57-30-133-30z" id="f0_z" transform="scale(.001 -.001)"/><path d="M569-9S449-9 352 27c0 0-98 38-167 105 0 0-69 68-107 161 0 0-38 93-38 203 0 0 0 111 36 204 0 0 36 93 103 160 0 0 66 67 161 105 0 0 94 37 211 37 0 0 60 0 112-10 0 0 52-10 97-27 0 0 45-17 82-41 0 0 37-24 67-53l-56-88s-13-21-34-25c0 0-4-1-9-1-9 0-22 2-37 11 0 0-23 14-46 26 0 0-24 12-50 22 0 0-27 9-59 14 0 0-32 6-73 6 0 0-71 0-126-25 0 0-56-24-96-68 0 0-40-44-61-107 0 0-21-63-21-140 0 0 0-83 23-149 0 0 23-66 65-111 0 0 42-45 102-69 0 0 60-23 133-23 0 0 49 0 88 10 0 0 40 10 78 28v173H615s-17 0-28 11c0 0-11 10-11 25v110h331V95s-74-55-159-80c0 0-84-24-179-24z" id="f0_10" transform="scale(.001 -.001)"/><path d="M404 496s90 0 132 47c0 0 41 48 41 130 0 0 0 77-42 122 0 0-43 45-131 45H282V496zM86 0v991h318s97 0 166-24c0 0 69-24 115-66 0 0 45-42 67-101 0 0 22-58 22-127 0 0 0-73-23-134 0 0-23-60-69-103 0 0-46-44-115-68 0 0-69-24-163-24H282V0z" id="f0_11" transform="scale(.001 -.001)"/><path d="M363 0L1 991h157s26 0 42-12c0 0 16-12 24-32l186-584s11-31 23-67c0 0 11-36 21-74 0 0 8 39 18 75 0 0 10 36 22 67l186 583s6 18 23 31c0 0 17 13 41 13h159L540 0z" id="f0_12" transform="scale(.001 -.001)"/><path d="M453 152s47 0 78 12c0 0 31 12 50 32 0 0 18 20 25 47 0 0 8 26 8 55 0 0 0 30-9 55 0 0-8 24-27 42 0 0-19 17-50 26 0 0-31 9-76 9H285V152zm-39 413s83 0 128 32c0 0 44 32 44 105 0 0 0 76-38 107 0 0-39 31-123 31H285V565zM89 0v991h336s96 0 164-19c0 0 67-19 110-53 0 0 43-34 63-83 0 0 20-49 20-109 0 0 0-35-10-67 0 0-10-32-30-59 0 0-20-28-52-51 0 0-31-23-75-38 0 0 191-47 191-219 0 0 0-63-23-117 0 0-23-54-67-93 0 0-45-39-110-61 0 0-65-22-149-22z" id="f0_13" transform="scale(.001 -.001)"/><path d="M412 134s86 0 127 60c0 0 41 60 41 177 0 0 0 117-41 177 0 0-41 60-127 60 0 0-87 0-129-60 0 0-41-60-41-177 0 0 0-117 41-177 0 0 42-60 129-60zm0-144s-82 0-150 26c0 0-67 27-115 76 0 0-49 50-75 121 0 0-26 70-26 159 0 0 0 88 26 158 0 0 26 71 75 120 0 0 48 50 115 76 0 0 68 27 150 27 0 0 81 0 148-27 0 0 67-26 115-76 0 0 48-49 74-120 0 0 26-70 26-158 0 0 0-89-26-159 0 0-26-71-74-121 0 0-48-49-115-76 0 0-67-26-148-26z" id="f0_14" transform="scale(.001 -.001)"/><path d="M93 0v741h116s18 0 30-8c0 0 12-9 16-26l13-54s22 22 46 40c0 0 24 19 52 32 0 0 27 13 58 20 0 0 31 8 68 8 0 0 61 0 107-21 0 0 46-21 78-58 0 0 31-38 47-90 0 0 16-51 16-113V0H551v471s0 64-30 99c0 0-29 35-87 35 0 0-43 0-81-19 0 0-37-18-71-52V0z" id="f0_15" transform="scale(.001 -.001)"/><path d="M284-10s-36 0-71 7c0 0-35 5-67 18 0 0-32 12-60 28 0 0-28 17-48 36l44 72s8 12 19 20c0 0 12 7 30 7 0 0 16 0 31-9 0 0 14-9 31-19 0 0 17-11 41-20 0 0 24-9 60-9 0 0 27 0 46 7 0 0 19 6 30 18 0 0 12 11 18 26 0 0 5 15 5 31 0 0 0 33-24 51 0 0-25 18-62 32 0 0-38 13-81 27 0 0-42 14-80 39 0 0-37 25-62 65 0 0-24 40-24 107 0 0 0 46 17 87 0 0 17 42 51 73 0 0 34 31 84 50 0 0 51 19 118 19 0 0 36 0 71-7 0 0 34-7 64-19 0 0 30-12 55-30 0 0 25-17 45-37l-43-68s-7-13-16-18c0 0-8-5-21-5 0 0-14 0-28 7 0 0-15 7-32 16 0 0-18 9-40 16 0 0-22 7-52 7 0 0-44 0-69-21 0 0-25-20-25-55 0 0 0-23 15-38 0 0 14-15 37-27 0 0 24-11 53-21 0 0 30-10 61-21 0 0 31-11 61-27 0 0 29-15 53-37 0 0 23-23 38-55 0 0 14-32 14-77 0 0 0-53-19-99 0 0-19-45-55-78 0 0-36-33-89-52 0 0-54-17-124-17z" id="f0_16" transform="scale(.001 -.001)"/><path d="M82 0v741h111s29 0 41-11c0 0 11-10 15-36l10-76s33 64 78 100c0 0 45 37 104 37 0 0 48 0 80-23l-14-142s-2-13-9-19c0 0-8-6-21-6 0 0-11 0-32 4 0 0-21 3-38 3 0 0-27 0-47-7 0 0-21-8-37-22 0 0-16-15-28-36 0 0-13-21-23-47V0z" id="f0_17" transform="scale(.001 -.001)"/><path d="M414 132s37 0 67 15c0 0 30 14 52 44 0 0 21 30 33 76 0 0 11 46 11 109 0 0 0 63-9 106 0 0-10 44-28 71 0 0-18 27-43 40 0 0-26 12-58 12 0 0-53 0-89-21 0 0-37-22-69-62V194s29-34 62-48c0 0 33-14 71-14zM92-239v980h116s18 0 30-8c0 0 13-9 16-26l16-65s22 25 47 46c0 0 25 21 53 36 0 0 29 15 62 23 0 0 33 8 72 8 0 0 59 0 108-25 0 0 50-26 85-74 0 0 36-48 56-119 0 0 20-71 20-161 0 0 0-83-23-154 0 0-22-71-63-122 0 0-41-52-99-82 0 0-58-28-129-28 0 0-61 0-102 17 0 0-42 18-76 50v-296z" id="f0_18" transform="scale(.001 -.001)"/><path d="M301 0L7 991h164s26 0 43-12c0 0 17-12 22-32l147-572s12-45 24-103c0 0 6 29 11 55 0 0 6 27 15 49l173 571s6 18 23 31c0 0 17 13 41 13h57s26 0 42-12c0 0 17-11 23-32l173-572s8-21 14-47c0 0 6-26 12-54 0 0 6 28 11 53 0 0 6 26 12 47l146 573s5 18 23 31c0 0 17 13 41 13h154L1084 0H906L710 659s-4 12-8 28c0 0-5 16-8 33 0 0-4-17-8-33 0 0-5-16-9-28L477 0z" id="f0_19" transform="scale(.001 -.001)"/><path d="M93 0v1072h190V666s42 39 92 63c0 0 49 24 118 24 0 0 61 0 107-21 0 0 46-21 77-58 0 0 32-38 48-90 0 0 16-51 16-113V0H551v471s0 64-29 99c0 0-29 35-87 35 0 0-43 0-81-19 0 0-38-18-71-52V0z" id="f0_1a" transform="scale(.001 -.001)"/><path d="M93 0v741h190V0zm91 836s-24 0-45 9c0 0-21 9-37 25 0 0-16 16-26 37 0 0-9 22-9 46 0 0 0 25 9 47 0 0 10 21 26 37 0 0 16 16 37 26 0 0 21 9 45 9 0 0 25 0 47-9 0 0 23-10 39-26 0 0 16-16 26-37 0 0 10-22 10-47 0 0 0-24-10-45 0 0-10-22-26-38 0 0-16-16-39-25 0 0-22-9-47-9z" id="f0_1b" transform="scale(.001 -.001)"/><path d="M354-124s47 0 78 8c0 0 32 7 52 19 0 0 20 12 28 29 0 0 9 18 9 38 0 0 0 20-11 31 0 0-12 13-31 20 0 0-19 7-46 11 0 0-26 3-55 5 0 0-30 2-61 3 0 0-32 2-63 6 0 0-24-16-40-37 0 0-15-20-15-48 0 0 0-18 8-34 0 0 8-15 26-27 0 0 18-11 47-17 0 0 30-7 74-7zm-10 519s57 0 85 32c0 0 27 31 27 83 0 0 0 52-27 82 0 0-28 30-85 30 0 0-57 0-84-30 0 0-27-30-27-82 0 0 0-51 27-83 0 0 27-32 84-32zm7-653s-81 0-141 17c0 0-59 16-98 43 0 0-39 27-58 62 0 0-19 36-19 74 0 0 0 50 28 83 0 0 29 35 79 56 0 0-26 15-42 41 0 0-16 26-16 66 0 0 0 17 5 34 0 0 6 18 18 35 0 0 12 18 29 33 0 0 17 16 41 29 0 0-54 30-85 81 0 0-31 50-31 118 0 0 0 55 22 100 0 0 21 44 59 75 0 0 38 31 90 48 0 0 51 16 112 16 0 0 45 0 85-9 0 0 39-10 73-28h206v-71s0-16-9-26c0 0-10-10-31-14l-59-12s14-37 14-79c0 0 0-55-21-100 0 0-22-44-59-75 0 0-38-32-89-48 0 0-51-17-110-17 0 0-18 0-35 1 0 0-17 2-34 5 0 0-28-18-28-42 0 0 0-22 19-31 0 0 20-10 51-14 0 0 31-4 72-5 0 0 40-2 82-5 0 0 42-4 83-13 0 0 40-9 71-29 0 0 31-20 51-54 0 0 19-33 19-86 0 0 0-48-23-95 0 0-23-47-67-83 0 0-44-37-108-59 0 0-64-22-146-22z" id="f0_1e" transform="scale(.001 -.001)"/><path d="M466-9S366-9 285 27c0 0-81 38-137 105 0 0-56 68-86 161 0 0-31 93-31 203 0 0 0 111 33 204 0 0 32 93 91 160 0 0 59 67 141 105 0 0 82 37 181 37 0 0 100 0 176-36 0 0 77-35 129-93l-66-92s-7-8-15-15c0 0-9-7-24-7 0 0-16 0-31 12 0 0-14 12-35 26 0 0-22 15-54 27 0 0-32 12-82 12 0 0-54 0-99-23 0 0-45-23-77-67 0 0-32-43-49-106 0 0-18-63-18-144 0 0 0-81 19-145 0 0 20-63 53-107 0 0 33-43 78-66 0 0 45-23 96-23 0 0 31 0 55 4 0 0 25 3 46 11 0 0 22 9 40 22 0 0 19 14 37 34 0 0 8 6 16 10 0 0 8 4 16 4 0 0 15 0 27-12l78-84S739 69 658 29c0 0-81-38-192-38z" id="f0_1f" transform="scale(.001 -.001)"/><path d="M300 0v383L-10 991h173s23 0 38-12c0 0 15-12 25-32l122-320s16-29 28-56c0 0 13-26 22-52 0 0 9 26 20 52 0 0 12 27 27 56l122 320s8 16 24 30c0 0 15 14 40 14h174L494 382V0z" id="f0_1g" transform="scale(.001 -.001)"/><path d="M518 157s65 0 117 23c0 0 52 23 88 67 0 0 36 43 56 106 0 0 19 63 19 143 0 0 0 79-19 142 0 0-20 62-56 106 0 0-36 45-88 68 0 0-52 24-117 24 0 0-66 0-118-24 0 0-52-23-89-67 0 0-36-45-55-107 0 0-20-63-20-142 0 0 0-80 20-143 0 0 19-63 55-106 0 0 37-44 89-67 0 0 52-23 118-23zm0-166S410-9 321 28c0 0-89 38-152 106 0 0-64 67-98 160 0 0-35 93-35 202 0 0 0 108 34 201 0 0 35 93 99 161 0 0 63 67 152 105 0 0 89 39 197 39 0 0 108 0 197-39 0 0 88-38 151-106 0 0 64-68 98-160 0 0 34-93 34-201 0 0 0-109-34-202 0 0-34-93-98-160 0 0-63-68-151-106 0 0-89-37-197-37z" id="f0_1h" transform="scale(.001 -.001)"/><path d="M314-10s-48 0-85 13c0 0-37 15-62 42 0 0-25 27-38 65 0 0-13 38-13 87v404H50s-15 0-26 10c0 0-11 10-11 30v75l112 21 40 196s7 31 42 31h98V736h500V0H615v601H305V210s0-33 14-51c0 0 14-19 40-19 0 0 13 0 23 4 0 0 9 3 16 7 0 0 6 5 12 8 0 0 6 4 12 4 0 0 8 0 14-4 0 0 5-5 11-14l57-91s-39-32-88-49c0 0-49-15-102-15zm401 848s-24 0-45 9c0 0-22 9-38 25 0 0-16 16-25 38 0 0-9 21-9 46 0 0 0 24 9 46 0 0 9 21 25 38 0 0 16 16 38 25 0 0 21 9 45 9 0 0 24 0 47-9 0 0 22-9 38-25 0 0 17-17 27-38 0 0 9-22 9-46 0 0 0-25-9-46 0 0-10-22-27-38 0 0-16-16-38-25 0 0-23-9-47-9z" id="f0_1i" transform="scale(.001 -.001)"/><path d="M105 0v991h197V0z" id="f0_1k" transform="scale(.001 -.001)"/></defs><style>@font-face{font-family:Carlito-Bold_9;src:url(&quot;fonts/Carlito-Bold_9.woff&quot;) format(&quot;woff&quot;)}</style></svg>