<svg viewBox="0 0 64 64" xmlns="http://www.w3.org/2000/svg" xmlns:xlink="http://www.w3.org/1999/xlink"><defs><linearGradient gradientUnits="userSpaceOnUse" id="a" x1="-.243" x2="65.757" y1=".243" y2="66.243"><stop offset="0" stop-color="#fff200"/><stop offset="1" stop-color="#cd118c"/></linearGradient><linearGradient id="b" x1="10" x2="76" xlink:href="#a" y1="-10" y2="56"/><linearGradient id="c" x1="8" x2="74" xlink:href="#a" y1="-8" y2="58"/><linearGradient id="d" x1="22" x2="88" xlink:href="#a" y1="-22" y2="44"/><linearGradient id="e" x1="20" x2="86" xlink:href="#a" y1="-20" y2="46"/><linearGradient id="f" x1="-2" x2="64" xlink:href="#a" y1="2" y2="68"/><linearGradient id="g" x1="-4" x2="62" xlink:href="#a" y1="4" y2="70"/><linearGradient id="h" x1="19.5" x2="85.5" xlink:href="#a" y1="-19.5" y2="46.5"/><linearGradient id="i" x1="17.5" x2="83.5" xlink:href="#a" y1="-17.5" y2="48.5"/><linearGradient id="j" x1="6.5" x2="72.5" xlink:href="#a" y1="-6.5" y2="59.5"/><linearGradient id="k" x1="4.5" x2="70.5" xlink:href="#a" y1="-4.5" y2="61.5"/></defs><path d="M56.554 19H7.446L2 27.713v12.812l30 20.69 30-20.69V27.713zm2.646 8H47.618l-3-6h10.828zm-43.138 2v10H4V29zM46 29v10H18.062V29zm-27.331-2l2.953-6h20.76l3 6zm26.267 14L32 57.384 19.121 41zm-28.359 0l12.276 15.615L6.211 41zm30.908 0h10.3L35.169 56.6zM48 39V29h12v10zM8.554 21h10.839l-2.953 6H4.8z" fill="url(#a)"/><path fill="url(#b)" d="M31 11h2v2h-2z"/><path fill="url(#c)" d="M31 15h2v2h-2zM29 13h2v2h-2z"/><path fill="url(#b)" d="M33 13h2v2h-2z"/><path fill="url(#d)" d="M55 11h2v2h-2z"/><path fill="url(#e)" d="M55 15h2v2h-2zM53 13h2v2h-2z"/><path fill="url(#d)" d="M57 13h2v2h-2z"/><path fill="url(#f)" d="M7 11h2v2H7z"/><path fill="url(#g)" d="M7 15h2v2H7zM5 13h2v2H5z"/><path fill="url(#f)" d="M9 13h2v2H9z"/><path fill="url(#h)" d="M44 5h2v2h-2z"/><path fill="url(#i)" d="M44 9h2v2h-2zM42 7h2v2h-2z"/><path fill="url(#h)" d="M46 7h2v2h-2z"/><path fill="url(#j)" d="M18 5h2v2h-2z"/><path fill="url(#k)" d="M18 9h2v2h-2zM16 7h2v2h-2z"/><path fill="url(#j)" d="M20 7h2v2h-2z"/></svg>