<svg width="1210" height="935" xmlns="http://www.w3.org/2000/svg" xmlns:xlink="http://www.w3.org/1999/xlink" style="margin-left:auto;margin-right:auto" display="block"><defs><clipPath id="c_1"><path d="M0 0h1210v935H0z"/></clipPath><style>text{white-space:pre}path{pointer-events:none}text::-moz-selection{color:transparent;background:rgba(0,106,173,.4)}text::selection{color:transparent;background:rgba(0,106,173,.4)}.s1,.s2,.s3{font-size:25.97px;font-family:Carlito-Bold_9;fill:TRANSPARENT}.s2,.s3{font-size:27.5px;font-family:Carlito_e}.s3{font-family:Carlito-Bold_9}.g5{fill:#d3dfee}.g6{fill:none;stroke:#4f81bd;stroke-width:1.527;stroke-linecap:butt;stroke-linejoin:round}</style></defs><path d="M0 0v935h1210V0z" fill="#FFF"/><g clip-path="url(#c_1)"><path fill-rule="evenodd" d="M862.1 327.6H575.2v-89.8H1149v89.8H862.1z" fill="#ccc1da"/><path fill-rule="evenodd" d="M862.1 546.7H575.2v-89.8H1149v89.8H862.1z" fill="#e6b9b8"/><path fill-rule="evenodd" d="M862.1 436.7H575.2v-89.8H1149v89.8H862.1z" fill="#faeb26"/><path fill-rule="evenodd" d="M862.1 220.8H575.2v-93H1149v93H862.1z" fill="#c3d69b"/><path fill-rule="evenodd" d="M864 661.3H574.3v-89.8h579.3v89.8H864z" fill="#b7dee8"/><g fill="#455F7B"><use xlink:href="#f0_2" transform="matrix(17 0 0 17 586.4 158.6)"/><use xlink:href="#f0_3" transform="matrix(17 0 0 17 599.5 158.6)"/><use xlink:href="#f0_7" transform="matrix(17 0 0 17 618.6 158.6)"/><use xlink:href="#f0_8" transform="matrix(17 0 0 17 629.6 158.6)"/><use xlink:href="#f0_9" transform="matrix(17 0 0 17 642.7 158.6)"/><use xlink:href="#f0_8" transform="matrix(17 0 0 17 654.9 158.6)"/><use xlink:href="#f0_a" transform="matrix(17 0 0 17 667.9 158.6)"/><use xlink:href="#f0_b" transform="matrix(17 0 0 17 674.3 158.6)"/><use xlink:href="#f0_c" transform="matrix(17 0 0 17 690.6 158.6)"/><use xlink:href="#f0_d" transform="matrix(17 0 0 17 698.7 158.6)"/><use xlink:href="#f0_a" transform="matrix(17 0 0 17 712.4 158.6)"/><use xlink:href="#f0_e" transform="matrix(17 0 0 17 718.8 158.6)"/><use xlink:href="#f0_f" transform="matrix(17 0 0 17 731.6 158.6)"/><use xlink:href="#f0_8" transform="matrix(17 0 0 17 742.3 158.6)"/><use xlink:href="#f0_g" transform="matrix(17 0 0 17 755.4 158.6)"/><use xlink:href="#f0_8" transform="matrix(17 0 0 17 776.5 158.6)"/><use xlink:href="#f0_h" transform="matrix(17 0 0 17 789.6 158.6)"/><use xlink:href="#f0_i" transform="matrix(17 0 0 17 803.5 158.6)"/><use xlink:href="#f0_j" transform="matrix(17 0 0 17 818.4 158.6)"/><use xlink:href="#f0_k" transform="matrix(17 0 0 17 831.3 158.6)"/><use xlink:href="#f0_8" transform="matrix(17 0 0 17 840.4 158.6)"/><use xlink:href="#f0_8" transform="matrix(17 0 0 17 853.5 158.6)"/><use xlink:href="#f0_l" transform="matrix(17 0 0 17 866.7 158.6)"/><use xlink:href="#f0_m" transform="matrix(17 0 0 17 586.4 194.9)"/></g><text x="586" y="158" dx="0,0,.1,-.1,0,.1,-.1,-.1,0,0,.1,0,-.1,0,0,-.2,.1,0,.1,0,0,.1,0,-.1,.1,.1" class="s1">15 Levels (Placement Tree)</text><g fill="#455F7B"><use xlink:href="#f0_o" transform="matrix(17 0 0 17 599.5 194.9)"/><use xlink:href="#f0_d" transform="matrix(17 0 0 17 612.6 194.9)"/><use xlink:href="#f0_p" transform="matrix(17 0 0 17 626.4 194.9)"/><use xlink:href="#f0_q" transform="matrix(17 0 0 17 647.8 194.9)"/><use xlink:href="#f0_e" transform="matrix(17 0 0 17 670.5 194.9)"/><use xlink:href="#f0_r" transform="matrix(17 0 0 17 683.2 194.9)"/><use xlink:href="#f0_h" transform="matrix(17 0 0 17 689.5 194.9)"/><use xlink:href="#f0_i" transform="matrix(17 0 0 17 703.4 194.9)"/><use xlink:href="#f0_8" transform="matrix(17 0 0 17 712.4 194.9)"/><use xlink:href="#f0_h" transform="matrix(17 0 0 17 725.5 194.9)"/><use xlink:href="#f0_e" transform="matrix(17 0 0 17 739.4 194.9)"/><use xlink:href="#f0_h" transform="matrix(17 0 0 17 752.2 194.9)"/><use xlink:href="#f0_f" transform="matrix(17 0 0 17 766.1 194.9)"/><use xlink:href="#f0_8" transform="matrix(17 0 0 17 777 194.9)"/><use xlink:href="#f0_u" transform="matrix(17 0 0 17 796 194.9)"/><use xlink:href="#f0_k" transform="matrix(17 0 0 17 813.6 194.9)"/><use xlink:href="#f0_v" transform="matrix(17 0 0 17 822.8 194.9)"/><use xlink:href="#f0_8" transform="matrix(17 0 0 17 836.7 194.9)"/><use xlink:href="#f0_k" transform="matrix(17 0 0 17 849.8 194.9)"/><use xlink:href="#f0_w" transform="matrix(17 0 0 17 858.9 194.9)"/><use xlink:href="#f0_q" transform="matrix(17 0 0 17 870.1 194.9)"/><use xlink:href="#f0_x" transform="matrix(17 0 0 17 892.8 194.9)"/><use xlink:href="#f0_h" transform="matrix(17 0 0 17 906.7 194.9)"/><use xlink:href="#f0_i" transform="matrix(17 0 0 17 920.6 194.9)"/><use xlink:href="#f0_y" transform="matrix(17 0 0 17 929.6 194.9)"/><use xlink:href="#f0_2" transform="matrix(17 0 0 17 586.4 286.9)"/></g><text x="586" y="194" dx="0,0,0,-.1,.2,-.1,0,-.1,0,0,0,.1,0,0,0,0,.1,.1,0,-.1,0,.1,-.1,0,0,-.1,0,0" class="s1">30PV Maintenance Order/Month</text><g fill="#455F7B"><use xlink:href="#f0_d" transform="matrix(17 0 0 17 605.4 286.9)"/><use xlink:href="#f0_8" transform="matrix(17 0 0 17 619.2 286.9)"/><use xlink:href="#f0_k" transform="matrix(17 0 0 17 632.3 286.9)"/><use xlink:href="#f0_b" transform="matrix(17 0 0 17 641.4 286.9)"/><use xlink:href="#f0_x" transform="matrix(17 0 0 17 651.8 286.9)"/><use xlink:href="#f0_h" transform="matrix(17 0 0 17 665.7 286.9)"/><use xlink:href="#f0_z" transform="matrix(17 0 0 17 685.5 286.9)"/><use xlink:href="#f0_m" transform="matrix(17 0 0 17 704.3 286.9)"/><use xlink:href="#f0_o" transform="matrix(17 0 0 17 717.5 286.9)"/><use xlink:href="#f0_d" transform="matrix(17 0 0 17 736.6 286.9)"/><use xlink:href="#f0_p" transform="matrix(17 0 0 17 750.3 286.9)"/><use xlink:href="#f0_10" transform="matrix(17 0 0 17 771.6 286.9)"/><use xlink:href="#f0_11" transform="matrix(17 0 0 17 790.4 286.9)"/><use xlink:href="#f0_13" transform="matrix(17 0 0 17 803.5 286.9)"/><use xlink:href="#f0_3" transform="matrix(17 0 0 17 810.4 286.9)"/><use xlink:href="#f0_14" transform="matrix(17 0 0 17 823.5 286.9)"/><use xlink:href="#f0_z" transform="matrix(17 0 0 17 848.4 286.9)"/><use xlink:href="#f0_2" transform="matrix(17 0 0 17 867.1 286.9)"/><use xlink:href="#f0_13" transform="matrix(17 0 0 17 880.3 286.9)"/><use xlink:href="#f0_m" transform="matrix(17 0 0 17 887.2 286.9)"/><use xlink:href="#f0_3" transform="matrix(17 0 0 17 900.3 286.9)"/><use xlink:href="#f0_15" transform="matrix(17 0 0 17 919.4 286.9)"/><use xlink:href="#f0_16" transform="matrix(17 0 0 17 936.3 286.9)"/><use xlink:href="#f0_17" transform="matrix(17 0 0 17 948.6 286.9)"/><use xlink:href="#f0_2" transform="matrix(17 0 0 17 586.4 396)"/></g><text x="586" y="286" dx="0,0,.1,-.1,.1,-.1,0,-.1,.1,-.1,0,-.1,0,.1,-.1,-.1,.1,.1,-.1,.1,0,-.1,0,0,.1,-.1,.1,0,-.1,0,.1,-.1,0,0" class="s1">1 Person = 30 PV * 4.5% = 1.35 USD</text><g fill="#455F7B"><use xlink:href="#f0_o" transform="matrix(17 0 0 17 599.5 396)"/><use xlink:href="#f0_o" transform="matrix(17 0 0 17 612.6 396)"/><use xlink:href="#f0_18" transform="matrix(17 0 0 17 631.7 396)"/><use xlink:href="#f0_8" transform="matrix(17 0 0 17 645.6 396)"/><use xlink:href="#f0_k" transform="matrix(17 0 0 17 658.7 396)"/><use xlink:href="#f0_b" transform="matrix(17 0 0 17 667.9 396)"/><use xlink:href="#f0_x" transform="matrix(17 0 0 17 678.3 396)"/><use xlink:href="#f0_h" transform="matrix(17 0 0 17 692.2 396)"/><use xlink:href="#f0_b" transform="matrix(17 0 0 17 706.1 396)"/><use xlink:href="#f0_z" transform="matrix(17 0 0 17 722.4 396)"/><use xlink:href="#f0_2" transform="matrix(17 0 0 17 741.2 396)"/><use xlink:href="#f0_o" transform="matrix(17 0 0 17 754.3 396)"/><use xlink:href="#f0_o" transform="matrix(17 0 0 17 767.5 396)"/><use xlink:href="#f0_10" transform="matrix(17 0 0 17 786.6 396)"/><use xlink:href="#f0_m" transform="matrix(17 0 0 17 805.3 396)"/><use xlink:href="#f0_o" transform="matrix(17 0 0 17 818.5 396)"/><use xlink:href="#f0_d" transform="matrix(17 0 0 17 831.6 396)"/><use xlink:href="#f0_p" transform="matrix(17 0 0 17 845.4 396)"/><use xlink:href="#f0_10" transform="matrix(17 0 0 17 866.7 396)"/><use xlink:href="#f0_11" transform="matrix(17 0 0 17 885.5 396)"/><use xlink:href="#f0_13" transform="matrix(17 0 0 17 898.7 396)"/><use xlink:href="#f0_3" transform="matrix(17 0 0 17 905.5 396)"/><use xlink:href="#f0_14" transform="matrix(17 0 0 17 918.7 396)"/><use xlink:href="#f0_z" transform="matrix(17 0 0 17 943.6 396)"/><use xlink:href="#f0_2" transform="matrix(17 0 0 17 962.3 396)"/><use xlink:href="#f0_m" transform="matrix(17 0 0 17 975.5 396)"/><use xlink:href="#f0_3" transform="matrix(17 0 0 17 988.6 396)"/><use xlink:href="#f0_15" transform="matrix(17 0 0 17 1007.7 396)"/><use xlink:href="#f0_16" transform="matrix(17 0 0 17 1024.6 396)"/><use xlink:href="#f0_17" transform="matrix(17 0 0 17 1036.9 396)"/><use xlink:href="#f0_2" transform="matrix(17 0 0 17 586.4 506)"/></g><text x="586" y="396" dx="0,0,0,.1,-.1,0,.1,-.1,0,-.1,0,.2,-.1,0,-.1,0,0,.1,-.1,0,-.1,0,0,-.1,.2,-.1,0,-.1,0,-.1,0,.1,-.1,0,-.1,0,0,.1,-.1,0,0" class="s1">100 persons = 100 * 30PV * 4.5% = 135 USD</text><g fill="#455F7B"><use xlink:href="#f0_o" transform="matrix(17 0 0 17 599.5 506)"/><use xlink:href="#f0_o" transform="matrix(17 0 0 17 612.6 506)"/><use xlink:href="#f0_o" transform="matrix(17 0 0 17 625.8 506)"/><use xlink:href="#f0_d" transform="matrix(17 0 0 17 644.9 506)"/><use xlink:href="#f0_8" transform="matrix(17 0 0 17 658.6 506)"/><use xlink:href="#f0_k" transform="matrix(17 0 0 17 671.7 506)"/><use xlink:href="#f0_b" transform="matrix(17 0 0 17 680.9 506)"/><use xlink:href="#f0_x" transform="matrix(17 0 0 17 691.3 506)"/><use xlink:href="#f0_h" transform="matrix(17 0 0 17 705.2 506)"/><use xlink:href="#f0_z" transform="matrix(17 0 0 17 725.1 506)"/><use xlink:href="#f0_2" transform="matrix(17 0 0 17 743.9 506)"/><use xlink:href="#f0_o" transform="matrix(17 0 0 17 757 506)"/><use xlink:href="#f0_o" transform="matrix(17 0 0 17 770.1 506)"/><use xlink:href="#f0_o" transform="matrix(17 0 0 17 783.3 506)"/><use xlink:href="#f0_10" transform="matrix(17 0 0 17 802.4 506)"/><use xlink:href="#f0_m" transform="matrix(17 0 0 17 821.1 506)"/><use xlink:href="#f0_o" transform="matrix(17 0 0 17 834.3 506)"/><use xlink:href="#f0_d" transform="matrix(17 0 0 17 847.4 506)"/><use xlink:href="#f0_p" transform="matrix(17 0 0 17 861.2 506)"/><use xlink:href="#f0_10" transform="matrix(17 0 0 17 882.5 506)"/><use xlink:href="#f0_11" transform="matrix(17 0 0 17 901.2 506)"/><use xlink:href="#f0_13" transform="matrix(17 0 0 17 914.4 506)"/><use xlink:href="#f0_3" transform="matrix(17 0 0 17 921.3 506)"/><use xlink:href="#f0_14" transform="matrix(17 0 0 17 934.4 506)"/><use xlink:href="#f0_z" transform="matrix(17 0 0 17 959.3 506)"/><use xlink:href="#f0_2" transform="matrix(17 0 0 17 978.1 506)"/><use xlink:href="#f0_19" transform="matrix(17 0 0 17 991.2 506)"/><use xlink:href="#f0_m" transform="matrix(17 0 0 17 997.9 506)"/><use xlink:href="#f0_3" transform="matrix(17 0 0 17 1011.1 506)"/><use xlink:href="#f0_o" transform="matrix(17 0 0 17 1024.2 506)"/><use xlink:href="#f0_15" transform="matrix(17 0 0 17 1043.3 506)"/><use xlink:href="#f0_16" transform="matrix(17 0 0 17 1060.2 506)"/><use xlink:href="#f0_17" transform="matrix(17 0 0 17 1072.5 506)"/><use xlink:href="#f0_2" transform="matrix(17 0 0 17 585.4 620.6)"/></g><text x="586" y="506" dx="0,0,0,0,.1,-.1,-.1,.1,-.1,0,-.1,.1,.1,-.1,.1,0,0,0,.1,-.1,0,-.1,0,0,-.1,.1,.1,-.1,.1,0,-.1,0,.1,-.1,0,-.1,0,0,0,0,.1,-.1,0,0" class="s1">1000 Person = 1000 * 30PV * 4.5% = 1,350 USD</text><g fill="#455F7B"><use xlink:href="#f0_o" transform="matrix(17 0 0 17 598.6 620.6)"/><use xlink:href="#f0_o" transform="matrix(17 0 0 17 611.7 620.6)"/><use xlink:href="#f0_o" transform="matrix(17 0 0 17 624.9 620.6)"/><use xlink:href="#f0_o" transform="matrix(17 0 0 17 638 620.6)"/><use xlink:href="#f0_d" transform="matrix(17 0 0 17 657.2 620.6)"/><use xlink:href="#f0_8" transform="matrix(17 0 0 17 670.9 620.6)"/><use xlink:href="#f0_k" transform="matrix(17 0 0 17 684.1 620.6)"/><use xlink:href="#f0_b" transform="matrix(17 0 0 17 693.2 620.6)"/><use xlink:href="#f0_x" transform="matrix(17 0 0 17 703.6 620.6)"/><use xlink:href="#f0_h" transform="matrix(17 0 0 17 717.5 620.6)"/><use xlink:href="#f0_z" transform="matrix(17 0 0 17 737.3 620.6)"/><use xlink:href="#f0_2" transform="matrix(17 0 0 17 756.1 620.6)"/><use xlink:href="#f0_o" transform="matrix(17 0 0 17 769.2 620.6)"/><use xlink:href="#f0_o" transform="matrix(17 0 0 17 782.4 620.6)"/><use xlink:href="#f0_o" transform="matrix(17 0 0 17 795.5 620.6)"/><use xlink:href="#f0_o" transform="matrix(17 0 0 17 808.7 620.6)"/><use xlink:href="#f0_10" transform="matrix(17 0 0 17 827.8 620.6)"/><use xlink:href="#f0_m" transform="matrix(17 0 0 17 846.5 620.6)"/><use xlink:href="#f0_o" transform="matrix(17 0 0 17 859.7 620.6)"/><use xlink:href="#f0_d" transform="matrix(17 0 0 17 872.8 620.6)"/><use xlink:href="#f0_p" transform="matrix(17 0 0 17 886.6 620.6)"/><use xlink:href="#f0_10" transform="matrix(17 0 0 17 907.9 620.6)"/><use xlink:href="#f0_11" transform="matrix(17 0 0 17 926.7 620.6)"/><use xlink:href="#f0_13" transform="matrix(17 0 0 17 939.9 620.6)"/><use xlink:href="#f0_3" transform="matrix(17 0 0 17 946.7 620.6)"/><use xlink:href="#f0_14" transform="matrix(17 0 0 17 959.9 620.6)"/><use xlink:href="#f0_z" transform="matrix(17 0 0 17 984.8 620.6)"/><use xlink:href="#f0_2" transform="matrix(17 0 0 17 1003.5 620.6)"/><use xlink:href="#f0_m" transform="matrix(17 0 0 17 1016.7 620.6)"/><use xlink:href="#f0_19" transform="matrix(17 0 0 17 1029.8 620.6)"/><use xlink:href="#f0_3" transform="matrix(17 0 0 17 1036.5 620.6)"/><use xlink:href="#f0_o" transform="matrix(17 0 0 17 1049.7 620.6)"/><use xlink:href="#f0_o" transform="matrix(17 0 0 17 1062.8 620.6)"/><use xlink:href="#f0_15" transform="matrix(17 0 0 17 1081.9 620.6)"/><use xlink:href="#f0_16" transform="matrix(17 0 0 17 1098.8 620.6)"/><use xlink:href="#f0_17" transform="matrix(17 0 0 17 1111.1 620.6)"/></g><text x="585" y="620" dx="0,0,0,0,0,.1,.1,-.1,.1,-.1,0,-.1,.1,-.1,0,-.1,0,0,0,0,.1,-.1,0,-.1,0,0,-.1,.2,-.1,0,-.1,0,-.1,0,.1,-.1,0,-.1,0,0,0,0,0,.1,-.1,0,0" class="s1">10000 Person = 10000 * 30PV * 4.5% = 13,500 USD</text><path fill-rule="evenodd" d="M43.4 161.9h168.9v-42.1H43.4v42.1zM212.4 161.9h334.3v-42.1H212.4v42.1zM43.4 246h168.9v-42H43.4v42zM212.4 246h334.3v-42H212.4v42zM43.4 332.2h168.9v-44.1H43.4v44.1zM212.4 332.2h334.3v-44.1H212.4v44.1zM43.4 418.4h168.9v-44.1H43.4v44.1zM212.4 418.4h334.3v-44.1H212.4v44.1zM43.4 506.5h168.9v-44H43.4v44zM212.4 506.5h334.3v-44H212.4v44zM43.4 594.7h168.9v-44.1H43.4v44.1zM212.4 594.7h334.3v-44.1H212.4v44.1zM43.4 682.8h168.9v-44H43.4v44zM212.4 682.8h334.3v-44H212.4v44zM43.4 771h168.9v-44.1H43.4V771zM212.4 771h334.3v-44.1H212.4V771z" class="g5"/><path d="M42.6 76.5h505" class="g6"/><path d="M42.6 121.5h505" fill="none" stroke="#4f81bd" stroke-width="3.437" stroke-linejoin="round"/><path d="M42.6 162.7h505m-505 42h505m-505 42.2h505m-505 42h505m-505 44.2h505m-505 42h505m-505 44.1h505m-505 44h505m-505 44.2h505m-505 44h505m-505 44.1h505m-505 44h505m-505 44.2h505m-505 44h505m-505 44.1h505M43.4 75.8v696.8m169-696.8v696.8M546.8 75.8v696.8" class="g6"/><g fill="gray"><use xlink:href="#f1_2" transform="matrix(18 0 0 18 92.4 104)"/><use xlink:href="#f1_3" transform="matrix(18 0 0 18 104 104)"/><use xlink:href="#f1_4" transform="matrix(18 0 0 18 117.2 104)"/><use xlink:href="#f1_5" transform="matrix(18 0 0 18 129.5 104)"/><use xlink:href="#f1_6" transform="matrix(18 0 0 18 143.3 104)"/><use xlink:href="#f1_7" transform="matrix(18 0 0 18 152.8 104)"/><use xlink:href="#f1_8" transform="matrix(18 0 0 18 279 104)"/><use xlink:href="#f1_9" transform="matrix(18 0 0 18 293.9 104)"/><use xlink:href="#f1_a" transform="matrix(18 0 0 18 308.3 104)"/><use xlink:href="#f1_b" transform="matrix(18 0 0 18 322.8 104)"/><use xlink:href="#f1_7" transform="matrix(18 0 0 18 337.2 104)"/><use xlink:href="#f1_d" transform="matrix(18 0 0 18 354.2 104)"/><use xlink:href="#f1_5" transform="matrix(18 0 0 18 368.2 104)"/><use xlink:href="#f1_6" transform="matrix(18 0 0 18 382 104)"/><use xlink:href="#f1_e" transform="matrix(18 0 0 18 391.6 104)"/><use xlink:href="#f1_5" transform="matrix(18 0 0 18 403.2 104)"/><use xlink:href="#f1_a" transform="matrix(18 0 0 18 416.7 104)"/><use xlink:href="#f1_f" transform="matrix(18 0 0 18 431.2 104)"/><use xlink:href="#f1_3" transform="matrix(18 0 0 18 440.4 104)"/><use xlink:href="#f1_g" transform="matrix(18 0 0 18 453.5 104)"/><use xlink:href="#f1_5" transform="matrix(18 0 0 18 466.5 104)"/><use xlink:href="#f1_h" transform="matrix(18 0 0 18 121 150)"/></g><text x="92" y="104" dx="0,0,0,-.1,.1,0" class="s2">Layers</text><text x="278" y="104" dx="0,0,-.1,.1,.1,-.1,0,-.1,.1,0,0,-.1,.1,0,0,0" class="s2">Bonus Percentage</text><use xlink:href="#f0_11" transform="matrix(18 0 0 18 352.2 150)" fill="gray"/><text x="121" y="150" class="s2">1</text><g fill="gray"><use xlink:href="#f0_13" transform="matrix(18 0 0 18 366.1 150)"/><use xlink:href="#f0_3" transform="matrix(18 0 0 18 373.4 150)"/><use xlink:href="#f0_14" transform="matrix(18 0 0 18 387.3 150)"/><use xlink:href="#f1_i" transform="matrix(18 0 0 18 121 190.2)"/></g><text x="352" y="150" class="s3">4.5%</text><use xlink:href="#f0_11" transform="matrix(18 0 0 18 352.2 190.2)" fill="gray"/><text x="121" y="190" class="s2">2</text><g fill="gray"><use xlink:href="#f0_13" transform="matrix(18 0 0 18 366.1 190.2)"/><use xlink:href="#f0_3" transform="matrix(18 0 0 18 373.4 190.2)"/><use xlink:href="#f0_14" transform="matrix(18 0 0 18 387.3 190.2)"/><use xlink:href="#f1_l" transform="matrix(18 0 0 18 121 232.2)"/></g><text x="352" y="190" class="s3">4.5%</text><use xlink:href="#f0_11" transform="matrix(18 0 0 18 352.2 232.2)" fill="gray"/><text x="121" y="232" class="s2">3</text><g fill="gray"><use xlink:href="#f0_13" transform="matrix(18 0 0 18 366.1 232.2)"/><use xlink:href="#f0_3" transform="matrix(18 0 0 18 373.4 232.2)"/><use xlink:href="#f0_14" transform="matrix(18 0 0 18 387.3 232.2)"/><use xlink:href="#f1_n" transform="matrix(18 0 0 18 121 274.4)"/></g><text x="352" y="232" class="s3">4.5%</text><use xlink:href="#f0_11" transform="matrix(18 0 0 18 352.2 274.4)" fill="gray"/><text x="121" y="274" class="s2">4</text><g fill="gray"><use xlink:href="#f0_13" transform="matrix(18 0 0 18 366.1 274.4)"/><use xlink:href="#f0_3" transform="matrix(18 0 0 18 373.4 274.4)"/><use xlink:href="#f0_14" transform="matrix(18 0 0 18 387.3 274.4)"/><use xlink:href="#f1_p" transform="matrix(18 0 0 18 121 316.4)"/></g><text x="352" y="274" class="s3">4.5%</text><use xlink:href="#f0_11" transform="matrix(18 0 0 18 352.2 316.4)" fill="gray"/><text x="121" y="316" class="s2">5</text><g fill="gray"><use xlink:href="#f0_13" transform="matrix(18 0 0 18 366.1 316.4)"/><use xlink:href="#f0_3" transform="matrix(18 0 0 18 373.4 316.4)"/><use xlink:href="#f0_14" transform="matrix(18 0 0 18 387.3 316.4)"/><use xlink:href="#f1_r" transform="matrix(18 0 0 18 121 360.6)"/></g><text x="352" y="316" class="s3">4.5%</text><use xlink:href="#f0_11" transform="matrix(18 0 0 18 352.2 360.6)" fill="gray"/><text x="121" y="360" class="s2">6</text><g fill="gray"><use xlink:href="#f0_13" transform="matrix(18 0 0 18 366.1 360.6)"/><use xlink:href="#f0_3" transform="matrix(18 0 0 18 373.4 360.6)"/><use xlink:href="#f0_14" transform="matrix(18 0 0 18 387.3 360.6)"/><use xlink:href="#f1_s" transform="matrix(18 0 0 18 121 402.6)"/></g><text x="352" y="360" class="s3">4.5%</text><use xlink:href="#f0_11" transform="matrix(18 0 0 18 352.2 402.6)" fill="gray"/><text x="121" y="402" class="s2">7</text><g fill="gray"><use xlink:href="#f0_13" transform="matrix(18 0 0 18 366.1 402.6)"/><use xlink:href="#f0_3" transform="matrix(18 0 0 18 373.4 402.6)"/><use xlink:href="#f0_14" transform="matrix(18 0 0 18 387.3 402.6)"/><use xlink:href="#f1_u" transform="matrix(18 0 0 18 121 446.7)"/></g><text x="352" y="402" class="s3">4.5%</text><use xlink:href="#f0_11" transform="matrix(18 0 0 18 352.2 446.7)" fill="gray"/><text x="121" y="446" class="s2">8</text><g fill="gray"><use xlink:href="#f0_13" transform="matrix(18 0 0 18 366.1 446.7)"/><use xlink:href="#f0_3" transform="matrix(18 0 0 18 373.4 446.7)"/><use xlink:href="#f0_14" transform="matrix(18 0 0 18 387.3 446.7)"/><use xlink:href="#f1_v" transform="matrix(18 0 0 18 121 490.7)"/></g><text x="352" y="446" class="s3">4.5%</text><use xlink:href="#f0_11" transform="matrix(18 0 0 18 352.2 490.7)" fill="gray"/><text x="121" y="490" class="s2">9</text><g fill="gray"><use xlink:href="#f0_13" transform="matrix(18 0 0 18 366.1 490.7)"/><use xlink:href="#f0_3" transform="matrix(18 0 0 18 373.4 490.7)"/><use xlink:href="#f0_14" transform="matrix(18 0 0 18 387.3 490.7)"/><use xlink:href="#f1_h" transform="matrix(18 0 0 18 114.1 534.9)"/></g><text x="352" y="490" class="s3">4.5%</text><g fill="gray"><use xlink:href="#f1_x" transform="matrix(18 0 0 18 128 534.9)"/><use xlink:href="#f0_11" transform="matrix(18 0 0 18 352.2 534.9)"/></g><text x="114" y="534" class="s2">10</text><g fill="gray"><use xlink:href="#f0_13" transform="matrix(18 0 0 18 366.1 534.9)"/><use xlink:href="#f0_3" transform="matrix(18 0 0 18 373.4 534.9)"/><use xlink:href="#f0_14" transform="matrix(18 0 0 18 387.3 534.9)"/><use xlink:href="#f1_h" transform="matrix(18 0 0 18 114.1 578.9)"/></g><text x="352" y="534" class="s3">4.5%</text><g fill="gray"><use xlink:href="#f1_h" transform="matrix(18 0 0 18 128 578.9)"/><use xlink:href="#f0_11" transform="matrix(18 0 0 18 352.2 578.9)"/></g><text x="114" y="578" class="s2">11</text><g fill="gray"><use xlink:href="#f0_13" transform="matrix(18 0 0 18 366.1 578.9)"/><use xlink:href="#f0_3" transform="matrix(18 0 0 18 373.4 578.9)"/><use xlink:href="#f0_14" transform="matrix(18 0 0 18 387.3 578.9)"/><use xlink:href="#f1_h" transform="matrix(18 0 0 18 114.1 623)"/></g><text x="352" y="578" class="s3">4.5%</text><g fill="gray"><use xlink:href="#f1_i" transform="matrix(18 0 0 18 128 623)"/><use xlink:href="#f0_11" transform="matrix(18 0 0 18 352.2 623)"/></g><text x="114" y="623" class="s2">12</text><g fill="gray"><use xlink:href="#f0_13" transform="matrix(18 0 0 18 366.1 623)"/><use xlink:href="#f0_3" transform="matrix(18 0 0 18 373.4 623)"/><use xlink:href="#f0_14" transform="matrix(18 0 0 18 387.3 623)"/><use xlink:href="#f1_h" transform="matrix(18 0 0 18 114.1 667)"/></g><text x="352" y="623" class="s3">4.5%</text><g fill="gray"><use xlink:href="#f1_l" transform="matrix(18 0 0 18 128 667)"/><use xlink:href="#f0_11" transform="matrix(18 0 0 18 352.2 667)"/></g><text x="114" y="667" class="s2">13</text><g fill="gray"><use xlink:href="#f0_13" transform="matrix(18 0 0 18 366.1 667)"/><use xlink:href="#f0_3" transform="matrix(18 0 0 18 373.4 667)"/><use xlink:href="#f0_14" transform="matrix(18 0 0 18 387.3 667)"/><use xlink:href="#f1_h" transform="matrix(18 0 0 18 114.1 711.2)"/></g><text x="352" y="667" class="s3">4.5%</text><g fill="gray"><use xlink:href="#f1_n" transform="matrix(18 0 0 18 128 711.2)"/><use xlink:href="#f0_11" transform="matrix(18 0 0 18 352.2 711.2)"/></g><text x="114" y="711" class="s2">14</text><g fill="gray"><use xlink:href="#f0_13" transform="matrix(18 0 0 18 366.1 711.2)"/><use xlink:href="#f0_3" transform="matrix(18 0 0 18 373.4 711.2)"/><use xlink:href="#f0_14" transform="matrix(18 0 0 18 387.3 711.2)"/><use xlink:href="#f1_h" transform="matrix(18 0 0 18 114.1 755.2)"/></g><text x="352" y="711" class="s3">4.5%</text><g fill="gray"><use xlink:href="#f1_p" transform="matrix(18 0 0 18 128 755.2)"/><use xlink:href="#f0_11" transform="matrix(18 0 0 18 352.2 755.2)"/></g><text x="114" y="755" class="s2">15</text><g fill="gray"><use xlink:href="#f0_13" transform="matrix(18 0 0 18 366.1 755.2)"/><use xlink:href="#f0_3" transform="matrix(18 0 0 18 373.4 755.2)"/><use xlink:href="#f0_14" transform="matrix(18 0 0 18 387.3 755.2)"/></g><text x="352" y="755" class="s3">4.5%</text></g><defs><path d="M176 0v134h192v555s0 35 2 72L241 650s-13-11-25-13c0 0-6-1-13-1-4 0-8 0-11 1 0 0-11 2-20 8 0 0-9 5-13 11l-57 78 298 258h148V134h169V0z" id="f0_2" transform="scale(.001 -.001)"/><path d="M333-9s-47 0-88 9c0 0-41 9-78 25 0 0-36 17-67 38 0 0-31 22-56 46l55 76s19 25 46 25c0 0 18 0 36-11 0 0 17-11 39-24 0 0 22-14 51-25 0 0 30-10 72-10 0 0 44 0 77 14 0 0 32 15 54 41 0 0 21 27 32 62 0 0 11 35 11 77 0 0 0 79-44 123 0 0-44 43-128 43 0 0-33 0-67-7 0 0-35-6-69-19L98 505l80 486h485v-76s0-38-24-62c0 0-25-24-82-24H304l-33-195s59 12 113 12c0 0 76 0 135-23 0 0 58-24 98-65 0 0 39-41 60-96 0 0 20-55 20-119 0 0 0-79-27-144 0 0-28-65-76-112 0 0-49-46-115-72 0 0-67-24-146-24z" id="f0_3" transform="scale(.001 -.001)"/><path d="M81 0v991h196V161h344V0z" id="f0_7" transform="scale(.001 -.001)"/><path d="M553 457s0 32-9 61c0 0-8 29-27 51 0 0-18 23-46 36 0 0-27 13-65 13 0 0-73 0-114-42 0 0-41-43-53-119zM411-10s-77 0-143 24c0 0-67 26-116 76 0 0-49 50-77 124 0 0-28 75-28 172 0 0 0 76 25 143 0 0 24 66 70 116 0 0 46 50 112 79 0 0 65 29 148 29 0 0 70 0 129-23 0 0 59-23 102-66 0 0 42-43 66-105 0 0 24-63 24-143 0 0 0-22-2-36 0 0-3-14-7-22 0 0-5-8-14-11 0 0-8-4-21-4H236s4-54 19-93c0 0 15-40 40-65 0 0 24-25 58-38 0 0 33-12 74-12 0 0 41 0 72 10 0 0 30 10 53 22 0 0 22 11 40 21 0 0 18 10 35 10 0 0 21 0 35-17l54-70s-30-36-68-59c0 0-37-24-77-37 0 0-40-14-81-19 0 0-41-6-79-6z" id="f0_8" transform="scale(.001 -.001)"/><path d="M275 0L8 741h157s21 0 35-10c0 0 13-10 19-25l108-378s23-68 36-138c0 0 8 35 17 68 0 0 9 34 22 70l112 378s5 15 19 25c0 0 13 10 32 10h150L448 0z" id="f0_9" transform="scale(.001 -.001)"/><path d="M93 0v1072h190V0z" id="f0_a" transform="scale(.001 -.001)"/><path d="M284-10s-36 0-71 7c0 0-35 5-67 18 0 0-32 12-60 28 0 0-28 17-48 36l44 72s8 12 19 20c0 0 12 7 30 7 0 0 16 0 31-9 0 0 14-9 31-19 0 0 17-11 41-20 0 0 24-9 60-9 0 0 27 0 46 7 0 0 19 6 30 18 0 0 12 11 18 26 0 0 5 15 5 31 0 0 0 33-24 51 0 0-25 18-62 32 0 0-38 13-81 27 0 0-42 14-80 39 0 0-37 25-62 65 0 0-24 40-24 107 0 0 0 46 17 87 0 0 17 42 51 73 0 0 34 31 84 50 0 0 51 19 118 19 0 0 36 0 71-7 0 0 34-7 64-19 0 0 30-12 55-30 0 0 25-17 45-37l-43-68s-7-13-16-18c0 0-8-5-21-5 0 0-14 0-28 7 0 0-15 7-32 16 0 0-18 9-40 16 0 0-22 7-52 7 0 0-44 0-69-21 0 0-25-20-25-55 0 0 0-23 15-38 0 0 14-15 37-27 0 0 24-11 53-21 0 0 30-10 61-21 0 0 31-11 61-27 0 0 29-15 53-37 0 0 23-23 38-55 0 0 14-32 14-77 0 0 0-53-19-99 0 0-19-45-55-78 0 0-36-33-89-52 0 0-54-17-124-17z" id="f0_b" transform="scale(.001 -.001)"/><path d="M292-230s-54 82-92 165c0 0-37 81-61 166 0 0-24 85-35 172 0 0-11 87-11 178 0 0 0 91 11 179 0 0 11 87 35 172 0 0 24 84 61 167 0 0 38 83 92 165l84-51s7-5 14-11c0 0 7-7 10-16 0 0 4-9 2-20 0 0-1-12-10-27 0 0-64-125-99-268 0 0-36-143-36-290 0 0 0-147 36-289 0 0 35-143 99-267 0 0 9-16 10-27 0 0 2-12-2-21 0 0-3-9-10-15l-14-12-84-50z" id="f0_c" transform="scale(.001 -.001)"/><path d="M404 496s90 0 132 47c0 0 41 48 41 130 0 0 0 77-42 122 0 0-43 45-131 45H282V496zM86 0v991h318s97 0 166-24c0 0 69-24 115-66 0 0 45-42 67-101 0 0 22-58 22-127 0 0 0-73-23-134 0 0-23-60-69-103 0 0-46-44-115-68 0 0-69-24-163-24H282V0z" id="f0_d" transform="scale(.001 -.001)"/><path d="M329 118s51 0 88 18c0 0 37 18 73 56v120s-74-3-123-12c0 0-48-10-78-24 0 0-29-15-41-34 0 0-12-20-12-42 0 0 0-45 25-63 0 0 25-19 68-19zM270-10s-48 0-87 12c0 0-40 13-68 38 0 0-29 26-45 63 0 0-16 38-16 87 0 0 0 41 21 82 0 0 21 41 72 75 0 0 50 33 134 55 0 0 84 22 209 25v39s0 72-30 105c0 0-30 34-86 34 0 0-41 0-69-10 0 0-27-9-48-21 0 0-21-12-38-21 0 0-18-10-41-10 0 0-19 0-33 10 0 0-14 10-22 24l-34 60s64 60 142 89c0 0 77 29 167 29 0 0 65 0 117-21 0 0 51-22 87-60 0 0 36-38 54-91 0 0 19-53 19-117V0h-86s-27 0-41 8c0 0-15 8-23 32l-16 49s-29-25-55-43c0 0-26-19-54-32 0 0-28-13-59-18 0 0-32-6-71-6z" id="f0_e" transform="scale(.001 -.001)"/><path d="M348-10s-62 0-118 25c0 0-55 25-98 75 0 0-42 49-66 120 0 0-25 71-25 162 0 0 0 82 22 151 0 0 21 69 63 120 0 0 43 52 105 81 0 0 62 29 144 29 0 0 78 0 137-28 0 0 59-27 106-78l-50-68s-9-11-17-17c0 0-8-6-23-6 0 0-14 0-26 8l-27 18s-15 10-36 19c0 0-20 8-52 8 0 0-39 0-67-17 0 0-29-16-48-47 0 0-18-30-28-74 0 0-9-44-9-99 0 0 0-115 40-178 0 0 39-62 108-62 0 0 37 0 59 10 0 0 21 11 36 23 0 0 15 13 27 23 0 0 13 10 30 10 0 0 22 0 33-17l56-70s-30-36-64-59c0 0-33-24-69-38 0 0-35-14-71-19 0 0-37-5-72-5z" id="f0_f" transform="scale(.001 -.001)"/><path d="M95 0v741h117s18 0 30-8c0 0 12-9 16-26l13-52s20 21 41 39c0 0 21 18 46 31 0 0 25 13 53 20 0 0 28 8 61 8 0 0 71 0 117-38 0 0 46-38 68-100 0 0 18 37 45 63 0 0 26 26 58 43 0 0 32 16 68 24 0 0 35 8 71 8 0 0 63 0 111-19 0 0 49-19 82-56 0 0 34-36 51-88 0 0 17-52 17-119V0H971v471s0 134-120 134c0 0-27 0-50-9 0 0-23-8-40-25 0 0-18-17-28-42 0 0-10-25-10-58V0H533v471s0 72-29 103c0 0-30 31-87 31 0 0-38 0-71-17 0 0-33-17-61-49V0z" id="f0_g" transform="scale(.001 -.001)"/><path d="M93 0v741h116s18 0 30-8c0 0 12-9 16-26l13-54s22 22 46 40c0 0 24 19 52 32 0 0 27 13 58 20 0 0 31 8 68 8 0 0 61 0 107-21 0 0 46-21 78-58 0 0 31-38 47-90 0 0 16-51 16-113V0H551v471s0 64-30 99c0 0-29 35-87 35 0 0-43 0-81-19 0 0-37-18-71-52V0z" id="f0_h" transform="scale(.001 -.001)"/><path d="M316-10s-96 0-147 54c0 0-52 56-52 153v404H50s-15 0-25 10c0 0-11 10-11 30v75l113 22 39 195s7 31 42 31h99V736h182V601H307V210s0-33 14-51c0 0 14-19 40-19 0 0 14 0 24 4 0 0 9 3 16 7 0 0 6 5 12 8 0 0 6 4 12 4 0 0 8 0 14-4 0 0 5-5 11-14l57-91s-39-32-88-49c0 0-50-15-103-15z" id="f0_i" transform="scale(.001 -.001)"/><path d="M280 0v831H13v160h730V831H476V0z" id="f0_j" transform="scale(.001 -.001)"/><path d="M82 0v741h111s29 0 41-11c0 0 11-10 15-36l10-76s33 64 78 100c0 0 45 37 104 37 0 0 48 0 80-23l-14-142s-2-13-9-19c0 0-8-6-21-6 0 0-11 0-32 4 0 0-21 3-38 3 0 0-27 0-47-7 0 0-21-8-37-22 0 0-16-15-28-36 0 0-13-21-23-47V0z" id="f0_k" transform="scale(.001 -.001)"/><path d="M184-230l-84 50s-8 6-15 12c0 0-6 6-9 15 0 0-4 9-2 21 0 0 1 11 10 27 0 0 64 124 99 267 0 0 36 142 36 289 0 0 0 147-36 290 0 0-35 143-99 268 0 0-9 15-10 27 0 0-2 11 2 20 0 0 3 9 9 16 0 0 7 6 15 11l84 51s53-82 91-165c0 0 38-83 61-167 0 0 24-85 35-172 0 0 12-88 12-179 0 0 0-91-11-178 0 0-12-87-36-172 0 0-23-85-61-166 0 0-38-83-91-165z" id="f0_l" transform="scale(.001 -.001)"/><path d="M397-9S326-9 272 6c0 0-54 16-95 50 0 0-40 33-70 82 0 0-29 49-50 114l79 34s20 8 42 8c5 0 11-1 16-2 0 0 28-6 39-29 0 0 13-26 28-48 0 0 15-22 34-39 0 0 19-16 44-26 0 0 24-10 56-10 0 0 40 0 69 13 0 0 30 13 49 35 0 0 20 21 29 48 0 0 10 27 10 53 0 0 0 35-6 63 0 0-7 28-29 49 0 0-22 20-64 31 0 0-43 11-116 11v128s61 0 101 11c0 0 39 10 61 29 0 0 22 19 31 45 0 0 8 27 8 59 0 0 0 68-34 102 0 0-34 34-95 34 0 0-55 0-91-30 0 0-37-31-51-76 0 0-12-34-32-45 0 0-12-6-34-6-7 0-14 1-22 2l-95 16s11 73 40 127c0 0 29 54 73 90 0 0 44 36 100 55 0 0 57 18 122 18 0 0 68 0 123-20 0 0 55-20 93-55 0 0 38-35 58-81 0 0 21-47 21-100 0 0 0-47-10-83 0 0-10-36-30-62 0 0-19-27-47-46 0 0-29-19-65-31 0 0 170-57 170-229 0 0 0-75-27-132 0 0-28-57-74-96 0 0-45-39-106-58 0 0-61-18-128-18z" id="f0_m" transform="scale(.001 -.001)"/><path d="M386 138s33 0 63 16c0 0 31 16 55 57 0 0 24 40 39 109 0 0 14 69 14 176 0 0 0 106-14 175 0 0-15 69-39 110 0 0-24 40-55 56 0 0-30 16-63 16 0 0-33 0-63-16 0 0-31-16-54-56 0 0-24-41-38-110 0 0-14-69-14-175 0 0 0-107 14-176 0 0 14-69 38-109 0 0 23-41 54-57 0 0 30-16 63-16zm0-147s-76 0-141 29c0 0-64 30-112 93 0 0-48 62-75 158 0 0-27 95-27 225 0 0 0 130 27 225 0 0 27 95 75 157 0 0 48 63 112 93 0 0 65 31 141 31 0 0 76 0 141-31 0 0 65-30 113-93 0 0 49-62 76-157 0 0 27-95 27-225 0 0 0-130-27-225 0 0-27-96-76-158 0 0-48-63-113-93 0 0-65-29-141-29z" id="f0_o" transform="scale(.001 -.001)"/><path d="M363 0L1 991h157s26 0 42-12c0 0 16-12 24-32l186-584s11-31 23-67c0 0 11-36 21-74 0 0 8 39 18 75 0 0 10 36 22 67l186 583s6 18 23 31c0 0 17 13 41 13h159L540 0z" id="f0_p" transform="scale(.001 -.001)"/><path d="M104 0v991h148s13 0 22-1c0 0 9-1 17-4 0 0 8-3 14-9 0 0 7-6 13-17l307-537s25-47 44-98c0 0 11 26 21 51 0 0 10 25 23 48l305 536s6 11 13 18c0 0 6 6 13 9 0 0 8 2 18 3 0 0 9 1 22 1h148V0h-173v620s0 20 1 44c0 0 2 23 4 48L751 158s-23-43-68-43h-27s-46 0-69 43L271 715s3-26 4-50c0 0 2-24 2-45V0z" id="f0_q" transform="scale(.001 -.001)"/><path d="M93 0v741h190V0zm91 836s-24 0-45 9c0 0-21 9-37 25 0 0-16 16-26 37 0 0-9 22-9 46 0 0 0 25 9 47 0 0 10 21 26 37 0 0 16 16 37 26 0 0 21 9 45 9 0 0 25 0 47-9 0 0 23-10 39-26 0 0 16-16 26-37 0 0 10-22 10-47 0 0 0-24-10-45 0 0-10-22-26-38 0 0-16-16-39-25 0 0-22-9-47-9z" id="f0_r" transform="scale(.001 -.001)"/><path d="M518 157s65 0 117 23c0 0 52 23 88 67 0 0 36 43 56 106 0 0 19 63 19 143 0 0 0 79-19 142 0 0-20 62-56 106 0 0-36 45-88 68 0 0-52 24-117 24 0 0-66 0-118-24 0 0-52-23-89-67 0 0-36-45-55-107 0 0-20-63-20-142 0 0 0-80 20-143 0 0 19-63 55-106 0 0 37-44 89-67 0 0 52-23 118-23zm0-166S410-9 321 28c0 0-89 38-152 106 0 0-64 67-98 160 0 0-35 93-35 202 0 0 0 108 34 201 0 0 35 93 99 161 0 0 63 67 152 105 0 0 89 39 197 39 0 0 108 0 197-39 0 0 88-38 151-106 0 0 64-68 98-160 0 0 34-93 34-201 0 0 0-109-34-202 0 0-34-93-98-160 0 0-63-68-151-106 0 0-89-37-197-37z" id="f0_u" transform="scale(.001 -.001)"/><path d="M381 139s26 0 48 5c0 0 22 6 41 16 0 0 19 11 35 26 0 0 17 15 33 36v326s-28 36-62 50c0 0-33 14-71 14 0 0-36 0-67-15 0 0-30-14-51-44 0 0-21-30-33-76 0 0-12-46-12-108 0 0 0-64 10-108 0 0 10-43 28-70 0 0 18-28 43-40 0 0 26-12 58-12zM315-10s-59 0-108 24c0 0-50 26-85 74 0 0-35 49-55 119 0 0-20 71-20 162 0 0 0 82 22 153 0 0 23 70 64 122 0 0 41 52 99 81 0 0 57 30 128 30 0 0 60 0 102-18 0 0 42-19 76-51v386h189V0H610s-17 0-29 9c0 0-13 8-16 25l-17 67s-44-50-100-81c0 0-57-30-133-30z" id="f0_v" transform="scale(.001 -.001)"/><path d="M-12-68l506 1074s13 32 38 49c0 0 25 17 60 17h79L168 1s-14-34-43-52c0 0-28-17-59-17z" id="f0_w" transform="scale(.001 -.001)"/><path d="M412 134s86 0 127 60c0 0 41 60 41 177 0 0 0 117-41 177 0 0-41 60-127 60 0 0-87 0-129-60 0 0-41-60-41-177 0 0 0-117 41-177 0 0 42-60 129-60zm0-144s-82 0-150 26c0 0-67 27-115 76 0 0-49 50-75 121 0 0-26 70-26 159 0 0 0 88 26 158 0 0 26 71 75 120 0 0 48 50 115 76 0 0 68 27 150 27 0 0 81 0 148-27 0 0 67-26 115-76 0 0 48-49 74-120 0 0 26-70 26-158 0 0 0-89-26-159 0 0-26-71-74-121 0 0-48-49-115-76 0 0-67-26-148-26z" id="f0_x" transform="scale(.001 -.001)"/><path d="M93 0v1072h190V666s42 39 92 63c0 0 49 24 118 24 0 0 61 0 107-21 0 0 46-21 77-58 0 0 32-38 48-90 0 0 16-51 16-113V0H551v471s0 64-29 99c0 0-29 35-87 35 0 0-43 0-81-19 0 0-38-18-71-52V0z" id="f0_y" transform="scale(.001 -.001)"/><path d="M59 286v139h642V286zm0 256v140h642V542z" id="f0_z" transform="scale(.001 -.001)"/><path d="M334 598v129s0 15 2 29c0 0 2 14 6 27 0 0-8-11-19-19 0 0-10-8-23-15l-112-65-45 75 112 66s13 8 26 13c0 0 14 5 27 7 0 0-28 5-53 21l-112 67 45 75 112-66s13-7 24-15c0 0 11-9 19-19 0 0-5 13-7 26 0 0-2 13-2 28v131h90V963s0-15-1-29c0 0-2-13-7-26 0 0 8 10 20 19 0 0 11 8 24 15l111 65 44-75-111-66s-13-7-26-13c0 0-13-6-27-8 0 0 14-2 27-7 0 0 14-5 26-13l111-67-44-75-111 66s-28 15-45 34c0 0 9-24 9-54V598z" id="f0_10" transform="scale(.001 -.001)"/><path d="M480 377v306s0 22 2 48c0 0 1 25 4 53L201 377zm0-377v238H78s-17 0-31 11c0 0-13 11-17 28l-19 90 454 624h172V377h114V274s0-15-9-26c0 0-10-10-27-10h-78V0z" id="f0_11" transform="scale(.001 -.001)"/><path d="M204-9s-24 0-45 8c0 0-21 8-36 23 0 0-16 15-24 35 0 0-9 21-9 45 0 0 0 23 9 44 0 0 8 21 24 36 0 0 15 15 36 24 0 0 21 9 45 9 0 0 24 0 44-9 0 0 21-9 37-24 0 0 15-15 24-36 0 0 9-21 9-44 0 0 0-24-9-45 0 0-9-20-24-35 0 0-16-15-37-23 0 0-20-8-44-8z" id="f0_13" transform="scale(.001 -.001)"/><path d="M840 110s19 0 35 6c0 0 16 7 29 23 0 0 12 15 19 42 0 0 7 26 7 64 0 0 0 40-7 67 0 0-7 27-19 43 0 0-13 16-29 24 0 0-16 7-35 7 0 0-19 0-34-7 0 0-16-8-28-24 0 0-11-16-18-43 0 0-7-27-7-67 0 0 0-38 7-64 0 0 7-27 18-42 0 0 12-16 28-23 0 0 15-6 34-6zm0-122s-51 0-93 18c0 0-43 18-74 52 0 0-31 34-49 82 0 0-18 47-18 105 0 0 0 61 18 109 0 0 18 49 49 83 0 0 31 34 74 53 0 0 42 18 93 18 0 0 51 0 95-18 0 0 43-19 74-53 0 0 32-34 49-83 0 0 18-48 18-109 0 0 0-58-20-105 0 0-19-48-52-82 0 0-32-34-74-52 0 0-43-18-90-18zM272 655s19 0 35 7c0 0 17 6 29 22 0 0 12 16 18 42 0 0 7 26 7 65 0 0 0 40-7 67 0 0-6 27-18 43 0 0-12 17-29 24 0 0-16 7-35 7 0 0-19 0-35-7 0 0-15-7-27-24 0 0-12-16-19-43 0 0-6-27-6-67 0 0 0-39 6-65 0 0 7-26 19-42 0 0 12-16 27-22 0 0 16-7 35-7zM134 0l635 981s19 30 42 46c0 0 24 16 57 16h82L310 54s-20-32-43-43c0 0-22-11-52-11zm138 533s-50 0-93 19c0 0-43 18-75 52 0 0-31 33-48 81 0 0-18 48-18 106 0 0 0 60 18 109 0 0 17 48 48 82 0 0 32 35 75 53 0 0 43 18 93 18 0 0 51 0 94-18 0 0 44-18 75-53 0 0 31-34 49-82 0 0 17-49 17-109 0 0 0-58-19-106 0 0-20-48-52-81 0 0-32-34-75-52 0 0-42-19-89-19z" id="f0_14" transform="scale(.001 -.001)"/><path d="M499-10s-96 0-173 29c0 0-78 31-131 86 0 0-54 55-83 130 0 0-28 75-28 165v591h196V400s0-55 15-100c0 0 15-45 43-76 0 0 28-32 68-49 0 0 41-17 93-17 0 0 52 0 93 17 0 0 41 17 69 49 0 0 28 31 42 76 0 0 15 45 15 100v591h196V400s0-90-29-165c0 0-29-75-82-130 0 0-54-55-131-86 0 0-77-29-173-29z" id="f0_15" transform="scale(.001 -.001)"/><path d="M345-9s-45 0-89 9c0 0-45 8-86 25 0 0-41 18-77 41 0 0-37 24-65 54l59 93s6 12 18 18c0 0 11 7 25 7 0 0 18 0 37-14 0 0 19-14 44-30 0 0 25-17 59-31 0 0 34-14 80-14 0 0 67 0 104 35 0 0 38 34 38 101 0 0 0 38-19 62 0 0-18 24-48 40 0 0-30 16-68 27 0 0-38 12-78 25 0 0-40 14-79 33 0 0-38 19-68 50 0 0-30 32-48 78 0 0-18 46-18 115 0 0 0 54 21 106 0 0 20 52 61 92 0 0 40 40 99 65 0 0 58 24 133 24 0 0 85 0 158-28 0 0 73-27 124-77l-50-93s-7-15-17-21c0 0-10-6-25-6 0 0-14 0-31 10 0 0-16 10-38 23 0 0-22 12-51 23 0 0-29 10-67 10 0 0-67 0-101-33 0 0-34-33-34-86 0 0 0-33 18-55 0 0 18-22 48-38 0 0 31-16 69-29 0 0 38-13 79-27 0 0 40-15 78-35 0 0 39-19 69-49 0 0 30-30 49-73 0 0 18-44 18-105 0 0 0-68-22-127 0 0-22-58-65-102 0 0-42-44-104-69 0 0-61-24-140-24z" id="f0_16" transform="scale(.001 -.001)"/><path d="M448 156s65 0 117 23c0 0 53 23 89 67 0 0 36 44 55 107 0 0 20 63 20 143 0 0 0 79-20 142 0 0-19 62-55 106 0 0-36 45-89 68 0 0-52 24-117 24H283V156zM87 0v991h361s108 0 197-37c0 0 88-36 151-102 0 0 63-66 98-157 0 0 34-91 34-199 0 0 0-109-34-200 0 0-35-92-98-157 0 0-63-66-151-102 0 0-89-37-197-37z" id="f0_17" transform="scale(.001 -.001)"/><path d="M414 132s37 0 67 15c0 0 30 14 52 44 0 0 21 30 33 76 0 0 11 46 11 109 0 0 0 63-9 106 0 0-10 44-28 71 0 0-18 27-43 40 0 0-26 12-58 12 0 0-53 0-89-21 0 0-37-22-69-62V194s29-34 62-48c0 0 33-14 71-14zM92-239v980h116s18 0 30-8c0 0 13-9 16-26l16-65s22 25 47 46c0 0 25 21 53 36 0 0 29 15 62 23 0 0 33 8 72 8 0 0 59 0 108-25 0 0 50-26 85-74 0 0 36-48 56-119 0 0 20-71 20-161 0 0 0-83-23-154 0 0-22-71-63-122 0 0-41-52-99-82 0 0-58-28-129-28 0 0-61 0-102 17 0 0-42 18-76 50v-296z" id="f0_18" transform="scale(.001 -.001)"/><path d="M145-206l-33 30s-8 7-11 13c0 0-3 7-3 16 0 0 0 6 5 13 0 0 4 7 10 13 0 0 9 9 20 22 0 0 12 12 23 28 0 0 12 16 22 35 0 0 9 18 14 39 0 0-23 1-42 9 0 0-19 9-33 24 0 0-14 15-22 34 0 0-7 20-7 44 0 0 0 21 8 40 0 0 8 18 22 32 0 0 15 13 35 21 0 0 19 8 44 8 0 0 29 0 50-10 0 0 22-10 35-28 0 0 14-17 21-40 0 0 7-23 7-48 0 0 0-35-10-74 0 0-11-38-32-77 0 0-20-39-51-76 0 0-31-37-72-68z" id="f0_19" transform="scale(.001 -.001)"/><path d="M103 0v980h136V114h378V0z" id="f1_2" transform="scale(.001 -.001)"/><path d="M307 81s32 0 60 6c0 0 28 7 52 19 0 0 25 13 47 31 0 0 22 18 44 41v150s-88-3-149-14c0 0-61-11-100-29 0 0-38-18-55-42 0 0-17-24-17-54 0 0 0-29 9-49 0 0 9-21 25-34 0 0 16-13 37-19 0 0 22-6 47-6zm-40-91s-42 0-79 10c0 0-37 12-65 36 0 0-28 24-44 61 0 0-16 36-16 85 0 0 0 43 23 83 0 0 24 40 77 71 0 0 53 32 138 52 0 0 85 19 209 22v56s0 85-37 128c0 0-36 43-105 43 0 0-46 0-78-12 0 0-32-12-55-26 0 0-23-14-40-26 0 0-17-12-34-12 0 0-13 0-23 7 0 0-10 6-16 17l-24 42s61 58 131 87c0 0 69 28 154 28 0 0 62 0 109-20 0 0 48-19 80-56 0 0 32-36 49-87 0 0 17-51 17-113V0h-58s-20 0-30 6c0 0-11 6-14 25l-17 67s-28-26-55-46c0 0-28-21-57-35 0 0-30-14-65-20 0 0-34-7-75-7z" id="f1_3" transform="scale(.001 -.001)"/><path d="M162-245L287 43 8 730h114s17 0 26-9c0 0 9-8 13-18l170-457s6-15 12-31c0 0 5-16 9-31l10 32 12 32 165 455s4 11 15 19c0 0 10 8 23 8h104L305-214s-6-15-16-23c0 0-10-8-29-8z" id="f1_4" transform="scale(.001 -.001)"/><path d="M587 445s0 44-13 81c0 0-12 36-36 63 0 0-24 26-59 41 0 0-34 15-78 15 0 0-91 0-145-53 0 0-53-54-67-147zM406-9s-76 0-140 24c0 0-65 25-111 75 0 0-47 50-73 122 0 0-26 73-26 168 0 0 0 76 23 142 0 0 24 66 68 115 0 0 45 49 108 76 0 0 64 28 144 28 0 0 66 0 122-22 0 0 56-22 97-63 0 0 41-42 64-102 0 0 23-61 23-139 0 0 0-31-7-41 0 0-6-10-24-10H186s1-69 18-120c0 0 18-51 48-84 0 0 30-34 72-51 0 0 42-16 93-16 0 0 48 0 83 10 0 0 35 11 60 25 0 0 25 13 42 24 0 0 17 11 30 11 0 0 8 0 14-4 0 0 6-3 10-9l38-48s-25-29-58-50c0 0-33-21-71-35 0 0-38-14-79-20 0 0-41-6-80-6z" id="f1_5" transform="scale(.001 -.001)"/><path d="M98 0v730h75s21 0 30-9c0 0 8-8 10-27l9-108s33 73 82 114c0 0 50 42 119 42 0 0 23 0 43-5 0 0 20-4 37-16l-11-97s-2-18-21-18c0 0-10 0-29 4 0 0-19 4-42 4 0 0-34 0-59-10 0 0-26-10-47-30 0 0-20-20-36-48 0 0-16-28-29-65V0z" id="f1_6" transform="scale(.001 -.001)"/><path d="M284-10s-72 0-131 23c0 0-60 25-101 65l31 49s6 10 14 15c0 0 8 5 21 5 0 0 13 0 27-10 0 0 13-10 32-22 0 0 19-13 46-23 0 0 27-10 67-10 0 0 35 0 59 10 0 0 25 9 42 25 0 0 16 17 25 38 0 0 8 22 8 46 0 0 0 30-16 49 0 0-15 20-39 34 0 0-25 14-57 24 0 0-32 11-65 22 0 0-33 12-65 26 0 0-31 15-56 38 0 0-25 22-40 55 0 0-15 33-15 80 0 0 0 42 16 81 0 0 17 38 48 67 0 0 31 29 78 47 0 0 46 17 106 17 0 0 67 0 123-23 0 0 55-22 94-62l-29-47s-9-17-27-17c0 0-12 0-25 9 0 0-13 8-31 17 0 0-18 9-43 18 0 0-25 8-59 8 0 0-30 0-53-8 0 0-23-9-39-23 0 0-17-14-26-33 0 0-9-19-9-41 0 0 0-28 15-47 0 0 15-18 40-32 0 0 25-13 56-24 0 0 32-11 65-22 0 0 33-11 64-26 0 0 32-15 57-37 0 0 24-21 39-52 0 0 15-31 15-75 0 0 0-51-17-94 0 0-17-43-50-74 0 0-34-31-83-49 0 0-48-17-112-17z" id="f1_7" transform="scale(.001 -.001)"/><path d="M436 107s52 0 89 13c0 0 37 14 60 37 0 0 24 23 35 55 0 0 10 33 10 71 0 0 0 75-47 119 0 0-47 44-147 44H243V107zm-35 435s50 0 88 12c0 0 37 12 62 34 0 0 24 21 36 52 0 0 13 31 13 68 0 0 0 86-47 126 0 0-46 40-146 40H243V542zM107 0v980h300s86 0 148-17c0 0 63-18 103-51 0 0 39-33 58-81 0 0 19-47 19-107 0 0 0-35-11-69 0 0-11-34-32-62 0 0-22-28-55-51 0 0-33-24-78-38 0 0 103-20 155-76 0 0 51-57 51-148 0 0 0-63-21-114 0 0-22-52-64-89 0 0-41-37-102-57 0 0-61-20-139-20z" id="f1_8" transform="scale(.001 -.001)"/><path d="M404 92s53 0 92 18c0 0 40 18 66 53 0 0 27 35 40 86 0 0 13 51 13 116 0 0 0 65-13 115 0 0-13 51-40 86 0 0-26 35-66 54 0 0-39 19-92 19 0 0-54 0-94-19 0 0-40-19-66-54 0 0-27-35-40-86 0 0-13-50-13-115 0 0 0-65 13-116 0 0 13-51 40-86 0 0 26-35 66-53 0 0 40-18 94-18zm0-101s-80 0-145 25c0 0-64 27-109 75 0 0-46 49-70 119 0 0-24 69-24 156 0 0 0 85 24 155 0 0 24 69 70 118 0 0 45 49 109 75 0 0 65 27 145 27 0 0 79 0 144-27 0 0 64-26 108-75 0 0 45-49 69-118 0 0 25-70 25-155 0 0 0-87-25-156 0 0-24-70-69-119 0 0-44-48-108-75 0 0-65-25-144-25z" id="f1_9" transform="scale(.001 -.001)"/><path d="M104 0v730h79s14 0 23-7c0 0 9-6 10-20l12-78s47 52 105 84c0 0 58 32 134 32 0 0 60 0 105-20 0 0 45-20 76-56 0 0 30-36 46-87 0 0 15-51 15-113V0H578v465s0 81-37 127c0 0-37 45-112 45 0 0-56 0-104-26 0 0-49-27-89-74V0z" id="f1_a" transform="scale(.001 -.001)"/><path d="M336-10s-60 0-105 19c0 0-45 19-76 56 0 0-30 36-46 87 0 0-16 51-16 113v465h132V265s0-82 36-127c0 0 37-45 113-45 0 0 56 0 104 26 0 0 48 26 89 73v538h131V0h-79s-13 0-22 6c0 0-9 7-11 21l-12 77s-47-52-104-83c0 0-58-31-134-31z" id="f1_b" transform="scale(.001 -.001)"/><path d="M391 473s52 0 92 15c0 0 41 15 68 42 0 0 27 27 41 64 0 0 14 37 14 82 0 0 0 94-53 146 0 0-53 52-162 52H245V473zM110 0v980h281s89 0 155-21c0 0 66-22 110-62 0 0 43-39 64-95 0 0 22-57 22-126 0 0 0-69-23-125 0 0-23-57-67-99 0 0-45-41-110-64 0 0-65-22-151-22H245V0z" id="f1_d" transform="scale(.001 -.001)"/><path d="M357-9s-64 0-120 24c0 0-56 25-97 73 0 0-42 49-65 118 0 0-24 70-24 160 0 0 0 81 22 150 0 0 22 69 63 119 0 0 42 50 102 78 0 0 61 28 140 28 0 0 75 0 131-25 0 0 56-25 99-70l-34-48s-6-8-12-12c0 0-5-4-16-4 0 0-11 0-23 9 0 0-12 9-30 20 0 0-18 10-44 19 0 0-25 9-63 9 0 0-49 0-86-19 0 0-38-19-63-54 0 0-25-36-38-86 0 0-13-51-13-114 0 0 0-66 14-117 0 0 13-51 39-86 0 0 25-35 61-54 0 0 36-18 80-18 0 0 44 0 71 11 0 0 28 11 47 25 0 0 18 13 31 24 0 0 12 12 25 12 0 0 15 0 24-13l38-48s-24-29-53-50c0 0-29-21-62-35 0 0-34-14-70-20 0 0-36-6-74-6z" id="f1_e" transform="scale(.001 -.001)"/><path d="M311-10s-84 0-130 47c0 0-45 49-45 139v445H52s-11 0-19 7c0 0-8 8-8 22v52l115 15 31 224s1 12 9 18c0 0 8 7 20 7h67V716h201v-95H267V185s0-45 21-67c0 0 20-23 53-23 0 0 19 0 33 6 0 0 14 5 24 12 0 0 9 6 16 12 0 0 7 5 13 5 0 0 7 0 11-3 0 0 4-3 8-10l39-63s-34-31-79-48c0 0-46-16-95-16z" id="f1_f" transform="scale(.001 -.001)"/><path d="M355-167s49 0 87 10c0 0 38 10 65 26 0 0 26 17 39 41 0 0 13 23 13 51 0 0 0 27-13 42 0 0-14 16-38 26 0 0-24 9-55 13 0 0-32 4-67 6 0 0-35 3-71 4 0 0-36 2-70 7 0 0-36-19-59-47 0 0-23-26-23-64 0 0 0-25 11-45 0 0 11-21 34-37 0 0 24-15 61-24 0 0 36-9 86-9zm-10 525s72 0 109 40c0 0 37 41 37 106 0 0 0 66-37 105 0 0-37 39-109 39 0 0-71 0-108-39 0 0-37-39-37-105 0 0 0-33 9-59 0 0 10-26 28-46 0 0 18-19 45-30 0 0 28-11 63-11zm8-620s-77 0-134 16c0 0-58 16-96 43 0 0-38 26-57 62 0 0-18 35-18 73 0 0 0 53 31 90 0 0 32 37 88 59 0 0-30 14-48 38 0 0-18 25-18 66 0 0 0 31 22 66 0 0 22 35 67 59 0 0-51 30-81 80 0 0-29 50-29 117 0 0 0 53 20 97 0 0 19 43 54 74 0 0 35 31 84 47 0 0 48 17 107 17 0 0 45 0 85-11 0 0 39-10 71-30h191v-48s0-26-30-31l-77-11s23-48 23-104c0 0 0-54-20-97 0 0-20-44-55-74 0 0-35-31-83-48 0 0-48-16-105-16 0 0-48 0-88 11 0 0-22-14-32-30 0 0-11-17-11-32 0 0 0-26 20-39 0 0 20-13 53-19 0 0 33-6 75-7 0 0 42-2 85-5 0 0 44-3 86-11 0 0 41-7 74-25 0 0 33-19 53-50 0 0 20-32 20-82 0 0 0-47-22-91 0 0-22-44-65-78 0 0-42-35-103-55 0 0-60-21-137-21z" id="f1_g" transform="scale(.001 -.001)"/><path d="M190 0v95h204v662s0 29 2 61L230 671s-13-11-28-11c-2 0-5 1-7 1 0 0-17 5-23 15l-40 54 286 253h101V95h187V0z" id="f1_h" transform="scale(.001 -.001)"/><path d="M69 0v43s0 12 5 27c0 0 5 14 18 26l303 314s39 39 70 76c0 0 31 36 53 73 0 0 21 37 33 75 0 0 12 38 12 81 0 0 0 42-13 74 0 0-13 32-35 54 0 0-23 21-53 31 0 0-31 11-67 11 0 0-35 0-65-11 0 0-29-11-52-30 0 0-24-19-40-45 0 0-16-27-24-58 0 0-6-26-20-33 0 0-10-6-27-6-4 0-9 1-14 1l-65 11s9 68 36 120c0 0 27 51 68 87 0 0 41 35 95 53 0 0 53 17 115 17 0 0 62 0 115-18 0 0 53-19 92-54 0 0 39-35 61-86 0 0 22-50 22-115 0 0 0-55-17-101 0 0-16-47-43-90 0 0-27-42-63-83 0 0-36-40-75-81L242 101s29 8 58 12c0 0 28 5 54 5h311s21 0 32-12c0 0 12-11 12-31V0z" id="f1_i" transform="scale(.001 -.001)"/><path d="M396-9S320-9 266 9c0 0-53 19-91 53 0 0-38 34-63 80 0 0-25 47-41 102l54 23s14 6 31 6c3 0 7 0 10-1 0 0 20-3 29-22 0 0 9-19 22-46 0 0 13-26 35-51 0 0 23-24 57-41 0 0 34-17 86-17 0 0 49 0 85 17 0 0 37 17 62 43 0 0 24 26 37 59 0 0 12 33 12 64 0 0 0 39-10 72 0 0-10 33-36 57 0 0-27 23-75 37 0 0-47 13-122 13v91s62 0 104 13c0 0 43 13 69 36 0 0 27 22 39 53 0 0 12 32 12 69 0 0 0 42-12 73 0 0-12 31-34 52 0 0-22 21-53 31 0 0-30 10-66 10 0 0-36 0-65-11 0 0-29-11-53-30 0 0-23-19-39-45 0 0-16-27-24-58 0 0-6-26-20-33 0 0-10-6-27-6-5 0-9 1-14 1l-66 11s10 68 37 120c0 0 27 51 68 87 0 0 41 35 95 53 0 0 53 17 115 17 0 0 62 0 113-17 0 0 52-18 89-51 0 0 37-33 58-79 0 0 21-47 21-103 0 0 0-47-12-84 0 0-12-36-33-64 0 0-22-28-52-47 0 0-31-19-69-31 0 0 93-25 140-84 0 0 47-60 47-149 0 0 0-68-25-122 0 0-26-54-69-92 0 0-44-38-102-58 0 0-58-19-124-19z" id="f1_l" transform="scale(.001 -.001)"/><path d="M498 354v400s0 36 4 79L160 354zm0-354v257H76s-15 0-25 7c0 0-9 8-12 21l-13 63 464 633h117V354h142v-71s0-11-7-19c0 0-7-7-21-7H607V0z" id="f1_n" transform="scale(.001 -.001)"/><path d="M338-9s-43 0-81 8c0 0-39 8-73 22 0 0-35 14-64 33 0 0-28 18-51 39l38 53s14 18 34 18c0 0 13 0 30-10 0 0 17-11 41-24 0 0 24-13 56-23 0 0 32-11 77-11 0 0 49 0 88 17 0 0 40 16 68 46 0 0 27 30 42 72 0 0 15 42 15 94 0 0 0 46-13 82 0 0-13 37-39 63 0 0-26 26-64 40 0 0-39 14-91 14 0 0-72 0-153-26l-78 23 78 459h456v-54s0-26-17-43c0 0-16-18-56-18H285l-43-253s38 8 71 12c0 0 33 3 64 3 0 0 75 0 132-22 0 0 58-23 97-63 0 0 39-39 58-93 0 0 20-54 20-118 0 0 0-78-26-141 0 0-27-63-74-108 0 0-46-45-110-69 0 0-63-22-136-22z" id="f1_p" transform="scale(.001 -.001)"/><path d="M388 97s45 0 83 17c0 0 37 17 63 46 0 0 27 29 42 69 0 0 14 40 14 87 0 0 0 50-14 91 0 0-14 40-40 68 0 0-26 28-62 43 0 0-36 15-80 15 0 0-46 0-83-18 0 0-36-17-62-47 0 0-26-29-40-68l-14-81s0-50 13-90c0 0 13-41 37-70 0 0 25-29 61-46 0 0 36-16 82-16zm2-107s-74 0-133 24c0 0-59 25-101 71 0 0-42 46-65 111 0 0-22 65-22 146 0 0 0 68 28 144 0 0 28 76 87 164l240 350s10 14 28 23c0 0 19 9 43 9h116L326 646s-11-16-22-30c0 0-11-15-21-29 0 0 33 22 71 34 0 0 39 12 84 12 0 0 57 0 108-21 0 0 52-20 91-59 0 0 39-39 62-96 0 0 22-58 22-132 0 0 0-71-24-132 0 0-24-62-68-107 0 0-43-46-104-71 0 0-61-25-135-25z" id="f1_r" transform="scale(.001 -.001)"/><path d="M159 0l398 805s18 35 41 60H104s-13 0-22 9c0 0-9 9-9 21v85h652v-55s0-24-5-39c0 0-5-15-11-26L318 44s-9-18-26-31c0 0-16-13-42-13z" id="f1_s" transform="scale(.001 -.001)"/><path d="M387 93s45 0 80 14c0 0 36 14 60 39 0 0 25 26 38 61 0 0 12 35 12 78 0 0 0 53-15 90 0 0-15 38-41 61 0 0-26 24-60 35 0 0-35 12-74 12 0 0-39 0-74-12 0 0-35-11-60-35 0 0-26-23-42-61 0 0-15-37-15-90 0 0 0-43 13-78 0 0 13-35 37-61 0 0 25-25 60-39 0 0 36-14 81-14zm0 494s45 0 77 15c0 0 31 16 51 41 0 0 19 25 28 59 0 0 9 33 9 68 0 0 0 36-10 67 0 0-11 31-31 55 0 0-21 23-52 37 0 0-31 14-72 14 0 0-41 0-72-14 0 0-31-14-51-37 0 0-21-24-31-55 0 0-11-31-11-67 0 0 0-35 9-68 0 0 9-34 29-59 0 0 19-25 51-41 0 0 31-15 76-15zm0-597s-72 0-132 19c0 0-60 21-103 59 0 0-43 39-67 93 0 0-24 55-24 122 0 0 0 100 48 164 0 0 47 64 138 91 0 0-76 30-115 90 0 0-38 61-38 144 0 0 0 57 21 106 0 0 22 50 60 87 0 0 38 37 92 58 0 0 55 21 120 21 0 0 66 0 120-21 0 0 54-21 92-58 0 0 39-37 60-87 0 0 21-49 21-106 0 0 0-83-38-144 0 0-39-60-115-90 0 0 91-27 139-91 0 0 47-64 47-164 0 0 0-67-24-122 0 0-24-54-66-93 0 0-43-38-103-59 0 0-60-19-133-19z" id="f1_u" transform="scale(.001 -.001)"/><path d="M407 498s47 0 83 15c0 0 37 16 61 42 0 0 25 27 38 62l13 72s0 45-14 82c0 0-14 37-39 63 0 0-25 26-59 40 0 0-34 14-75 14 0 0-44 0-79-15 0 0-35-14-60-40 0 0-25-26-39-62 0 0-14-36-14-79 0 0 0-93 49-144 0 0 50-50 135-50zM201 0l291 390s15 20 27 37c0 0 12 17 23 34 0 0-35-28-81-44 0 0-45-15-95-15 0 0-54 0-103 19 0 0-48 18-85 54 0 0-37 36-59 88 0 0-21 52-21 120 0 0 0 64 23 121 0 0 24 56 66 98 0 0 42 42 101 66 0 0 58 23 128 23 0 0 70 0 126-23 0 0 56-23 97-65 0 0 40-42 61-101 0 0 22-58 22-128 0 0 0-43-8-81 0 0-8-37-22-74 0 0-14-36-35-72 0 0-21-36-46-74L380 29s-9-13-25-21c0 0-17-8-39-8z" id="f1_v" transform="scale(.001 -.001)"/><path d="M386 95s44 0 83 20c0 0 40 19 70 66 0 0 30 46 48 122 0 0 18 75 18 187 0 0 0 112-18 188 0 0-18 75-48 122 0 0-30 46-70 66 0 0-39 20-83 20 0 0-43 0-82-20 0 0-39-20-69-66 0 0-31-47-49-122 0 0-17-76-17-188 0 0 0-112 17-187 0 0 18-76 49-122 0 0 30-47 69-66 0 0 39-20 82-20zm0-104s-73 0-136 29c0 0-64 30-110 92 0 0-47 61-74 155 0 0-26 95-26 223 0 0 0 128 26 223 0 0 27 94 74 156 0 0 46 62 110 92 0 0 63 30 136 30 0 0 74 0 137-30 0 0 64-30 111-92 0 0 47-62 74-156 0 0 27-95 27-223 0 0 0-128-27-223 0 0-27-94-74-155 0 0-47-62-111-92 0 0-63-29-137-29z" id="f1_x" transform="scale(.001 -.001)"/></defs><style>@font-face{font-family:Carlito-Bold_9;src:url(&quot;fonts/Carlito-Bold_9.woff&quot;) format(&quot;woff&quot;)}@font-face{font-family:Carlito_e;src:url(&quot;fonts/Carlito_e.woff&quot;) format(&quot;woff&quot;)}</style></svg>