<svg viewBox="0 0 64 64" xmlns="http://www.w3.org/2000/svg" xmlns:xlink="http://www.w3.org/1999/xlink"><defs><linearGradient gradientUnits="userSpaceOnUse" id="a" x1="12.431" x2="54.431" y1="11.174" y2="62.174"><stop offset="0" stop-color="#fff200"/><stop offset="1" stop-color="#cd118c"/></linearGradient><linearGradient id="b" x1="17.798" x2="59.798" xlink:href="#a" y1="6.755" y2="57.755"/><linearGradient id="c" x1="17.149" x2="59.149" xlink:href="#a" y1="7.289" y2="58.289"/><linearGradient id="d" x1="12.435" x2="54.435" xlink:href="#a" y1="11.171" y2="62.171"/><linearGradient id="e" x1="23.161" x2="65.161" xlink:href="#a" y1="2.338" y2="53.338"/></defs><path d="M54 24a22 22 0 10-33.109 18.981l-8.142 14.108 6.825-1.825 1.837 6.824 9.321-16.15c.421.027.839.062 1.268.062.45 0 .888-.035 1.328-.063l9.335 16.154 1.825-6.827 6.833 1.824-8.163-14.139A21.946 21.946 0 0054 24zM22.089 56.912l-1.1-4.1-4.094 1.095 5.764-9.987c.6.283 1.214.526 1.832.751l-2.34 3.8 1.7 1.048 2.61-4.239a21.289 21.289 0 002.083.441zm8.181-13h-.019a19.5 19.5 0 01-7.526-2.189 20 20 0 1118.6-.028 19.7 19.7 0 01-7.529 2.219 18.43 18.43 0 01-3.526.001zm12.8 8.9l-1.094 4.093L35.5 45.7q1.029-.163 2.031-.424l2.618 4.252 1.7-1.048-2.349-3.82q.956-.348 1.88-.787l5.8 10.039z" fill="url(#a)"/><path d="M49 24a17 17 0 10-17 17 17.019 17.019 0 0017-17zM32 39a15 15 0 1115-15 15.017 15.017 0 01-15 15z" fill="url(#b)"/><path d="M35 14h-5.414L26 17.586V21h3v10h-3v2h12v-2h-3zm-4 17V19h-3v-.586L30.414 16H33v15z" fill="url(#c)"/><path fill="url(#d)" d="M22 23h2v2h-2z"/><path fill="url(#e)" d="M40 23h2v2h-2z"/></svg>