<svg id="Layer_1" version="1.1" viewBox="0 0 512 512" xml:space="preserve" xmlns="http://www.w3.org/2000/svg"><style></style><circle cx="256" cy="256" r="247" fill="#1e96c8"/><path d="M360.8 159c.3-.2 6.7-3.1 12.4.7 4.4 3 6.5 8.7 5 14.2-13.9 65.6-27.9 131.2-41.8 196.8-.1.8-.9 7.1-6.6 10.5-3.8 2.3-8.6 2.6-12.8.8-1.1-.5-2.2-1.2-3.2-1.9-33-24.8-66-49.6-99-74.5l115.1-103.5c.3-.5 1.6-2.1 1.1-3.1-.4-.8-1.8-1.1-3.7-.8-1.8.2-3.5.9-5 1.9-47.3 29.8-94.5 59.6-141.8 89.4L116.2 270c-2.7-2-6.5-5.2-6.2-9 .3-3.5 4-5.9 5.4-6.8C127 247 314.7 176.3 360.8 159z" fill="#fff"/><path d="M214.8 305.7l-4.1 63.6c1.5-.1 3.7-.3 6.2-1.4 3-1.3 5-3.2 6.1-4.4l29.7-29.4-37.9-28.4z" fill="#a9c9dd"/><path d="M210.6 369.3c-1.7 0-3.7-.3-5.3-1.6-1.9-1.6-2.5-3.9-2.6-4.5-1.1-4.5-9.9-33.6-22.2-73.6l141.8-89.4c.6-.4 1.4-.9 2.5-1.3 1.8-.7 5.2-1.5 6.1-.2.4.5.2 1.3.1 1.6 0 0-.2 1-1.1 1.9-1.2 1.2-49.4 44.5-115.1 103.5l-4.2 63.6z" fill="#c8daea"/></svg>