<svg fill="#2393de" height="48" width="48" xmlns="http://www.w3.org/2000/svg"><path d="M11.003 46c-1.217 0-2.4-.239-3.517-.712-.307-.13-.528-.403-.592-.729s.039-.663.274-.898l3.535-3.534v-2.829H7.875L4.34 40.832c-.235.235-.57.34-.898.274a.9962.9962 0 01-.729-.592c-1.437-3.396-.683-7.271 1.92-9.874 1.697-1.698 3.955-2.633 6.357-2.633.987 0 1.952.157 2.876.469l14.603-14.603c-1.092-3.233-.278-6.793 2.163-9.234 1.698-1.697 3.956-2.632 6.358-2.632 1.217 0 2.4.239 3.517.712.307.13.528.403.592.729s-.039.663-.274.898L37.29 7.882v2.829h2.829l3.534-3.535c.235-.235.568-.34.898-.274.326.063.6.285.729.592 1.437 3.396.683 7.271-1.92 9.874C41.663 19.065 39.405 20 37.003 20c-.987 0-1.952-.157-2.876-.469L19.524 34.134c1.092 3.233.277 6.793-2.164 9.234C15.663 45.065 13.405 46 11.003 46zm-1.237-2.108c.405.072.818.108 1.237.108 1.868 0 3.623-.727 4.943-2.046 2.025-2.024 2.611-5.04 1.493-7.681a.9998.9998 0 01.214-1.097L33.169 17.66c.289-.288.724-.374 1.097-.214.869.367 1.79.554 2.737.554 1.868 0 3.623-.727 4.943-2.047 1.649-1.649 2.344-3.956 1.94-6.183l-2.647 2.647a.999.999 0 01-.707.293H36.29c-.552 0-1-.447-1-1V7.468c0-.266.105-.52.293-.707l2.646-2.645a7.079 7.079 0 00-1.238-.108c-1.868 0-3.624.727-4.944 2.046-2.024 2.025-2.61 5.04-1.492 7.681.159.375.074.809-.214 1.097L14.824 30.348c-.288.288-.723.373-1.097.214a6.9987 6.9987 0 00-2.737-.554c-1.868 0-3.624.727-4.943 2.047-1.649 1.649-2.344 3.956-1.94 6.183l2.647-2.647a.999.999 0 01.707-.293h4.243c.552 0 1 .447 1 1v4.243c0 .266-.105.52-.293.707l-2.645 2.644zM42 46c-1.068 0-2.073-.416-2.829-1.172l-9.192-9.193a.9989.9989 0 010-1.414l4.242-4.242a.9989.9989 0 011.414 0l9.193 9.193C45.584 39.927 46 40.932 46 42c0 1.069-.417 2.074-1.172 2.829C44.073 45.584 43.069 46 42 46zm-9.899-11.072l8.485 8.486c.755.755 2.072.756 2.828 0 .378-.378.586-.88.586-1.414s-.208-1.037-.585-1.414L34.929 32.1l-2.828 2.828z"/><path d="M10.7782 9.3634L22.1887 20.774l-1.4142 1.4142L9.364 10.7776zM28.564 38.05a.9973.9973 0 01-.707-.293.9989.9989 0 010-1.414l8.485-8.485c.391-.391 1.023-.391 1.414 0s.391 1.023 0 1.414l-8.485 8.485a.9973.9973 0 01-.707.293z"/><path d="M8.657 12.485a.9973.9973 0 01-.707-.293L2.293 6.535C2.105 6.348 2 6.094 2 5.828s.105-.52.293-.707l2.828-2.828a.9989.9989 0 011.414 0l5.657 5.657c.188.188.293.441.293.707s-.105.52-.293.707l-2.828 2.828a.993.993 0 01-.707.293zM4.414 5.828l4.243 4.243 1.414-1.414-4.243-4.243-1.414 1.414zM26.4328 25.0164l7.3404 7.3405-1.4142 1.4142-7.3404-7.3405z"/></svg>