<svg height="100" width="160" xmlns="http://www.w3.org/2000/svg"><g fill="none" fill-rule="evenodd"><path d="M148 0H8C4 0 0 4 0 8v80c0 8 4 12 12 12h136c8 0 12-4 12-12V12c0-8-4-12-12-12zm0 0" fill="#1C1C1C"/><path d="M54.4123 65.8226c-1.0012-.2172-2.1339-.7568-2.7422-1.3064-.2713-.245-.6649-.7967-.8797-1.233l-.3887-.7893-.0344-5.399-.0344-5.3991h5.7334l.0003 4.6211c0 4.164.0208 4.6615.2087 5.0296.2614.5122.5025.662.9034.5614.6545-.1643.6764-.3428.6764-5.4956v-4.7165h5.8436v4.8731c0 2.7748-.0518 5.146-.1202 5.5069-.3806 2.0067-1.7518 3.2647-4.0786 3.742-1.1495.2358-4.0105.2385-5.0876.0048zm46.0397-.0577c-1.2043-.3155-1.9834-.7605-2.844-1.6246-1.3301-1.3352-1.8675-2.9087-1.8675-5.4681 0-2.5604.5473-4.1451 1.9002-5.5019 1.2915-1.2953 2.8343-1.8282 5.293-1.8282 2.4707 0 4.0129.5325 5.3158 1.8354 1.3591 1.3591 1.892 2.9067 1.892 5.4947 0 2.5975-.524 4.1308-1.8724 5.4793-1.3577 1.3577-2.8185 1.8591-5.3843 1.8483-1.1375-.0048-1.7976-.0685-2.4328-.2349 0 0 .6352.1664 0 0zm3.0481-3.8773c.7861-.5506.9856-4.6052.2958-6.013-.3909-.7977-1.2897-.8032-1.6942-.0104-.7303 1.4315-.459 5.7888.3816 6.1267.3042.1224.761.076 1.0168-.1033zm29.1741-11.5037V35h2.1466v30.7679h-2.1466v-15.384zm11.2833.179V35.3577h2.0274v30.41h-2.0274v-15.205zm-76.2042 8.1093v-6.9764H74.6476l.3523.9838c.1938.5411.749 2.121 1.2337 3.5106l.8813 2.5268.0316-3.5106.0316-3.5106h4.7666v13.9528l-3.4286-.0014-3.4286-.0015-1.2521-3.6324-1.2522-3.6325-.0316 3.634-.0315 3.6338h-4.7668v-6.9764zm18.4846 0v-6.9764h5.7242v13.9528H86.238v-6.9764zm27.6673 0v-6.9764h6.8863l1.2376 3.5478 1.2376 3.5478.0316-3.5478.0316-3.5478h4.7667v13.9528h-6.8697l-1.246-3.6017-1.2459-3.6018-.0315 3.6018-.0316 3.6017h-4.7667v-6.9764zM54.6766 49.545c-1.36-.243-2.7403-.9533-3.314-1.7055-.4323-.5667-.7477-1.4304-.8488-2.3247l-.0833-.7359h2.818c2.761 0 2.8178.005 2.8178.2445 0 .3448.318.9184.5897 1.0638.4344.2325.9584.1434 1.3276-.2258.7587-.7587.3974-1.022-2.6395-1.9239-3.1376-.9318-3.7415-1.2852-4.2684-2.4977-.48-1.1044-.4276-2.899.1156-3.9637.5566-1.0912 1.8683-1.9487 3.514-2.2973 1.126-.2386 3.85-.2333 5.0261.0096 2.2344.4616 3.4267 1.659 3.5823 3.598l.0598.7453h-5.2799v-.2773c0-.41-.473-.796-.9754-.796-.4065 0-1.0519.3683-1.0519.6003 0 .298.6212.5992 1.9464.944 2.9493.767 3.8908 1.1561 4.6952 1.94.7716.752 1.0362 1.4752 1.0377 2.8362.0007.6232-.0695 1.3476-.1558 1.61-.4489 1.3644-1.5307 2.3496-3.1626 2.8802-.862.2803-1.1791.3166-3.049.3492-1.148.02-2.3636-.013-2.7016-.0733 0 0 .338.0603 0 0zm-38.7993-.337c0-.0564-.644-3.075-1.431-6.708-.787-3.6331-1.4309-6.7274-1.431-6.8762l-.0002-.2707 2.5897.0322 2.5896.032.4778 3.601c.2627 1.9806.4914 3.5874.5081 3.5706.0167-.0167.2466-1.503.5108-3.3028s.5113-3.42.549-3.6004l.0686-.328h5.9193l.1248.7454c.0686.41.2926 1.926.4977 3.369.2052 1.443.4098 2.7196.4548 2.837.045.1173.2945-1.3987.5545-3.369l.4728-3.5823h2.5972c2.3938 0 2.5973.0163 2.5979.2087.0003.1147-.6565 3.2541-1.4597 6.9764l-1.4602 6.7677h-6.2344l-.1268-.8646c-.0698-.4755-.2991-2.0989-.5097-3.6074-.2106-1.5086-.4167-2.7821-.458-2.8301-.0412-.048-.3097 1.5754-.5967 3.6075l-.5219 3.6946h-3.1415c-1.7279 0-3.1415-.0461-3.1415-.1026 0 0 0 .0565 0 0zm3.2919-6.0663c-.0396-.0397-.0678.0308-.0626.1565.0057.139.034.1672.072.072.0345-.086.0302-.189-.0094-.2285 0 0 .0396.0396 0 0zm17.3392-.8075v-6.9764h10.733v3.9354h-5.128v1.0733H46.8837v3.9354h-4.7702v1.0733h5.3664v3.9354H36.5084v-6.9764zM69.9 44.302v-5.0087h-3.3391v-3.9354h12.4025v3.9354h-3.3391v10.0174H69.8999V44.302zm12.4026-1.9677v-6.9764h10.733v3.9354h-5.128v1.0733h4.7702v3.9354h-4.7702v1.0733h5.3665v3.9354H82.3025v-6.9764zm14.6684 0v-6.9764h4.824c5.0668 0 5.652.0476 6.6245.5396 1.1145.5639 1.5438 1.3862 1.5477 2.9646.0015.5827-.0586 1.2639-.1335 1.5138-.1813.6053-.732 1.2539-1.319 1.5533l-.4779.2438.5029.2488c.8624.4267 1.071.9381 1.3745 3.371.1064.8526.2967 1.9735.4227 2.4908.126.5174.2292.9601.2292.9839 0 .0238-1.2859.0432-2.8575.0432h-2.8575l-.1205-.4473c-.0662-.246-.2307-1.1985-.3655-2.1167-.2782-1.8948-.4085-2.125-1.2823-2.2651l-.5068-.0813v4.9104h-5.605v-6.9764zm7.1034-1.7425c.438-.4383.492-.951.1428-1.357-.2375-.276-.4094-.346-.965-.392l-.6762-.056v2.2064l.6069-.0583c.428-.0411.6908-.1423.8915-.3431 0 0-.2007.2008 0 0zm9.8309 1.7425v-6.9764h6.8863l1.2376 3.5478 1.2376 3.5479.0316-3.5479.0316-3.5478h4.7667v13.9528h-6.8617l-1.25-3.6016-1.2499-3.6017-.0315 3.6017-.0316 3.6016h-4.7667v-6.9764zm0 0" fill="#DFAC16"/></g></svg>