<svg height="60" width="60" xmlns="http://www.w3.org/2000/svg"><g fill="none" fill-rule="evenodd"><path d="M30 60c16.5685 0 30-13.4315 30-30S46.5685 0 30 0 0 13.4315 0 30s13.4315 30 30 30z" fill="#57BB63"/><path d="M30.0713 46.221c-2.8605 0-5.5477-.731-7.8857-2.0141l-9.0318 2.87 2.9443-8.685c-1.485-2.4395-2.3406-5.3003-2.3406-8.3583 0-8.9402 7.3038-16.1874 16.3141-16.1874 9.0093 0 16.313 7.2472 16.313 16.1874S39.0812 46.221 30.0713 46.221zm0-29.7969c-7.5634 0-13.7155 6.1053-13.7155 13.6095 0 2.9778.9707 5.7356 2.6123 7.9794l-1.7132 5.054 5.2704-1.6751c2.1659 1.4219 4.7601 2.2512 7.546 2.2512 7.5622 0 13.7154-6.1049 13.7154-13.6091 0-7.5043-6.1532-13.6099-13.7154-13.6099zm8.2375 17.3376c-.1004-.165-.367-.2647-.7662-.463-.4002-.1983-2.3667-1.1586-2.7326-1.2905-.367-.1321-.634-.199-.9002.1983s-1.0328 1.2905-1.2665 1.5552c-.2333.2651-.4663.2984-.8662.0997-.3995-.1983-1.6881-.6173-3.216-1.969-1.1885-1.0517-1.9913-2.3499-2.2242-2.7475-.2334-.397-.0248-.6115.1753-.809.1799-.178.4-.4634.6-.695.2002-.2318.2666-.3968.3996-.662.1336-.2647.0668-.4962-.0333-.6952-.1-.1983-.9002-2.1508-1.2332-2.9454-.333-.7938-.6657-.6616-.8995-.6616-.2333 0-.4999-.0333-.7665-.0333-.2666 0-.7.0994-1.0667.4963-.3663.3973-1.399 1.3573-1.399 3.3094 0 1.9525 1.4322 3.8389 1.6327 4.1033.1998.2643 2.7656 4.4012 6.8304 5.99 4.0664 1.5884 4.0664 1.0586 4.7997.9925.7322-.0661 2.3649-.9596 2.699-1.886.3327-.9272.3327-1.7218.2334-1.8872z" fill="#FFF"/></g></svg>