<svg xmlns="http://www.w3.org/2000/svg" width="300.6" height="298.791"><g fill="#390" stroke="#390"><path d="M5.0139 185.2058c-5.7893 5.6802-5.8771 14.9137-.197 20.703l86.2123 87.8683c5.6801 5.7892 14.9137 5.877 20.703.197l183.854-180.389c5.7892-5.6801 5.877-14.9136.1969-20.703L209.5708 5.014c-5.6801-5.7893-14.9137-5.8771-20.703-.197L5.0139 185.2058zm8.1505.7014L189.414 12.9792c4.9623-4.8686 12.8767-4.7933 17.7454.1689l80.4678 82.0135c4.8687 4.9623 4.7935 12.8767-.1688 17.7454L111.2088 285.835c-4.9623 4.8687-12.8767 4.7934-17.7454-.1688l-80.4678-82.0136c-4.8688-4.9622-4.7935-12.8766.1688-17.7454z" stroke-width=".6274259999999999" stroke-linecap="round" stroke-linejoin="round" stroke-opacity=".5571"/><g style="line-height:125%;-inkscape-font-specification:Ubuntu Bold" font-size="48" font-weight="700" letter-spacing="0" word-spacing="0" font-family="Ubuntu"><path d="M91.363 182.2585c3.7022-3.6325 7.189-5.7644 10.4605-6.3959 3.248-.6553 6.325.498 9.231 3.4598 2.9294 2.9857 4.0472 6.1316 3.3532 9.4378-.7175 3.2823-2.9393 6.7514-6.6654 10.4073l-1.7556 1.7225 8.1555 8.3122-5.5892 5.4839-24.0096-24.4708c.9838-1.434 2.1096-2.8668 3.3773-4.2982 1.2677-1.4313 2.4151-2.6508 3.4422-3.6586m5.0337 4.4136a29.107 29.107 0 00-1.183 1.231 69.4884 69.4884 0 00-.933 1.056l7.0307 7.1657 1.7556-1.7225c1.9347-1.8982 3.134-3.5905 3.5977-5.0769.4637-1.4863-.0075-2.946-1.4136-4.3792-.6796-.6927-1.3735-1.137-2.0815-1.333-.6841-.2195-1.394-.2263-2.1294-.0203-.735.1586-1.4839.5183-2.2464 1.0789-.786.5368-1.585 1.2036-2.3971 2.0003M156.8771 167.2727c-1.1064-.602-2.2721-1.1929-3.497-1.7725l-3.6032-1.809-9.6737 9.4914a173.3268 173.3268 0 011.7043 3.6721 118.082 118.082 0 001.7414 3.495l-5.8042 5.6948c-1.6932-3.5892-3.235-6.9284-4.6254-10.0178-1.3903-3.0894-2.6757-6.024-3.856-8.8037-1.1565-2.8032-2.2314-5.4755-3.2247-8.0169-.9929-2.5886-1.915-5.153-2.7664-7.693l5.3385-5.2378a258.8897 258.8897 0 017.6032 2.9473c2.5458 1.0181 5.1972 2.1437 7.954 3.3766 2.7807 1.2097 5.7022 2.539 8.7646 3.9878 3.0623 1.4489 6.3716 3.054 9.928 4.8151l-5.9834 5.8706m-25.542-12.6304c.2321.4755.5334 1.141.9039 1.9963.3704.8554.7988 1.8415 1.2851 2.9582a593.4057 593.4057 0 011.5975 3.7066 503.2696 503.2696 0 001.9125 4.171l7.0582-6.9252a506.1271 506.1271 0 00-4.1339-1.9915c-1.3191-.6278-2.5443-1.1837-3.6755-1.6677a1703.015 1703.015 0 00-2.9333-1.3412c-.8481-.3866-1.5196-.6888-2.0145-.9065M150.3205 124.9747l5.5892-5.484L180.271 144.32l-5.5893 5.4839-24.3611-24.8291M195.75 120.202c.2861-.234.6081-.503.966-.8072l1.254-1.2304c2.7946-2.7419 4.1693-5.4737 4.1243-8.1953-.0213-2.745-1.2505-5.3597-3.6878-7.8438-2.5545-2.6035-5.1328-3.9413-7.735-4.0134-2.6022-.072-5.3006 1.2629-8.0952 4.0048-.3822.375-.7646.7736-1.1472 1.1959-.406.3984-.7648.7973-1.0762 1.1965l15.397 15.6929m8.425-23.7363c2.1092 2.1497 3.6144 4.3528 4.5158 6.6093.9014 2.2566 1.2466 4.5196 1.0358 6.7892-.187 2.2462-.9065 4.4991-2.1585 6.7588-1.252 2.2598-2.9767 4.4676-5.1741 6.6237-1.0032.9843-2.2205 2.0848-3.6518 3.3017-1.408 1.2407-2.8857 2.3625-4.4333 3.3652l-23.7284-24.1842c1.0555-1.5043 2.2408-2.972 3.5558-4.4029 1.3155-1.4782 2.4749-2.7094 3.478-3.6938 2.1259-2.0857 4.283-3.7334 6.4715-4.943 2.2124-1.233 4.4434-1.9454 6.6932-2.137 2.2498-.1915 4.4942.1848 6.7331 1.1289 2.239.9442 4.46 2.5388 6.6629 4.784" stroke-width="1.04571"/></g></g></svg>