<svg viewBox="0 0 64 64" xmlns="http://www.w3.org/2000/svg" xmlns:xlink="http://www.w3.org/1999/xlink"><defs><linearGradient gradientUnits="userSpaceOnUse" id="a" x1="-6.872" x2="49.128" y1="22.657" y2="75.657"><stop offset="0" stop-color="#fff200"/><stop offset="1" stop-color="#cd118c"/></linearGradient><linearGradient id="b" x1="-3.092" x2="52.908" xlink:href="#a" y1="18.663" y2="71.663"/><linearGradient id="c" x1="11.074" x2="67.074" xlink:href="#a" y1="3.695" y2="56.695"/><linearGradient id="d" x1="7.036" x2="63.036" xlink:href="#a" y1="7.962" y2="60.962"/><linearGradient id="e" x1="18.75" x2="74.75" xlink:href="#a" y1="-4.415" y2="48.585"/><linearGradient id="f" x1="-1.389" x2="54.611" xlink:href="#a" y1="16.864" y2="69.864"/></defs><g data-name="chart-financial-business-finance"><path fill="url(#a)" d="M54 60v-1h-2v1h-8v-1h-2v1h-9v-1h-2v1h-8v-1h-2v1h-9v-1h-2v1H4v-6h1v-2H4v-8h1v-2H4v-9h1v-2H4v-9h1v-2H4v-7h1v-2H4V2H2v60h60v-2h-8z"/><path d="M10 50h2V40h2V24h-2V14h-2v10H8v16h2zm0-24h2v12h-2z" fill="url(#b)"/><path d="M31 40h2v-8h2V18h-2V7h-2v11h-2v14h2zm0-20h2v10h-2z" fill="url(#c)"/><path d="M42 52h2v-3h2v-8h-2v-9h-2v9h-2v8h2zm0-9h2v4h-2z" fill="url(#d)"/><path d="M52 44h2V34h2v-8h-2V12h-2v14h-2v8h2zm0-16h2v4h-2z" fill="url(#e)"/><path d="M21 50h2v-6h2V33h-2v-5h-2v5h-2v11h2zm0-15h2v7h-2z" fill="url(#f)"/></g></svg>